<?xml version="1.0" encoding="utf-8" ?>
<svg baseProfile="full" height="300mm" version="1.1" viewBox="0,0,200,300" width="200mm" xmlns="http://www.w3.org/2000/svg" xmlns:ev="http://www.w3.org/2001/xml-events" xmlns:xlink="http://www.w3.org/1999/xlink"><defs /><rect fill="#222222" height="300" width="200" x="0" y="0" /><text fill="#FFFFFF" style="font-size:12px; font-family:Arial; font-weight:bold;" x="10" y="20">Over 3km Runs</text><text fill="#FFFFFF" style="font-size:4px; font-family:Arial" x="10" y="280">Runner</text><text fill="#FFFFFF" style="font-size:9px; font-family:Arial" x="10" y="290">王子阳</text><text fill="#FFFFFF" style="font-size:4px; font-family:Arial" x="65" y="280">SPECIAL TRACKS</text><rect fill="yellow" height="2.6" width="2.6" x="65" y="283" /><text fill="#FFFFFF" style="font-size:3px; font-family:Arial" x="70" y="285.5">Over 20.0 km</text><rect fill="red" height="2.6" width="2.6" x="65" y="287" /><text fill="#FFFFFF" style="font-size:3px; font-family:Arial" x="70" y="289.5">Over 40.0 km</text><text fill="#FFFFFF" style="font-size:4px; font-family:Arial" x="120" y="280">STATISTICS</text><text fill="#FFFFFF" style="font-size:3px; font-family:Arial" x="120" y="285">Number: 8</text><text fill="#FFFFFF" style="font-size:3px; font-family:Arial" x="120" y="290">Weekly: 1.6</text><text fill="#FFFFFF" style="font-size:3px; font-family:Arial" x="141" y="285">Total: 32.7 km</text><text fill="#FFFFFF" style="font-size:3px; font-family:Arial" x="141" y="290">Avg: 4.1 km</text><text fill="#FFFFFF" style="font-size:3px; font-family:Arial" x="167" y="285">Min: 3.0 km</text><text fill="#FFFFFF" style="font-size:3px; font-family:Arial" x="167" y="290">Max: 5.2 km</text><polyline fill="none" points="39.490630499087274,73.34095335094025 38.00170426722616,73.1588312991662 35.1805808795616,73.24989232979715 32.43782202992588,73.24989232979715 29.53833410423249,73.24989232979715 26.48211710061878,73.34095335094025 23.896087328903377,73.24989232979715 21.07496394077316,73.0677702591056 20.36968309432268,73.0677702591056 19.899495863355696,72.61246491823113 19.272579554934055,71.42866993136704 20.36968309432268,68.60576777759707 21.310057557187974,65.7828565845266 22.4071610965766,63.14206051023211 23.347535558976233,60.59231886296766 24.209545482881367,58.13363243261119 24.914826329797506,56.403441574424505 25.620107176713645,55.31068770366255 27.265762486495078,53.1251758983708 28.83305325731635,50.93965867423685 29.930156796704978,49.48264418117469 31.57581210602075,47.66137267800514 33.14310287684202,45.20265017962083 34.31857095519081,42.74392082297709 36.120955341961235,40.28518460789928 37.68824611278251,37.826441534329206 39.41226596059278,35.458756536769215 40.35264042299241,34.09278152970364 41.91993119381368,33.5463909341488 44.6626900434494,33.72852117015282 47.4054488921538,33.63745605701115 50.226572279818356,33.63745605701115 53.12606020597741,33.63745605701115 55.94718359364197,33.5463909341488 58.61157790385187,33.2731955096242 60.335597752127796,33.09106517909095 60.88414952158928,33.2731955096242 61.19760767603293,33.819586274330504 61.19760767603293,34.45704173849663 60.2572332136333,36.82472942699678 59.16012967377901,39.465604345547035 58.14139067288488,41.83327858016128 57.04428713303059,44.56520248652669 56.49573536356911,46.113288941793144 55.71208997769281,47.11499049322447 55.47699636220932,48.48094532015966 54.301528283860534,50.93965867423685 52.969331128988415,53.85368043545168 52.10732120461762,56.31237880361732 51.16694674268365,58.68000778759597 50.226572279818356,61.32081722910516 49.20783327892423,63.4152466779924 48.97273966297507,64.59905242623063 48.34582335501909,65.7828565845266 48.189094277564436,66.60241237853188 47.3270843536593,67.87727543211076 47.3270843536593,68.60576777759707 47.09199073817581,69.33425952144898 46.38670989125967,70.42699600820197 45.99488719832152,71.24654748430476 43.80068011954427,72.70352600532351 42.860305656678975,73.24989232979715 41.91993119381368,73.43201436259551 39.02044326765463,73.34095335094025 36.27768441895023,73.24989232979715 34.94548726361245,73.43201436259551 32.35945749189705,73.24989232979715 29.85179225821048,73.34095335094025 27.344127024989575,73.61413635796634 24.366274560336024,73.61413635796634 22.250432019121945,73.97838023561053 19.977860401850194,73.70519734133268 18.959121400490403,73.0677702591056 18.567298708017915,72.06609819881851 19.664402247406542,69.69850516761653 20.68314124830067,67.33090577763505 21.701880249660462,64.78117624635343 22.642254712060094,62.23143934021937 23.73935825144872,59.590632626554 24.679732714314014,57.31406876514666 26.16865894664079,54.7643102601869 27.892678794451058,52.4877339345403 29.303240488283336,50.393278521543834 31.105624875053763,48.38988173089456 32.59455110738054,45.840097411884926 33.22146741580218,44.9294583676965 34.16184187820181,42.926049158675596 35.80749718751758,40.74050664663082 37.29642341984436,38.46389410091797 38.94207872962579,36.096210815478116 40.19591134600341,34.274911653017625 40.509369500447065,34.00171645404771 41.60647303983569,33.63745605701115 42.70357657922432,33.63745605701115 45.211241812910885,33.5463909341488 48.11072973860428,33.5463909341488 50.696759511251,33.5463909341488 53.59624743741006,33.5463909341488 56.18227720912546,33.45532580220606 58.92503605829552,33.1821303491015 60.49232682911679,33.0 60.96251406054944,33.364260660426226 61.19760767603293,33.819586274330504 61.19760767603293,34.365976700617466 60.2572332136333,36.82472942699678 59.23849421273917,39.465604345547035 59.003400596790016,40.10305572650395 58.689942442346364,40.64944225776708 57.59283890295774,43.290305716975126 56.57409990206361,45.840097411884926 55.39863182371482,48.48094532015966 55.08517366927117,49.48264418117469 54.06643466837704,51.4860384882777 52.969331128988415,54.21793247835012 51.950592127628624,56.67662983038463 50.85348858824,59.317445273685735 49.83474958734587,61.958252805576194 49.20783327892423,63.4152466779924 49.12946874042973,64.0526807399583 48.03236520057544,66.78453578450717 47.562177969142795,67.42196741013322 47.4838134306483,68.15046013216488 47.17035527667031,68.87895225227112 46.70016804523766,69.42532094696071 46.151616275310516,70.88230247807223 44.50596096646041,72.24822047608905 43.33049288811162,72.79458708281163 40.66609857743606,72.9767092098482 37.68824611278251,72.88564815087011 35.102216341067106,73.0677702591056 32.6729156463407,73.24989232979715 29.695063181221485,73.34095335094025 26.79557525506243,73.43201436259551 24.052816405892372,73.43201436259551 21.231693018693477,73.43201436259551 19.977860401850194,72.9767092098482 19.272579554934055,72.15715934225591 19.1158504774794,71.70185353065608 19.194215016439557,71.06442499993136 19.507673170417547,70.6091186243575 19.821131324395537,70.33593468612526 20.526412171311677,67.69515225151554 21.545151172671467,64.78117624635343 22.4071610965766,62.50462579005398 23.504264635965228,59.7727574815508 24.52300363732502,57.04088070685975 26.090294408146292,54.7643102601869 27.579220640473068,52.578797100286465 29.14651141129434,50.393278521543834 30.008521335199475,49.573707657458726 31.654176644515246,47.29711792583112 32.20272841490805,46.84179927385412 32.43782202992588,46.20435276615899 33.14310287684202,45.02052231435664 34.24020641669631,42.561792449618224 35.96422626497224,40.37624903436517 37.60988157428801,38.0996355478419 39.02044326765463,36.00514594686683 40.35264042299241,34.18384659610456 41.76320211729035,33.72852117015282 44.42759642750025,33.63745605701115 47.01362619921565,33.63745605701115 49.52129143290222,33.45532580220606 52.10732120461762,33.5463909341488 54.77171551575884,33.45532580220606 57.357745287474245,33.2731955096242 59.94377505918965,33.0 60.57069136761129,33.0 61.040878599043936,33.1821303491015 61.27597221452743,33.5463909341488 61.432701291982085,34.274911653017625 60.335597752127796,36.91579421114875 59.316858750768006,39.19241075520404 58.45484882686287,41.01369975687703 57.51447436399758,43.563498037226964 56.49573536356911,45.93116126436507 55.633725439663976,47.66137267800514 55.08517366927117,49.48264418117469 53.988070129882544,51.75922826828901 52.89096659049392,54.21793247835012 51.79386305063963,57.13194340222981 50.85348858824,59.13532032468356 50.1482077408582,61.59400396118872 49.05110420193523,64.0526807399583 48.03236520057544,66.60241237853188 47.71890704613179,67.148782484408 47.17035527667031,68.97001372510567 46.543438968248665,70.06275066302624 46.46507442975417,70.70017991837813 46.151616275310516,71.24654748430476 45.211241812910885,72.15715934225591 44.897783658932894,72.70352600532351 44.6626900434494,75.2532326222281 44.50596096646041,76.25490106124198 44.6626900434494,76.80126518482575 44.34923188900575,77.98505295725772 44.34923188900575,80.80792507622391 44.34923188900575,83.44866823032498 44.27086735051125,85.36092557641678 44.42759642750025,87.0" stroke="#4DD2FF" stroke-linecap="round" stroke-linejoin="round" stroke-width="0.5"><title>2025-05-02 5.0km</title><desc>9223370290712225619</desc></polyline><polyline fill="none" points="163.2694418709725,34.36710086534731 161.56364611163735,33.68355051195249 159.57355105876923,33.68355051195249 155.02476237062365,35.734201094834134 151.32887155935168,38.81017428310588 148.7701779222116,45.30388486827724 147.63298074901104,55.55708285840228 145.9271849906072,66.15201648091897 145.3585864044726,71.27858353639022 145.64288569707423,73.67097843042575 149.3387765083462,80.84815141209401 150.76027297321707,82.89876904105768 154.74046307615936,84.94938523694873 157.01485742162913,85.63292364939116 162.13224469777197,85.2911544633098 164.69093833584338,84.26584666315466 168.38682914618403,81.18992111622356 170.6612234916538,76.06337137450464 172.082719957456,65.8102450252045 173.50421642232686,56.582400685874745 174.07281500846148,46.6709800043609 173.50421642232686,42.22791848797351 171.2298220777884,38.46839964319952 168.10252985358238,35.734201094834134 163.8380404561758,34.36710086534731 157.01485742162913,35.392426097765565 152.4660687316209,39.49372344184667 149.9073750935495,44.27856310061179 148.48587862867862,51.45580796082504 148.48587862867862,61.70898445765488 147.63298074901104,71.27858353639022 147.63298074901104,76.40514163533226 148.7701779222116,79.48107219696976 152.18176943901926,83.24053850607015 155.30906166415662,84.94938523694873 159.00495247356594,85.63292364939116 164.1223397506401,83.58230793219991 168.38682914618403,80.16461188532412 171.2298220777884,70.25327084120363 173.50421642232686,59.316579811275005 174.35711430199444,55.89885550620966 174.35711430199444,46.6709800043609 172.93561783619225,40.86082128318958 168.10252985358238,35.050651060417295 164.40663904324174,33.34177527576685 159.57355105876923,33.68355051195249 154.74046307615936,36.075976052321494 150.47597368154675,40.86082128318958 147.06438216380775,49.40516836266033 146.49578357674181,55.89885550620966 146.49578357674181,66.4937878975179 146.21148428414017,71.27858353639022 147.91728004347533,77.77222228446044 150.19167438708246,81.5316907807719 155.8776602493599,84.26584666315466 159.57355105876923,84.26584666315466 166.6810333877802,81.87346040527336 168.95542773324996,79.13930229446851 170.37692419812083,75.37983073247597 171.7984206629917,65.4684735306073 173.50421642232686,57.265945706982166 173.78851571585983,47.01275368803181 173.50421642232686,43.25324097275734 172.082719957456,39.49372344184667 169.2397270258516,37.10130068752915 164.40663904324174,34.708875983254984 158.7206531809643,34.708875983254984 154.17186449095607,37.44307548669167 151.61317085288465,40.17727244226262 149.3387765083462,49.063394957920536 148.20157933514565,58.29126293724403 147.3486814564094,68.20264437724836 146.49578357674181,73.32920785131864 148.7701779222116,80.16461188532412 154.17186449095607,84.6076159698423 157.58345600869507,85.63292364939116 164.40663904324174,84.94938523694873 167.2496319739148,82.89876904105768 170.0926249055192,78.45576236862689 171.7984206629917,67.17733060801402 174.35711430199444,56.582400685874745 174.6414135955274,46.6709800043609 174.6414135955274,44.62033706274815 171.7984206629917,38.12662496371195 169.52402631845325,35.734201094834134 163.55374116357416,33.68355051195249 159.00495247356594,34.02532570902258 155.02476237062365,36.417750970693305 152.7503680260852,38.12662496371195 149.9073750935495,43.59501505549997 148.7701779222116,55.21531016845256 147.06438216380775,65.8102450252045 146.21148428414017,74.01274897018448 147.3486814564094,78.11399234645069 153.3189666112885,83.9240773175843 159.00495247356594,87.0 160.7107482329011,87.0 163.8380404561758,86.31646190397441 168.38682914618403,80.84815141209401 170.6612234916538,74.6962899309583 172.082719957456,64.78493042080663 173.21991712972522,54.873537440085784 174.35711430199444,44.96211098553613 173.50421642232686,41.54436996486038 171.51412137039006,38.12662496371195 166.6810333877802,34.708875983254984 159.57355105876923,34.02532570902258 157.8677553012967,34.36710086534731 153.3189666112885,37.44307548669167 149.62307580094784,43.59501505549997 148.7701779222116,45.30388486827724 148.20157933514565,55.89885550620966 147.06438216380775,66.4937878975179 146.21148428414017,71.62035435438156 148.20157933514565,79.82284206128679 153.03466731868684,84.26584666315466 158.15205459389836,85.63292364939116 163.55374116357416,84.6076159698423 168.671128439717,80.50638166884892 171.2298220777884,74.01274897018448 172.082719957456,64.1013871524483 174.07281500846148,53.848219013772905 173.78851571585983,43.25324097275734 172.65131854265928,40.17727244226262 167.5339312683791,35.734201094834134 162.98514257743955,34.36710086534731 160.14214964676648,34.02532570902258 157.2991567151621,34.708875983254984 151.32887155935168,39.49372344184667 147.3486814564094,47.354527331888676 146.49578357674181,57.60771815688349 145.9271849906072,67.51910190470517 147.91728004347533,77.08868203917518 149.9073750935495,80.50638166884892 154.74046307615936,83.58230793219991 160.4264489384368,83.9240773175843 166.39673409517854,80.84815141209401 169.80832561291754,77.08868203917518 171.7984206629917,66.4937878975179 174.35711430199444,56.24062811629847 174.35711430199444,46.3292062797118 174.07281500846148,42.56969268922694 170.6612234916538,38.12662496371195 164.40663904324174,34.36710086534731 160.7107482329011,34.02532570902258 153.60326590575278,37.10130068752915 149.9073750935495,43.25324097275734 148.20157933514565,52.48112722230144 147.06438216380775,55.89885550620966 146.49578357674181,65.4684735306073 145.9271849906072,70.936812678352 147.91728004347533,78.11399234645069 151.04457226675004,82.21522999042645 153.88756519835442,84.26584666315466 159.00495247356594,85.63292364939116 162.41654399130493,84.94938523694873 166.96533268038183,81.87346040527336 169.52402631845325,77.08868203917518 171.2298220777884,66.4937878975179 172.65131854265928,55.89885550620966 174.07281500846148,46.6709800043609 172.36701925005764,40.17727244226262 167.5339312683791,35.392426097765565 162.70084328576922,33.68355051195249 159.28925176803023,34.02532570902258 154.74046307615936,36.75952584948391 150.47597368154675,41.88614424667321 148.48587862867862,52.13935417402536 147.3486814564094,62.7343001361005 146.78008286934346,72.30389587231912 146.78008286934346,76.06337137450464 149.05447721574455,80.84815141209401 154.4561637835577,84.94938523694873 159.57355105876923,85.63292364939116 162.98514257743955,84.94938523694873 168.95542773324996,80.84815141209401 170.6612234916538,75.03806035104208 171.7984206629917,64.78493042080663 172.65131854265928,55.21531016845256 174.35711430199444,48.03807450225577 173.78851571585983,42.9114668504335 171.2298220777884,37.78485024510883 164.69093833584338,34.36710086534731 157.2991567151621,35.050651060417295 151.89747014641762,39.83549796231091 148.48587862867862,47.696300936862826 147.63298074901104,58.29126293724403 146.21148428414017,69.22795778838918 145.9271849906072,74.35451947012916 148.7701779222116,80.16461188532412 152.18176943901926,83.58230793219991 157.58345600869507,84.6076159698423 162.98514257743955,83.58230793219991 167.2496319739148,80.50638166884892 170.0926249055192,74.35451947012916 171.7984206629917,63.75961545784958 173.21991712972522,53.848219013772905 174.07281500846148,44.62033706274815 170.94552278518677,38.46839964319952 168.38682914618403,35.734201094834134 165.54383621551096,34.36710086534731 160.7107482329011,33.0 157.2991567151621,34.36710086534731 151.04457226675004,40.86082128318958 148.48587862867862,50.77226158720441 147.3486814564094,58.29126293724403 145.9271849906072,64.1013871524483 145.3585864044726,72.98743723123334 147.3486814564094,78.45576236862689 149.05447721574455,80.84815141209401 151.04457226675004,82.89876904105768 155.02476237062365,84.6076159698423 161.56364611163735,83.58230793219991 163.55374116357416,82.89876904105768 168.38682914618403,79.13930229446851 170.0926249055192,76.06337137450464 170.94552278518677,66.4937878975179 172.65131854265928,57.265945706982166 174.07281500846148,47.354527331888676 173.78851571585983,41.88614424667321 171.7984206629917,38.46839964319952 167.5339312683791,35.050651060417295 161.84794540517032,33.68355051195249 156.44625883549452,35.392426097765565 152.18176943901926,38.81017428310588 149.62307580094784,43.59501505549997 148.20157933514565,52.82290023029782 147.63298074901104,62.050756390206516 146.21148428414017,65.4684735306073 146.49578357674181,67.17733060801402 145.64288569707423,74.6962899309583 147.3486814564094,79.82284206128679 148.20157933514565,81.5316907807719 150.76027297321707,83.58230793219991 158.15205459389836,85.63292364939116 165.54383621551096,83.24053850607015 168.10252985358238,80.50638166884892 170.37692419812083,71.27858353639022 172.65131854265928,61.36721248459071 174.35711430199444,50.08871505456045 174.6414135955274,43.59501505549997 173.78851571585983,41.20259564346634 170.0926249055192,36.75952584948391 162.13224469777197,34.02532570902258 159.00495247356594,34.02532570902258 156.44625883549452,35.050651060417295 152.18176943901926,38.46839964319952 150.47597368154675,40.86082128318958 147.91728004347533,51.11403479427099 146.49578357674181,61.70898445765488 146.49578357674181,61.70898445765488" stroke="#4DD2FF" stroke-linecap="round" stroke-linejoin="round" stroke-width="0.5"><title>2024-06-05 5.2km</title><desc>9223370319263910188</desc></polyline><polyline fill="none" points="31.755322420038283,102.22791848797351 30.90242473874241,103.59501505503431 28.34373169671744,114.87353743985295 26.922235562466085,121.70898445742205 25.785038655623794,132.987437231699 26.637936335988343,137.08868203964084 28.912330152466893,141.18992111785337 31.755322420038283,144.26584666478448 35.45121237076819,145.9746927979868 39.715700772590935,146.3164619046729 43.69588995072991,145.29115446377546 47.1074806721881,142.89876904152334 50.2347721690312,136.74691185820848 51.65626830328256,126.49378789681941 53.07776443846524,115.55708285886794 54.21496134530753,107.01275368826464 53.64636289142072,102.56969269015826 50.2347721690312,97.10130068776198 48.813276033848524,95.73420109576546 44.8330868575722,94.36710086558014 40.28429922834039,94.70887598302215 36.019810823723674,96.41775097092614 33.17681855522096,99.49372344301082 31.1867239670828,102.91146685183048 29.480928605422378,112.82290022959933 28.05943247117102,122.73430013749748 26.637936335988343,133.67097843135707 27.775133243761957,139.48107219813392 30.333826285786927,142.89876904152334 35.45121237076819,145.9746927979868 39.431401547044516,146.3164619046729 43.12729149591178,145.29115446377546 49.09757526218891,140.16461188485846 51.37196907680482,135.37983073317446 52.224866757169366,125.46847353130579 54.49926057178527,115.89885550783947 55.0678590266034,106.32920628110878 53.64636289142072,101.202595643932 49.95047294255346,96.75952584901825 46.53888221923262,94.70887598302215 42.84299227036536,94.02532570902258 36.58840927761048,95.73420109576546 30.90242473874241,100.86082128365524 28.34373169671744,110.08871505502611 26.922235562466085,120.00012419535778 26.069337882101536,123.75961545854807 25.785038655623794,133.67097843135707 27.490834017284214,139.48107219813392 30.049527058377862,142.89876904152334 34.88261391595006,145.9746927979868 38.86280309315771,147.0 43.12729149591178,146.3164619046729 46.53888221923262,143.9240773182828 49.381874488666654,140.5063816695474 51.65626830328256,134.6962899316568 52.79346521012485,124.44315880723298 54.49926057178527,116.92417321680114 55.35215825308114,107.01275368826464 53.93066211882979,101.202595643932 49.666173715144396,96.41775097092614 46.254582991823554,94.70887598302215 41.990094589069486,94.02532570902258 37.44130695797503,95.05065105995163 33.74541700910777,97.4430754869245 29.196629378944635,104.62033706344664 27.206534790806472,114.5317646714393 26.069337882101536,124.44315880723298 25.50073942914605,134.35451947152615 29.196629378944635,141.53169078170322 35.73551159631461,145.9746927979868 39.715700772590935,146.65823097270913 43.41159072332084,145.6329236512538 48.24467758089304,142.55699953599833 51.087669850327075,137.43045218242332 52.50916598364711,126.83555927313864 54.21496134530753,115.89885550783947 54.78355980012566,110.43048834102228 55.35215825308114,107.01275368826464 54.21496134530753,101.88614424597472 51.37196907680482,97.4430754869245 46.82318144571036,95.05065105995163 41.421496134251356,94.02532570902258 37.725606185384095,94.70887598302215 30.618125514127314,100.86082128365524 28.912330152466893,103.9367890979629 27.775133243761957,113.16467319824733 26.637936335988343,122.39252828457393 26.069337882101536,131.9621251344215 26.922235562466085,137.7722222842276 31.755322420038283,143.5823079328984 36.58840927761048,145.9746927979868 42.27439381554723,145.29115446377546 45.40168531052768,143.9240773182828 49.09757526218891,139.48107219813392 51.37196907680482,131.6203543562442 52.79346521012485,121.70898445742205 54.21496134530753,111.7975810887292 54.49926057178527,103.9367890979629 53.07776443846524,99.83549796277657 48.813276033848524,95.73420109576546 45.11738608498126,94.02532570902258 40.56859845388681,94.02532570902258 36.58840927761048,95.73420109576546 32.03962164744735,99.83549796277657 28.628030924126506,109.40516836405732 26.922235562466085,119.31657981243916 26.069337882101536,128.88618669169955 25.785038655623794,134.6962899316568 27.775133243761957,140.16461188485846 31.755322420038283,144.26584666478448 36.304110050201416,146.3164619046729 40.00000000093132,146.65823097270913 43.69588995072991,145.9746927979868 48.24467758089304,142.55699953599833 50.2347721690312,139.139302295167 51.9405675297603,131.27858353685588 52.79346521012485,121.70898445742205 53.64636289142072,111.7975810887292 54.21496134530753,104.27856310107745 52.224866757169366,98.81017428264022 47.960378353483975,95.39242609823123 43.12729149591178,94.02532570902258 39.431401547044516,94.36710086558014 34.598314688540995,96.75952584901825 29.196629378944635,103.59501505503431 26.922235562466085,114.5317646714393 25.50073942914605,124.78493042220362 24.64784174785018,131.9621251344215 25.216440200805664,135.37983073317446 28.05943247117102,140.84815141395666 31.1867239670828,143.9240773182828 35.166913143359125,145.9746927979868 41.137196907773614,146.65823097270913 47.676079127937555,142.89876904152334 51.65626830328256,137.08868203964084 53.07776443846524,127.1773306101095 54.49926057178527,116.58240068610758 54.78355980012566,107.01275368826464 54.78355980012566,103.25324097345583 52.224866757169366,98.1266249648761 48.24467758089304,94.70887598302215 42.84299227036536,93.0 39.14710231963545,93.68355051288381 32.32392087392509,98.1266249648761 30.049527058377862,101.202595643932 27.775133243761957,110.43048834102228 25.785038655623794,121.02544047194533 24.64784174785018,131.27858353685588 26.3536371095106,137.08868203964084 29.196629378944635,141.18992111785337 33.461117781698704,143.9240773182828 35.73551159631461,144.9493852367159 41.137196907773614,144.9493852367159 45.40168531052768,143.24053850769997 48.813276033848524,140.16461188485846 50.80337062384933,136.0633713756688 52.224866757169366,124.78493042220362 52.50916598364711,114.87353743985295 53.93066211882979,105.30388486944139 52.50916598364711,100.17727244226262 50.2347721690312,97.10130068776198 44.26448840461671,94.36710086558014 40.28429922834039,94.36710086558014 34.31401546206325,97.10130068776198 30.333826285786927,102.22791848797351 27.775133243761957,110.43048834102228 27.206534790806472,114.5317646714393 25.785038655623794,124.1013871524483 24.932140974327922,133.67097843135707 26.922235562466085,139.48107219813392 31.1867239670828,143.9240773182828 34.88261391595006,145.9746927979868 40.85289768129587,146.65823097270913 45.68598453886807,144.26584666478448 49.666173715144396,140.5063816695474 51.9405675297603,135.03806035174057 52.79346521012485,125.12670199666172 54.21496134530753,115.55708285886794 54.78355980012566,106.32920628110878 53.64636289142072,100.86082128365524 48.813276033848524,95.05065105995163 44.8330868575722,93.68355051288381 40.85289768129587,93.68355051288381 36.872708505019546,95.05065105995163 32.32392087392509,98.81017428264022 28.912330152466893,105.30388486944139 26.922235562466085,114.5317646714393 25.785038655623794,125.81024502567016 25.216440200805664,132.987437231699 25.785038655623794,136.4051416371949 30.333826285786927,142.89876904152334 34.31401546206325,145.6329236512538 37.15700773149729,146.3164619046729 39.431401547044516,146.3164619046729" stroke="#4DD2FF" stroke-linecap="round" stroke-linejoin="round" stroke-width="0.5"><title>2024-06-03 4.1km</title><desc>9223370319435416669</desc></polyline><polyline fill="none" points="150.01793825626373,98.00004279683344 149.74065876286477,102.66674152598716 147.79970231093466,109.00010620476678 146.6905843410641,120.3334606536664 145.30418687593192,131.3334382364992 145.85874586179852,135.3334196030628 147.52242281939834,139.33339538169093 152.23617419879884,144.0000267245341 156.39536659233272,145.3333485685289 158.33632304240018,145.3333485685289 164.71375137846917,142.66670426074415 167.76382580026984,139.6667264434509 170.25934123713523,133.66676138015464 171.64573870040476,123.00012576719746 173.03213616553694,112.00011616107076 172.47757717967033,101.66673529543914 171.92301819473505,99.00005030748434 171.09117971546948,97.33337092748843 163.88191290013492,93.0 160.55455898493528,93.0 155.56352811306715,95.33335439185612 150.84977673366666,98.33337867213413 149.18609977606684,100.66672871611081 146.6905843410641,111.00011319108307 146.1360253551975,121.33346036192961 145.02690738346428,130.33344202069566 145.30418687593192,136.00008262158372 149.46337926853448,142.33337354683317 153.89985115546733,146.0000092573464 159.16816152073443,147.0 164.4364718850702,145.3333485685289 167.20926681533456,143.00003493460827 170.53662072960287,137.66673948662356 173.03213616553694,127.66678373795003 174.69581312313676,118.33346018800512 175.527651601471,109.00010620476678 174.9730926156044,103.66674740705639 173.58669515233487,100.33339311252348 169.42750275786966,96.00002672616392 163.60463340766728,94.33334559993818 157.78176405653358,94.33334559993818 156.11808709893376,95.00001816614531 150.01793825626373,100.33339311252348 147.52242281939834,108.33343689749017 147.79970231093466,114.6667890381068 146.6905843410641,120.3334606536664 145.85874586179852,121.66679352056235 144.47234839759767,131.3334382364992 145.02690738346428,136.6667454834096 150.01793825626373,143.00003493460827 153.34529217053205,145.3333485685289 159.16816152073443,146.66666979086585 162.7727949284017,146.0000092573464 167.4865463078022,142.33337354683317 170.53662072960287,137.00007685716264 172.2002976872027,127.66678373795003 174.41853363066912,117.3334594303742 175.25037210900337,108.00010218680836 174.9730926156044,103.66674740705639 172.2002976872027,98.33337867213413 167.20926681533456,94.33334559993818 163.60463340766728,93.33333645854145 159.44544101506472,93.6666728775017 151.4043357204646,99.00005030748434 148.63154079113156,105.6667581202928 148.07698180526495,115.00012297276407 145.85874586179852,124.66679020226002 145.02690738346428,132.33343410119414 146.6905843410641,138.0000707441941 150.01793825626373,142.33337354683317 154.45441014133394,145.0000181661453 158.05904354993254,145.6666789315641 163.32735391519964,144.6666877239477 167.4865463078022,141.3333811738994 170.25934123713523,136.6667454834096 171.64573870040476,127.33345127874054 173.03213616553694,118.33346018800512 173.58669515233487,107.666767437011 173.03213616553694,102.33340615429915 171.64573870040476,98.66671450971626 167.20926681533456,95.33335439185612 161.94095645099878,93.6666728775017 156.67264608480036,95.00001816614531 150.84977673366666,99.66672178753652 148.07698180526495,108.66677157045342 147.24514332599938,117.66679305536672 146.1360253551975,128.3334485415835 145.85874586179852,135.3334196030628 147.52242281939834,139.33339538169093 151.95889470539987,143.66669616708532 157.22720507066697,145.6666789315641 162.49551543593407,145.0000181661453 165.82286935020238,143.3333655698225 168.5956642795354,140.33338845334947 170.25934123713523,136.6667454834096 171.36845920793712,126.6667862420436 173.03213616553694,117.3334594303742 173.8639746448025,108.00010218680836 172.7548566730693,101.0000642822124 169.42750275786966,96.66669890494086 166.10014884267002,94.66668190225028 160.55455898493528,94.00000925874338 155.2862486205995,96.00002672616392 151.1270562261343,99.66672178753652 148.07698180526495,108.33343689749017 146.96786383353174,117.66679305536672 145.85874586179852,126.6667862420436 146.1360253551975,128.3334485415835 145.30418687593192,132.00010218494572 146.6905843410641,137.66673948662356 151.1270562261343,143.3333655698225 155.2862486205995,145.3333485685289 160.27727949246764,146.0000092573464 163.60463340766728,145.0000181661453 167.76382580026984,141.66671200376004 170.25934123713523,136.6667454834096 171.36845920793712,127.33345127874054 172.7548566730693,117.66679305536672 172.47757717967033,113.33345290995203 173.30941565800458,109.3334407992661 172.7548566730693,103.00007685902528 169.42750275786966,98.00004279683344 166.10014884267002,95.66669057798572 160.55455898493528,94.66668190225028 156.67264608480036,95.66669057798572 150.57249724119902,100.66672871611081 148.9088202835992,104.00008262251504 147.79970231093466,113.33345290995203 146.6905843410641,123.00012576719746 145.58146636839956,132.33343410119414 147.24514332599938,138.0000707441941 149.46337926853448,141.66671200376004 152.23617419879884,144.33335724310018 157.5044845631346,146.0000092573464 161.38639746326953,145.6666789315641 167.4865463078022,141.3333811738994 169.9820617446676,136.3334140717052 171.09117971546948,127.33345127874054 172.2002976872027,118.00012664147653 173.03213616553694,107.666767437011 173.03213616553694,103.66674740705639 170.53662072960287,98.66671450971626 166.10014884267002,95.33335439185612 160.83183847833425,94.66668190225028 156.11808709893376,96.00002672616392 151.68161521293223,100.0000574698206 148.9088202835992,105.00008803792298 147.52242281939834,114.6667890381068 146.6905843410641,124.00012454413809 146.1360253551975,134.6667564297095 148.07698180526495,139.6667264434509 151.68161521293223,144.0000267245341 156.94992557819933,146.0000092573464 162.2182359425351,145.3333485685289 166.9319873219356,142.66670426074415 169.9820617446676,137.66673948662356 171.92301819473505,128.66678088484332 173.58669515233487,119.33346059522592 174.41853363066912,115.66679072706029 174.14125413727015,106.33342804713175 173.03213616553694,101.33339980826713 169.70478225219995,97.00003493553959 165.26831036433578,94.00000925874338 163.32735391519964,93.33333645854145 159.7227205056697,94.00000925874338 154.17713064793497,96.66669890494086 149.74065876286477,101.66673529543914 147.24514332599938,109.6667753555812 146.41330484766513,118.66679369541816 145.58146636839956,129.3334454561118 145.30418687593192,131.3334382364992 146.6905843410641,137.33340819110163 150.01793825626373,142.33337354683317 155.8408076055348,145.3333485685289 159.44544101506472,145.6666789315641 162.7727949284017,144.6666877239477 166.9319873219356,142.00004279450513 169.9820617446676,137.66673948662356 171.36845920793712,128.3334485415835 172.47757717967033,118.00012664147653 173.58669515233487,107.3334326473996 173.03213616553694,102.00007074489258 169.9820617446676,97.66670688148588 164.4364718850702,94.33334559993818 159.44544101506472,94.33334559993818 154.45441014133394,96.66669890494086 151.68161521293223,99.00005030748434 148.63154079113156,106.33342804713175 147.52242281939834,115.66679072706029 146.41330484766513,125.00012297229841 145.30418687593192,131.00010620290413 145.58146636839956,133.33342961850576 149.18609977606684,140.66671939892694 154.17713064793497,144.6666877239477 156.11808709893376,145.3333485685289 163.05007442086935,144.33335724310018 166.65470783039927,142.00004279450513 169.70478225219995,137.33340819110163 171.36845920793712,127.00011878064834 172.2002976872027,117.66679305536672 173.58669515233487,106.66676295385696 173.58669515233487,105.33342309901491" stroke="#4DD2FF" stroke-linecap="round" stroke-linejoin="round" stroke-width="0.5"><title>2024-06-02 4.3km</title><desc>9223370319521430187</desc></polyline><polyline fill="none" points="29.752786160446703,157.72504016710445 28.629803822375834,165.15008772257715 29.472040574997663,167.51259886543266 28.91054940689355,177.63762480416335 28.068312652409077,187.42511625564657 27.226075897924602,192.15010029869154 27.506821483373642,194.51258943136781 30.875768498517573,200.58755264431238 33.96396993007511,202.9500349003356 38.175153699703515,203.96252670534886 42.38633746933192,203.2875322077889 44.63230214547366,202.27504016668536 46.316775653511286,200.58755264431238 49.68572266958654,193.83759273262694 51.370196177624166,182.7001245096326 51.65094176214188,177.63762480416335 53.054669686593115,168.18760169530287 52.773924101144075,163.12507663993165 51.089450592175126,159.07505022897385 47.4397579934448,155.70002389559522 42.947828638367355,154.01250925543718 34.806206684559584,155.70002389559522 33.402478761039674,157.05003490066156 29.472040574997663,163.12507663993165 28.349058237858117,172.57511625718325 27.506821483373642,181.68762527615763 26.103093559853733,190.80010564439 27.226075897924602,195.18758597341366 28.91054940689355,198.90006414009258 33.12173317652196,202.6125375526026 35.08695226814598,203.2875322077889 39.578881623223424,203.96252670534886 44.07081097736955,202.27504016668536 45.755284485407174,201.26254777098075 48.56274033151567,197.5500726304017 49.96646825503558,192.82509739114903 50.527959424071014,183.71262338990346 52.49317851662636,173.92511940049008 53.33541527017951,168.52510305168107 54.73914319463074,167.51259886543266 53.33541527017951,162.1125705682207 49.96646825503558,157.72504016710445 46.316775653511286,154.68751522991806 43.79006539285183,154.01250925543718 41.26335513032973,154.35001226165332 36.49068019166589,156.0375267053023 32.279496422968805,158.40004527638666 29.752786160446703,162.78757465467788 28.349058237858117,173.92511940049008 27.787567066960037,184.3876224460546 26.66458472982049,192.48759886459447 28.91054940689355,198.90006414009258 30.314277329482138,200.92505022743717 34.244715513661504,203.625029475661 39.017390452325344,204.6375210462138 41.26335513032973,204.6375210462138 45.474538899958134,202.27504016668536 48.56274033151567,198.90006414009258 49.404977086000144,196.53757858416066 50.527959424071014,185.7376200875733 51.089450592175126,175.27512191678397 52.773924101144075,167.85010030050762 52.49317851662636,162.78757465467788 50.527959424071014,158.40004527638666 49.12423150148243,156.37502947659232 47.15901240799576,155.0250181579031 39.85962720680982,153.67500620917417 37.61366252973676,154.01250925543718 34.244715513661504,156.37502947659232 31.15651408303529,160.0875573621597 29.472040574997663,164.4750841858331 28.629803822375834,173.92511940049008 28.068312652409077,183.03762417519465 26.66458472982049,191.81260169413872 27.506821483373642,195.86258235690184 31.15651408303529,201.26254777098075 34.806206684559584,203.2875322077889 39.017390452325344,204.6375210462138 42.947828638367355,203.2875322077889 46.597521238960326,200.92505022743717 49.12423150148243,196.87507663900033 50.2472138395533,187.42511625564657 51.089450592175126,176.62512380233966 53.33541527017951,166.16259273397736 51.370196177624166,159.07505022897385 48.56274033151567,156.0375267053023 44.35155656281859,154.01250925543718 39.85962720680982,153.33750312402844 35.92918902169913,154.68751522991806 32.5602420065552,157.38753755390644 30.595022914931178,161.437566322973 28.349058237858117,169.8751080816146 27.506821483373642,181.0126255908981 26.945330314338207,190.80010564439 27.226075897924602,195.18758597341366 28.91054940689355,199.57505966094323 35.08695226814598,203.625029475661 39.298136037774384,204.97501815692522 45.19379331637174,201.93754274141975 48.28199474699795,198.56256632204168 50.2472138395533,189.78760924004018 51.089450592175126,180.67512568854727 52.49317851662636,169.53760688286275 52.49317851662636,162.78757465467788 50.80870500858873,158.7375477727037 47.15901240799576,155.36252104653977 40.70186396129429,153.67500620917417 38.73664486967027,153.67500620917417 33.402478761039674,157.38753755390644 30.033531745895743,162.78757465467788 28.349058237858117,173.58761867391877 26.945330314338207,184.05012293742038 26.66458472982049,194.17509110225365 28.349058237858117,197.88757056649774 31.998750837519765,202.6125375526026 38.45589928422123,204.6375210462138 40.70186396129429,204.30002389592119 46.316775653511286,200.25005502230488 48.00124916154891,198.56256632204168 49.404977086000144,194.17509110225365 50.527959424071014,184.72512191464193 52.21243293210864,173.58761867391877 53.33541527017951,165.15008772257715 51.370196177624166,159.07505022897385 48.28199474699795,155.70002389559522 44.35155656281859,153.67500620917417 40.14037279225886,153.0 36.20993460714817,154.01250925543718 31.43725966848433,158.7375477727037 29.472040574997663,162.78757465467788 27.787567066960037,173.25011790753342 26.945330314338207,184.05012293742038 26.103093559853733,191.81260169413872 28.068312652409077,197.5500726304017 30.875768498517573,200.92505022743717 35.648443438112736,203.96252670534886 40.70186396129429,205.3125152294524 46.03603006899357,202.27504016668536 48.84348591603339,198.90006414009258 51.089450592175126,188.43761348514818 52.773924101144075,177.63762480416335 53.89690644014627,167.85010030050762 53.33541527017951,162.1125705682207 50.527959424071014,156.37502947659232 44.9130477309227,153.33750312402844 41.26335513032973,153.0 35.648443438112736,154.35001226165332 31.43725966848433,158.40004527638666 29.472040574997663,161.77506846562028 28.349058237858117,171.56261348584667 27.226075897924602,181.35012545366772 26.103093559853733,191.13760436652228 27.226075897924602,197.21257465495728 29.752786160446703,200.92505022743717 34.525461099110544,204.30002389592119 38.45589928422123,204.97501815692522 42.105591885745525,203.96252670534886 46.878266824409366,200.58755264431238 49.12423150148243,197.21257465495728 51.089450592175126,187.42511625564657 51.9316873466596,177.30012450995855 53.33541527017951,167.17509739100933 52.773924101144075,162.78757465467788 51.370196177624166,159.07505022897385 47.4397579934448,154.68751522991806 43.50931980833411,153.0 39.017390452325344,153.33750312402844 36.49068019166589,154.35001226165332 31.43725966848433,159.7500550239347 29.752786160446703,164.13758235890418 28.629803822375834,173.92511940049008 27.226075897924602,182.7001245096326 26.66458472982049,190.80010564439 27.787567066960037,196.53757858416066 29.752786160446703,199.91255736141466 34.525461099110544,203.2875322077889 38.175153699703515,203.96252670534886 43.50931980833411,202.9500349003356 48.00124916154891,199.57505966094323 49.96646825503558,193.5000943245832 51.089450592175126,183.03762417519465 51.9316873466596,174.60012073768303 53.054669686593115,170.550110361306 51.9316873466596,160.42505966080353 49.96646825503558,157.38753755390644 46.878266824409366,154.68751522991806 43.22857422288507,153.67500620917417 39.298136037774384,153.67500620917417 32.84098759107292,157.05003490066156 30.595022914931178,159.7500550239347 28.629803822375834,169.8751080816146 27.787567066960037,180.33762574754655 25.541602389886975,189.45011036051437 25.541602389886975,193.5000943245832 27.787567066960037,198.90006414009258 30.314277329482138,201.6000452756416 37.052171361632645,203.96252670534886 41.26335513032973,203.96252670534886 44.9130477309227,201.93754274141975 48.00124916154891,199.23756192042492 49.404977086000144,195.18758597341366 51.370196177624166,185.40012073563412 52.773924101144075,175.9501229377929 52.773924101144075,165.48758943355642 52.773924101144075,163.46257858583704 50.2472138395533,157.72504016710445 47.4397579934448,155.0250181579031 42.947828638367355,153.33750312402844 38.73664486967027,154.01250925543718 34.806206684559584,155.70002389559522 30.033531745895743,160.42505966080353 27.506821483373642,168.52510305168107 26.945330314338207,178.98762559029274 25.541602389886975,189.45011036051437 25.541602389886975,193.16259587742388 26.66458472982049,197.21257465495728 30.314277329482138,201.93754274141975 37.33291694615036,205.98750925576314 42.947828638367355,207.0 44.9130477309227,205.65001226193272 48.84348591603339,199.57505966094323 51.370196177624166,188.7751124824863 53.33541527017951,178.98762559029274 53.89690644014627,168.86260436824523 53.89690644014627,163.12507663993165 52.49317851662636,159.07505022897385 49.68572266958654,156.0375267053023 43.79006539285183,153.67500620917417 37.8944081151858,154.01250925543718 34.244715513661504,155.36252104653977 30.033531745895743,159.07505022897385 27.506821483373642,170.21260924148373 26.103093559853733,179.66262574773282 25.26085680630058,189.11261144047603 25.26085680630058,191.81260169413872 27.226075897924602,197.21257465495728 30.033531745895743,200.58755264431238 34.244715513661504,203.625029475661 38.73664486967027,204.6375210462138 43.22857422288507,203.625029475661 46.878266824409366,200.92505022743717" stroke="#4DD2FF" stroke-linecap="round" stroke-linejoin="round" stroke-width="0.5"><title>2024-05-28 4.9km</title><desc>9223370319956977916</desc></polyline><polyline fill="none" points="169.73250793293118,207.0 168.23519901931286,206.28000620543025 169.73250793293118,195.8400773264002 171.52927862852812,183.60011581145227 173.6255111079663,171.7201068191789 174.52389645576477,164.1600773271639 173.9249728899449,161.6400633866433 172.42766397632658,159.1200473944191 170.33143149875104,156.96003205049783 164.94111941196024,154.44001224078238 159.5508073233068,153.36000312282704 152.3637245427817,156.6000293456018 150.26749206334352,158.76004494121298 147.87179780378938,167.0400907418225 146.3744888920337,177.84011715254746 145.77556532621384,187.9201077616308 145.47610354423523,192.6000922296662 146.6739506740123,197.64006757945754 149.96803028322756,202.32003733259626 154.45995702035725,205.2000151979737 159.5508073233068,206.28000620543025 166.43842832371593,203.7600265997462 169.43304615095258,200.88004739349708 171.52927862852812,193.32008921145461 172.72712576016784,183.24011621042155 173.6255111079663,173.1601103397552 174.22443467192352,163.080071604345 172.12820219434798,158.76004494121298 170.33143149875104,156.6000293456018 164.94111941196024,154.0800092436839 159.5508073233068,153.7200062039774 152.3637245427817,156.6000293456018 148.77018315158784,163.080071604345 147.57233601994812,172.80010952311568 146.9734124559909,174.9601137994323 146.07502710819244,184.68011436495 145.77556532621384,194.76008267118596 147.57233601994812,199.44005678407848 151.46533919498324,203.4000293458812 156.25672771595418,205.5600122420583 161.04811623692513,205.92000924423337 167.03735188953578,202.6800347128883 169.73250793293118,199.08005902729928 170.93035506270826,194.76008267118596 172.42766397632658,183.60011581145227 173.32604932412505,171.7201068191789 174.22443467192352,164.52007915033028 172.72712576016784,160.200054500252 169.43304615095258,156.6000293456018 164.94111941196024,154.44001224078238 157.7540366295725,154.0800092436839 155.65780415199697,154.8000151971355 151.76480097696185,157.6800373326987 148.47072136960924,163.80007546115667 147.57233601994812,174.9601137994323 146.3744888920337,185.40011319122277 145.47610354423523,194.4000843691174 146.9734124559909,199.08005902729928 150.56695384718478,203.04003205057234 157.7540366295725,205.92000924423337 162.54542515054345,205.5600122420583 166.43842832371593,203.7600265997462 168.83412258513272,200.52004980458878 170.63089328072965,196.5600735526532 171.52927862852812,185.04011379857548 172.42766397632658,175.32011436508037 173.9249728899449,164.1600773271639 172.12820219434798,159.48004980455153 168.5346608031541,155.880023811711 164.04273406416178,154.0800092436839 159.5508073233068,153.7200062039774 155.35834236815572,155.16001811088063 152.0642627608031,158.0400399104692 149.06964493356645,164.1600773271639 147.57233601994812,174.9601137994323 146.07502710819244,185.76011254172772 145.17664176039398,194.4000843691174 146.6739506740123,199.08005902729928 149.96803028322756,203.04003205057234 156.25672771595418,206.6400031237863 158.65242197737098,207.0 165.2405811958015,205.2000151979737 169.43304615095258,200.88004739349708 171.2298168465495,196.5600735526532 171.52927862852812,185.04011379857548 171.82874041236937,176.04011537204497 173.9249728899449,165.96008602483198 173.02658754214644,161.28006122843362 170.0319697149098,157.32003471208736 163.74327228218317,153.7200062039774 157.4545748475939,154.0800092436839 153.56157167255878,156.2400265992619 149.36910671554506,161.6400633866433 147.57233601994812,173.52011111634783 145.77556532621384,184.68011436495 145.47610354423523,195.8400773264002 147.27287423983216,200.16005217377096 150.86641562916338,204.12002381216735 155.35834236815572,206.28000620543025 160.1497308909893,207.0 166.13896654359996,204.48002098221332 168.83412258513272,201.24004494096152 170.63089328072965,197.2800696119666 171.52927862852812,192.96009074221365 172.12820219434798,181.44011757196859 173.9249728899449,170.64010373759083 174.22443467192352,165.96008602483198 173.02658754214644,160.92005902691744 170.0319697149098,157.32003471208736 165.8395047597587,154.44001224078238 161.34757802076638,153.7200062039774 158.95188375934958,153.7200062039774 152.96264810860157,157.32003471208736 150.26749206334352,160.92005902691744 147.57233601994812,167.76009367662482 146.07502710819244,176.760116210673 146.6739506740123,181.44011757196859 145.47610354423523,192.24009367567487 145.77556532621384,196.92007160396315 148.17125958763063,201.60004244698212 151.76480097696185,204.48002098221332 156.25672771595418,206.6400031237863 160.4491926729679,207.0 166.43842832371593,204.48002098221332 169.13358436711133,200.88004739349708 172.42766397632658,189.72010262613185 173.32604932412505,187.56010866258293 172.72712576016784,182.52011688007042 174.22443467192352,171.36010583443567 174.82335823774338,164.52007915033028 174.22443467192352,162.3600675801281 170.33143149875104,156.2400265992619 167.03735188953578,153.7200062039774 164.94111941196024,153.0 157.7540366295725,154.44001224078238 153.86103345640004,156.96003205049783 150.86641562916338,160.200054500252 148.17125958763063,170.64010373759083 146.3744888920337,181.44011757196859 145.17664176039398,192.96009074221365 145.77556532621384,197.64006757945754 148.17125958763063,201.60004244698212 151.76480097696185,204.84001811081544 161.34757802076638,206.28000620543025 167.3368136715144,203.04003205057234 169.43304615095258,199.44005678407848 170.63089328072965,195.48007915052585 171.82874041236937,184.32011488848366 172.72712576016784,173.1601103397552 173.6255111079663,170.64010373759083 173.6255111079663,170.64010373759083" stroke="#4DD2FF" stroke-linecap="round" stroke-linejoin="round" stroke-width="0.5"><title>2024-04-08 3.0km</title><desc>9223370324277236884</desc></polyline><polyline fill="none" points="27.99327688664198,258.16987970122136 27.99327688664198,259.8679818348028 29.123321414925158,262.24532316066325 31.10089933872223,263.94342292216606 33.36098839621991,264.9622823037207 37.88116651028395,265.98114133020863 42.68385575618595,265.3019020180218 48.89910066127777,260.8868426408153 50.02914519049227,259.1887411007192 51.441700850613415,254.4340515276417 50.876678586006165,247.64162440481596 52.571745378896594,238.1321998552885 53.41927877534181,228.28312031319365 53.136767643503845,223.52838035440072 50.02914519049227,217.4151318720542 46.639011605642736,215.37737953127362 40.42376669868827,215.0377540020272 33.92601065989584,217.4151318720542 30.818388207815588,220.81138261058368 29.123321414925158,224.88687827647664 27.42825462296605,235.0755925225094 26.580721226520836,246.28313708025962 26.8632323583588,257.15101794642396 29.123321414925158,261.2264628307894 34.773544057272375,264.9622823037207 36.751121981069446,265.6415216939058 42.68385575618595,264.9622823037207 46.07398934010416,262.58494319207966 49.746634057722986,257.15101794642396 52.85425651073456,246.6227589712944 55.11434556823224,237.11333109950647 55.11434556823224,227.60387222189456 54.831834436394274,223.18875577487051 52.571745378896594,218.43400750937872 50.5941674541682,216.3962558801286 45.79147820919752,214.01887718006037 40.70627783052623,213.0 38.16367764212191,213.6792514922563 33.64349952805787,216.3962558801286 28.840810283087194,222.50950649613515 27.145743490196764,226.5849997883197 25.16816556546837,237.79257697588764 25.16816556546837,248.32086782786064 25.73318783007562,255.45291423029266 26.29821009375155,257.49063857039437 29.405832546763122,261.56608298025094 35.056055188179016,265.3019020180218 39.0112110376358,266.660380482208 43.24887801986188,266.32076092623174 48.61658952943981,259.8679818348028 50.876678586006165,254.09443054674193 53.70178990717977,243.56616053706966 54.26681217178702,233.37747595249675 53.70178990717977,222.84913115529343 48.89910066127777,213.6792514922563 41.27130009513348,213.0 36.46861084923148,214.69812843413092 30.818388207815588,218.77363264304586 27.99327688664198,224.88687827647664 26.29821009375155,235.0755925225094 25.450676697306335,245.26427117432468 24.60314330086112,251.37746127904393 25.73318783007562,257.83025915618055 30.535877075977623,263.26418313616887 38.446188773959875,267.0 40.42376669868827,267.0 47.48654500115663,263.26418313616887 51.15918971784413,258.16987970122136 52.85425651073456,247.64162440481596 55.3968567000702,237.79257697588764 55.11434556823224,227.60387222189456 53.70178990717977,221.83025706070475 51.72421198245138,218.0943823370617 46.92152273841202,214.35850282688625 40.70627783052623,213.33962576650083 36.46861084923148,214.69812843413092 30.818388207815588,219.45288278977387 28.840810283087194,224.20762939355336 27.710765753872693,234.0567227001302 26.8632323583588,239.83031365601346 26.015698961913586,250.35859715146944 26.580721226520836,256.47177657904103 28.275788019411266,260.5472224110272 31.10089933872223,263.60380304954015 36.46861084923148,265.98114133020863 42.11883349251002,265.98114133020863 46.639011605642736,263.60380304954015 49.18161179404706,260.5472224110272 51.441700850613415,249.6793542020023 53.41927877534181,239.490690974053 54.26681217178702,229.6416160208173 53.41927877534181,220.47175771533512 52.00672311428934,218.77363264304586 46.92152273841202,215.37737953127362 42.96636688802391,214.01887718006037 38.446188773959875,214.69812843413092 34.2085217917338,216.7358812505845 31.10089933872223,221.15100746764801 28.840810283087194,231.0001110949088 27.42825462296605,241.52842646744102 25.73318783007562,251.37746127904393 25.73318783007562,254.09443054674193 27.145743490196764,258.849120674422 30.253365943208337,262.92456318368204 34.49103292450309,265.3019020180218 39.0112110376358,266.32076092623174 42.96636688802391,265.6415216939058 44.94394481275231,264.6226625496056 48.051567264832556,261.2264628307894 50.876678586006165,254.4340515276417 52.85425651073456,245.26427117432468 55.11434556823224,234.39634601329453 54.54932330362499,225.56612700037658 53.41927877534181,220.81138261058368 50.311656322330236,217.4151318720542 44.94394481275231,214.01887718006037 40.70627783052623,213.6792514922563 36.751121981069446,214.69812843413092 31.665921604260802,219.11325773620047 29.68834367953241,222.84913115529343 28.275788019411266,234.0567227001302 27.145743490196764,243.56616053706966 26.015698961913586,253.41518846689723 27.145743490196764,259.1887411007192 29.68834367953241,262.92456318368204 33.36098839621991,264.9622823037207 37.88116651028395,265.98114133020863 42.40134462341666,265.6415216939058 47.20403386838734,261.9057030901313 50.311656322330236,255.113293368835 52.28923424705863,245.9435151515063 53.98430103994906,234.73596928780898 54.54932330362499,225.56612700037658 53.136767643503845,221.15100746764801 48.33407839760184,216.05663047009148 44.37892254907638,214.35850282688625 37.59865537751466,215.37737953127362 33.64349952805787,217.75475712423213 30.535877075977623,221.490632283967 27.99327688664198,231.0001110949088 26.580721226520836,241.86804891144857 25.16816556546837,252.0567038343288 25.16816556546837,255.79253505310044 26.29821009375155,258.849120674422" stroke="#4DD2FF" stroke-linecap="round" stroke-linejoin="round" stroke-width="0.5"><title>2024-03-31 3.1km</title><desc>9223370324967953336</desc></polyline><polyline fill="none" points="166.84200881049037,264.496709730709 169.51931660622358,262.351030732505 171.00670982711017,259.84773667366244 172.19662440009415,250.90738408989273 173.68401762098074,239.8213107404299 174.5764535535127,226.94711082126014 174.5764535535127,224.08617017534561 173.68401762098074,221.2252268642187 172.19662440009415,218.72189928242005 170.11427389457822,216.93380690156482 164.7596583031118,214.43047582055442 156.7277349177748,215.14571348042227 154.34790576435626,216.57618830096908 151.07564068213105,221.2252268642187 149.5882474631071,231.95375053654425 148.10085424408317,242.32462112489156 146.31598237901926,252.3378422537353 146.01850373484194,255.1987565786112 147.2084183115512,260.20535023510456 148.69581153057516,262.351030732505 150.77816203795373,264.13909666775726 155.83529898524284,265.9271615622565 161.4873932208866,265.9271615622565 165.94957287982106,263.7814835635945 169.22183796204627,260.20535023510456 170.11427389457822,257.70205442700535 171.00670982711017,247.6888507900294 172.19662440009415,238.03323064674623 173.68401762098074,228.01996287540533 173.38653897680342,222.65569885331206 170.7092311810702,218.36428088904358 166.54453016631305,215.50333224749193 161.4873932208866,214.43047582055442 159.1075640693307,214.78809467121027 154.34790576435626,216.93380690156482 152.26555525884032,218.72189928242005 150.77816203795373,221.2252268642187 149.29076881706715,231.95375053654425 147.50589695386589,242.32462112489156 146.31598237901926,251.9802277747076 146.01850373484194,256.986826678738 148.10085424408317,261.27819067053497 151.6705979704857,264.496709730709 156.13277762942016,266.28477441566065 160.89243593253195,265.9271615622565 165.0571369472891,264.13909666775726 168.32940203137696,261.27819067053497 170.41175253875554,256.6292127412744 171.60166711360216,246.616005606018 172.7915816884488,234.81468385178596 173.98149626515806,225.15902322926559 173.0890603326261,220.50999062042683 171.60166711360216,218.36428088904358 167.436966098845,214.78809467121027 162.67730779759586,213.71523799351417 157.6201708484441,214.07285692705773 153.45546983368695,216.57618830096908 150.48068339377642,220.50999062042683 148.39833288639784,230.16566586028785 146.9109396673739,241.96700548008084 145.72102509066463,253.76829974888824 146.01850373484194,258.05966823827475 149.5882474631071,263.06625723070465 151.37311932630837,264.496709730709 156.43025627359748,266.28477441566065 161.4873932208866,266.28477441566065 165.65209423564374,264.13909666775726 168.92435931786895,260.9205772341229 170.7092311810702,256.6292127412744 172.49410304613411,245.90077527542599 173.68401762098074,235.17230032919906 174.87393219582736,226.5894933855161 173.38653897680342,219.7947542106267 171.00670982711017,216.57618830096908 165.94957287982106,213.35761901712976 163.86722237057984,213.0 159.40504271164536,213.35761901712976 155.53782034106553,214.78809467121027 151.96807661280036,218.00666245422326 149.88572610728443,221.94046294293366 148.10085424408317,231.95375053654425 146.61346102319658,243.03985228808597 145.12606780231,253.41068543680012 145.42354644834995,257.70205442700535 146.61346102319658,260.9205772341229 149.29076881706715,263.7814835635945 153.45546983368695,265.9271615622565 157.91764949262142,266.64238722855225 164.46217965893447,264.85432275081985 169.22183796204627,260.5629637551028 171.00670982711017,256.6292127412744 172.19662440009415,245.5431600480806 173.38653897680342,234.81468385178596 174.5764535535127,224.44378790236078 173.68401762098074,220.1523724363651 171.00670982711017,216.57618830096908 167.436966098845,214.07285692705773 161.78487186320126,213.0 157.6201708484441,213.35761901712976 154.05042712017894,215.50333224749193 150.1832047495991,220.50999062042683 148.10085424408317,231.5961336849723 146.9109396673739,241.25177406682633 145.42354644834995,251.9802277747076 145.42354644834995,255.91398474294692 147.2084183115512,260.20535023510456 150.1832047495991,263.42387041822076 155.2403416968882,265.9271615622565 160.00000000186265,266.28477441566065 164.1647010166198,264.85432275081985 167.73444474302232,262.351030732505 169.8167952504009,258.41728200926445 171.89914575777948,250.54976944578812 173.0890603326261,240.5365424877964 174.27897490933537,230.16566586028785 173.98149626515806,223.72855240781792 172.49410304613411,219.43713594204746 168.92435931786895,215.86095097311772 164.46217965893447,213.71523799351417 159.40504271164536,213.71523799351417 155.2403416968882,215.14571348042227 151.6705979704857,218.72189928242005 149.5882474631071,223.01331674586982 148.39833288639784,234.45706733339466 146.61346102319658,244.8279294676613 145.42354644834995,255.1987565786112 147.2084183115512,260.20535023510456 151.6705979704857,264.496709730709 157.02521356008947,266.28477441566065 164.1647010166198,264.85432275081985 168.62688067369163,261.27819067053497 170.7092311810702,255.1987565786112 171.89914575777948,245.18554477882572 173.68401762098074,234.45706733339466 174.87393219582736,228.01996287540533 173.68401762098074,221.94046294293366 170.41175253875554,216.93380690156482 166.84200881049037,214.43047582055442 162.08235050737858,213.35761901712976 157.32269220612943,213.71523799351417 153.15799118950963,216.21856965776533 150.48068339377642,219.7947542106267 147.8033755980432,228.73519737063907 146.61346102319658,239.10607882705517 145.42354644834995,249.11931045050733 145.42354644834995,256.6292127412744 147.2084183115512,260.9205772341229 150.48068339377642,264.13909666775726 157.32269220612943,267.0 160.89243593253195,267.0 165.35461558960378,264.85432275081985 168.92435931786895,261.63580406666733 171.00670982711017,257.34444057405926 171.89914575777948,246.25839046062902 173.38653897680342,239.10607882705517" stroke="#4DD2FF" stroke-linecap="round" stroke-linejoin="round" stroke-width="0.5"><title>2024-03-27 3.0km</title><desc>9223370325311596095</desc></polyline></svg>