<?xml version="1.0" encoding="utf-8" ?>
<svg baseProfile="full" height="300mm" version="1.1" viewBox="0,0,200,300" width="200mm" xmlns="http://www.w3.org/2000/svg" xmlns:ev="http://www.w3.org/2001/xml-events" xmlns:xlink="http://www.w3.org/1999/xlink"><defs /><rect fill="#222222" height="300" width="200" x="0" y="0" /><text fill="#FFFFFF" style="font-size:12px; font-family:Arial; font-weight:bold;" x="10" y="20">Over 3km Runs</text><text fill="#FFFFFF" style="font-size:4px; font-family:Arial" x="10" y="280">Runner</text><text fill="#FFFFFF" style="font-size:9px; font-family:Arial" x="10" y="290">王子阳</text><text fill="#FFFFFF" style="font-size:4px; font-family:Arial" x="65" y="280">SPECIAL TRACKS</text><rect fill="yellow" height="2.6" width="2.6" x="65" y="283" /><text fill="#FFFFFF" style="font-size:3px; font-family:Arial" x="70" y="285.5">Over 20.0 km</text><rect fill="red" height="2.6" width="2.6" x="65" y="287" /><text fill="#FFFFFF" style="font-size:3px; font-family:Arial" x="70" y="289.5">Over 40.0 km</text><text fill="#FFFFFF" style="font-size:4px; font-family:Arial" x="120" y="280">STATISTICS</text><text fill="#FFFFFF" style="font-size:3px; font-family:Arial" x="120" y="285">Number: 10</text><text fill="#FFFFFF" style="font-size:3px; font-family:Arial" x="120" y="290">Weekly: 2.0</text><text fill="#FFFFFF" style="font-size:3px; font-family:Arial" x="141" y="285">Total: 42.7 km</text><text fill="#FFFFFF" style="font-size:3px; font-family:Arial" x="141" y="290">Avg: 4.3 km</text><text fill="#FFFFFF" style="font-size:3px; font-family:Arial" x="167" y="285">Min: 3.0 km</text><text fill="#FFFFFF" style="font-size:3px; font-family:Arial" x="167" y="290">Max: 5.2 km</text><polyline fill="none" points="22.475471697747707,85.45536935818382 18.70566037669778,85.57376376481261 16.464150943327695,85.33697493944783 15.03773584868759,85.21858050872106 13.407547169364989,84.38981914927717 13.305660376790911,82.96908399707172 13.713207547087222,81.54834708338603 14.120754716452211,79.53563344082795 14.833962264005095,77.52291626413353 15.44528301851824,76.22056797205005 16.871698112692684,74.79982269275934 17.584905660245568,73.73426257795654 17.89056603703648,72.31351421645377 19.11320754652843,70.65597223583609 20.33584905648604,68.76163560827263 21.55849056597799,66.74889951071236 22.37358490563929,65.32814249023795 23.18867924483493,63.55219373770524 23.901886791922152,62.13143275456969 24.716981132049114,60.23708203691058 26.245283018797636,58.22433096857276 27.467924527823925,56.56676861108281 28.58867924520746,54.43561348586809 29.607547169551253,52.42285222897772 30.320754717104137,51.23887336777989 31.135849056765437,50.05489328317344 32.15471698110923,48.98931016144343 33.07169811287895,47.80532775318716 34.49811320705339,46.26614879351109 35.51698113186285,44.8453663806431 36.535849056206644,43.42458220617846 38.166037735529244,41.5302005673293 38.879245282616466,40.464609518880025 40.611320754513144,38.333424450363964 42.649056603666395,37.267830429947935 44.07547169784084,36.79423276928719 45.909433962311596,35.8470368613489 47.33584905648604,35.373438613605686 49.47547169774771,35.018239799072035 50.901886792853475,34.89984017016832 52.532075471710414,34.781440528691746 54.36603773618117,34.66304087534081 56.30188679229468,34.54464120918419 57.72830188693479,34.66304087534081 59.56226415093988,34.66304087534081 61.090566037688404,34.66304087534081 63.02641509426758,34.66304087534081 65.06415094342083,34.3078418407822 66.49056603759527,34.66304087534081 66.89811320789158,34.89984017016832 66.89811320789158,36.08383591182064 66.28679245337844,37.74142789468169 65.67547169839963,39.399017480085604 65.26792452810332,40.70140761532821 64.45283018890768,42.35899291979149 63.63773584924638,43.77977841475513 62.720754717011005,45.4373592666816 62.313207547180355,46.62134412128944 61.70188679313287,48.515717344824225 60.98867924557999,50.52848546393216 60.58113207574934,51.83086295169778 59.867924528662115,53.60682986723259 59.25660377368331,55.26439650519751 58.44150943402201,57.15875544259325 57.830188679508865,58.342728187912144 57.11698113242164,60.23708203691058 56.30188679229468,62.36822637380101 55.792452830355614,63.78898706380278 55.28301886841655,64.97295295994263 54.67169811343774,66.27531403279863 54.060377358458936,67.93286234885454 53.04150943364948,70.18238837237004 52.63396226428449,71.12955590325873 52.124528301879764,73.02388861728832 51.207547169644386,74.79982269275934 50.59622641513124,76.45735868078191 50.18867924530059,77.64131148986053 49.577358490321785,78.94365816761274 49.06792452838272,80.71958307048772 48.04905660357326,82.37711049709469 46.724528301972896,83.91624096117448 45.29811320733279,85.10018606542144 43.26037735817954,85.33697493944783 41.426415094174445,85.21858050872106 39.89811320742592,85.21858050872106 38.47169811325148,85.33697493944783 36.84150943392888,85.45536935818382 35.31320754671469,85.45536935818382 33.37735849013552,85.21858050872106 31.849056603386998,85.33697493944783 30.320754717104137,85.33697493944783 28.283018867485225,85.45536935818382 26.44905660348013,85.45536935818382 25.022641509305686,85.45536935818382 23.392452829983085,85.45536935818382 21.762264150660485,85.57376376481261 20.33584905648604,85.6921581592178 18.807547169271857,85.57376376481261 17.381132075097412,85.45536935818382 15.649056603200734,85.21858050872106 14.222641509026289,85.21858050872106 13.407547169364989,84.50821366615128 13.203773584682494,83.5610571912257 13.407547169364989,82.73229463363532 13.815094339195639,81.19316257955506 14.018867924343795,79.65402845898643 14.6301886793226,77.87810190499295 15.03773584868759,76.45735868078191 15.44528301851824,75.39180010650307 15.85283018834889,74.32624054152984 16.158490566071123,73.4974713063566 16.769811320118606,71.83993103809189 17.177358490414917,70.89276409416925 17.584905660245568,69.82720034662634 18.094339622650295,68.52484330965672 18.501886792015284,67.34088108269498 19.011320754420012,66.03852122079115 19.622641508933157,65.09134948230349 20.437735848594457,64.02578034065664 21.049056603573263,63.07860693894327 21.8641509427689,62.01303592626937 22.577358490321785,61.18425778695382 23.29056603787467,60.355479048448615 23.698113206773996,59.64509679528419 24.41132075432688,58.22433096857276 25.124528301879764,57.39555008942261 25.939622641075402,56.448371208040044 26.652830188162625,55.737986533436924 27.26415094314143,54.909203856484964 28.384905660059303,53.37003443739377 29.199999999254942,52.18605655443389 29.811320754233748,51.35727130889427 30.320754717104137,50.64688347838819 30.830188679043204,49.58130090718623 31.237735848873854,48.39731911022682 31.74716981127858,47.56853112461977 32.56226415093988,46.26614879351109 32.96981132077053,45.674156335531734 33.683018867857754,44.72696776688099 34.39622641494498,43.66137969074771 35.21132075460628,42.35899291979149 35.61886792443693,41.648599511478096 36.12830188637599,41.05660466803238 36.84150943392888,39.99101317988243 37.45283018844202,38.925420700223185 38.06415094342083,37.97822655364871 38.77735849050805,36.91263220296241 39.388679245021194,36.08383591182064 40.71320754708722,35.25503902125638 41.73207547189668,35.018239799072035 42.95471698092297,35.13663941633422 44.58490566024557,35.6102377618663 45.909433962311596,35.8470368613489 48.55849056597799,35.373438613605686 50.392452829983085,35.018239799072035 52.430188678670675,34.781440528691746 54.569811320863664,34.66304087534081 56.200000000186265,34.54464120918419 58.237735849339515,34.66304087534081 59.66415094351396,34.66304087534081 62.1094339620322,34.781440528691746 63.535849056672305,34.66304087534081 65.36981132114306,34.66304087534081 66.3886792450212,35.25503902125638 66.49056603759527,36.79423276928719 66.1849056603387,37.97822655364871 65.57358490582556,39.635815796558745 65.16603773646057,40.938205662649125 64.24905660422519,42.714189458289184 63.33207547198981,44.25337318854872 62.61886792443693,45.674156335531734 62.00754716992378,47.09493772080168 61.498113207519054,48.752513777813874 60.88679245254025,50.52848546393216 60.07169811334461,52.18605655443389 59.460377358365804,53.72522756329272 59.15471698110923,54.79080628196243 58.645283018704504,56.448371208040044 58.237735849339515,57.51394739456009 57.830188679508865,58.46112539537717 57.52452830178663,59.17150838195812 57.11698113242164,60.000287976814434 56.70943396259099,61.30265470093582 56.30188679229468,62.486623165314086 55.89433962292969,63.55219373770524 55.3849056600593,64.73615987843368 54.67169811343774,66.27531403279863 54.162264151033014,67.5776736260159 53.55094339605421,69.23522005882114 52.73584905685857,71.12955590325873 51.92075471673161,73.4974713063566 51.207547169644386,75.03661369497422 50.799999999813735,75.98377721442375 50.08679245272651,77.75970670382958 49.27169811306521,79.29884336853866 48.96603773534298,80.60118816245813 48.45660377340391,81.66674189374316 47.539622641634196,82.96908399707172 45.60377358505502,84.62660817033611 43.97358490573242,85.10018606542144 41.32452830206603,84.98179161024746 40.40754716983065,85.10018606542144 39.08301886776462,85.21858050872106 38.3698113206774,85.33697493944783 37.24905660375953,85.33697493944783 35.82264150958508,85.45536935818382 35.31320754671469,85.45536935818382 34.49811320705339,85.33697493944783 33.581132075283676,85.21858050872106 32.460377358365804,85.21858050872106 31.135849056765437,85.33697493944783 30.11698113149032,85.33697493944783 28.792452829889953,85.45536935818382 27.875471698120236,85.45536935818382 26.652830188162625,85.57376376481261 25.735849055927247,85.45536935818382 24.41132075432688,85.45536935818382 23.18867924483493,85.45536935818382 22.27169811259955,85.57376376481261 21.15094339568168,85.6921581592178 20.2339622634463,85.6921581592178 18.70566037669778,85.6921581592178 17.992452830076218,85.6921581592178 16.66792452801019,85.6921581592178 15.85283018834889,85.6921581592178 14.324528301600367,85.6921581592178 13.713207547087222,85.33697493944783 13.101886792108417,84.38981914927717 13.0,84.0346355268266 13.305660376790911,83.08747866051272 13.509433961939067,82.1403210114222 13.815094339195639,80.83797796641011 13.916981131769717,79.8908184581669 14.018867924343795,79.06205324665643 14.222641509026289,78.35168258857448 14.732075470965356,77.16773051291239 15.03773584868759,76.45735868078191 15.343396225944161,75.74698640790302 15.85283018834889,74.32624054152984 16.056603773497045,73.85265819507185 17.177358490414917,72.55030573240947 17.381132075097412,72.07672265195288 17.48301886767149,70.65597223583609 17.89056603703648,69.1168239642866 18.29811320733279,68.05125856574159 18.70566037669778,66.86729584971908 19.418867924250662,65.32814249023795 20.030188678763807,64.38097016466781 20.74339622631669,63.55219373770524 21.354716980364174,62.486623165314086 21.8641509427689,61.89463908597827 22.679245282895863,60.947463922784664 23.494339622091502,60.000287976814434 24.00377358449623,59.17150838195812 24.513207546900958,58.10593373677693 25.124528301879764,57.39555008942261 26.04150943364948,56.448371208040044 26.85660377331078,55.38279403070919 27.36603773571551,54.79080628196243 28.07924528280273,53.72522756329272 28.996226414572448,52.541250047972426 29.607547169551253,51.712465058779344 30.21886792453006,50.88367947062943 30.62641509436071,50.05489328317344 30.93207547115162,49.462902782368474 31.135849056765437,48.634115567430854 31.849056603386998,47.33173444727436 32.56226415093988,46.26614879351109 33.07169811287895,45.555757807334885 33.88679245254025,44.49017050198745 34.70188679173589,43.187784672831185 35.21132075460628,42.24059404875152 35.82264150958508,41.411801610840484 36.535849056206644,40.464609518880025 37.350943395867944,39.043819913757034 37.86037735827267,38.333424450363964 38.47169811325148,37.38622981426306 39.08301886776462,36.55743386573158 39.796226414851844,35.728637317661196 41.22264150949195,35.13663941633422 42.34339622594416,35.13663941633422 43.15849056607112,35.25503902125638 44.07547169784084,35.373438613605686 45.19622641475871,35.49183819373138 46.01132075442001,35.49183819373138 47.03018867922947,35.373438613605686 48.04905660357326,35.13663941633422 49.06792452838272,35.018239799072035 50.49433962255716,34.89984017016832 52.32830188702792,34.781440528691746 54.569811320863664,34.66304087534081 56.505660376977175,34.54464120918419 58.849056603387,34.66304087534081 60.58113207574934,34.66304087534081 62.313207547180355,34.781440528691746 63.33207547198981,34.66304087534081 66.1849056603387,34.781440528691746 66.49056603759527,35.373438613605686 66.49056603759527,36.08383591182064 66.28679245337844,37.38622981426306 65.77735849050805,38.925420700223185 65.36981132114306,40.34621045261156 65.06415094342083,41.5302005673293 64.35094339586794,42.595790624269284 63.7396226413548,43.66137969074771 63.23018867941573,44.49017050198745 62.720754717011005,45.4373592666816 62.313207547180355,46.502945690997876 62.00754716992378,47.33173444727436 61.60000000009313,48.870911975740455 61.19245283026248,50.05489328317344 60.07169811334461,52.541250047972426 59.358490565791726,54.43561348586809 58.849056603387,55.97478147374932 58.237735849339515,57.51394739456009 57.62641509436071,58.93471410230268 57.11698113242164,60.11868501303252 56.81132075469941,61.18425778695382 56.40377358533442,62.13143275456969 55.99622641503811,63.43379705643747 55.69056603778154,64.14417696080636 55.3849056600593,64.73615987843368 55.07924528326839,65.44653897569515 54.467924528289586,66.74889951071236 54.060377358458936,67.81446612032596 53.754716981202364,68.76163560827263 53.44905660394579,69.47201221028809 52.73584905685857,70.89276409416925 52.532075471710414,71.7215352129424 52.32830188702792,72.66870147176087 51.92075471673161,73.4974713063566 51.51320754690096,74.32624054152984 50.799999999813735,75.86538181721698 50.59622641513124,76.57575401652139 50.18867924530059,77.40452102595009 49.67924528289586,78.58847285690717 49.37358490563929,79.41723841079511 48.96603773534298,80.71958307048772 48.45660377340391,81.78513669141103 48.04905660357326,82.25871576019563 46.826415094546974,83.67945179343224 45.29811320733279,84.86339714261703 43.97358490573242,85.21858050872106 42.75094339624047,85.21858050872106 40.91698113176972,85.21858050872106 39.08301886776462,85.33697493944783 37.24905660375953,85.33697493944783 35.1094339620322,85.33697493944783 33.27547169756144,85.21858050872106 31.849056603386998,85.33697493944783 30.320754717104137,85.33697493944783 28.283018867485225,85.45536935818382 27.26415094314143,85.45536935818382 25.022641509305686,85.45536935818382 23.698113206773996,85.45536935818382 21.354716980364174,85.57376376481261 20.437735848594457,85.6921581592178 19.418867924250662,85.6921581592178 18.29811320733279,85.57376376481261 17.584905660245568,85.45536935818382 16.26037735817954,85.33697493944783 15.44528301851824,85.33697493944783 14.6301886793226,85.33697493944783 13.815094339195639,84.98179161024746 13.203773584682494,84.38981914927717 13.101886792108417,83.79784638318233 13.305660376790911,83.08747866051272 13.509433961939067,82.1403210114222 13.815094339195639,80.95637284975965 14.018867924343795,80.00921343953814 14.426415093708783,78.82526307599619 14.6301886793226,78.35168258857448 15.139622641261667,76.69414934015367 15.241509433370084,76.45735868078191" stroke="#4DD2FF" stroke-linecap="round" stroke-linejoin="round" stroke-width="0.5"><title>2025-05-04 5.0km</title><desc>9223370290536885807</desc></polyline><polyline fill="none" points="75.59040590422228,76.9034149631625 76.58671586727723,74.47215918137226 76.487084871158,73.6617394152563 77.98154981574044,70.76737832417712 78.47970479680225,70.0727305499604 78.57933579338714,69.26230760267936 79.87453874573112,65.90483486384619 81.86715867137536,62.77890292694792 83.95940959407017,59.88451372960117 86.1512915128842,56.41123682574835 87.14760147640482,54.790370586677454 89.33948339475319,52.474843321484514 91.13284132862464,49.81198105192743 91.92988929897547,48.07532833667938 92.4280442809686,47.2648894819431 92.82656826591119,46.454450040939264 94.91881918814033,43.791573466034606 97.11070110742003,40.665579847525805 99.20295202964917,37.423799477750435 100.29889298928902,36.03446216240991 100.99630996305496,35.57134934118949 101.89298892999068,35.33979285904206 105.38007380114868,35.68712756468449 108.7675276757218,35.80290577618871 112.65313653135672,36.03446216240991 116.2398523981683,35.68712756468449 119.12915129121393,36.03446216240991 122.21771217696369,35.224014600156806 125.30627306271344,34.87667975097429 126.10332103306428,34.87667975097429 126.60147601505741,35.45557110628579 126.80073800729588,36.150240337941796 125.40590405883268,39.16046869906131 124.11070110695437,42.51802156295162 123.2140221404843,45.875564367626794 122.01845018472522,49.23309711238835 120.12546125473455,52.59061979816761 119.7269372693263,53.2852784084389 119.7269372693263,53.86416025436483 119.32841328438371,54.32726551638916 117.83394833980128,57.91632480581757 117.13653136510402,60.00028944085352 116.6383763840422,60.5791678186506 115.44280442781746,63.82088120758999 114.54612546088174,66.48371019156184 112.95202952064574,69.72540650167502 111.4575645760633,73.43019080336671 110.06273062713444,76.78764099802356 108.6678966791369,80.37662836036179 107.67158671608195,82.92364467692096 104.78228782303631,85.12333592888899 101.19557195575908,85.00756281265058 97.50922509189695,85.12333592888899 93.72324723284692,85.2391090329038 90.23616236168891,85.35488212504424 86.8487084871158,85.35488212504424 83.56088560912758,85.35488212504424 80.37269372725859,85.35488212504424 77.1845018453896,85.35488212504424 74.79335793340579,85.2391090329038 74.09594095917419,85.00756281265058 73.19926199270412,83.73405774566345 73.29889298928902,82.92364467692096 74.79335793340579,79.45043917326257 75.98892988916487,75.86144884559326 77.1845018453896,72.27244702458847 78.57933579338714,68.68343371024821 79.97416974185035,65.44173438590951 81.96678966796026,62.31580115738325 84.35793357947841,59.30563499312848 86.05166051723063,56.41123682574835 87.14760147640482,55.369251655065455 89.14022140251473,52.474843321484514 90.93357933638617,50.043534543714486 92.4280442809686,46.8017813017359 92.82656826591119,46.107118672691286 95.21771217742935,43.21268641680945 97.30996309965849,40.08669118373655 99.3025830257684,36.96068723069038 99.90036900388077,36.26601850136649 100.59778597811237,35.68712756468449 103.7859778595157,35.224014600156806 105.67896678997204,35.10823632881511 109.16605166019872,34.64512312505394 112.45387453911826,34.64512312505394 115.64206642098725,34.760901443776675 118.83025830239058,34.52934479434043 122.41697417013347,34.760901443776675 125.90405904036015,34.52934479434043 126.60147601505741,34.99245804606471 127.0,35.80290577618871 125.60516605200246,39.39202439202927 124.80811808118597,41.82335627870634 123.11439114389941,45.180901164305396 122.01845018472522,48.1911052679643 121.42066420661286,50.50664138444699 120.52398523967713,51.89596075727604 120.32472324743867,52.59061979816761 120.02583025814965,53.053725586039945 119.92619926156476,53.86416025436483 118.730627306737,56.29546074336395 118.730627306737,56.99011705711018 117.43542435439304,59.537186523666605 117.23616236168891,60.46339216735214 115.64206642098725,63.82088120758999 114.24723247252405,67.06258522043936 113.05166051723063,70.53582911426201 111.65682656876743,73.89328797964845 110.16236162371933,77.01918891677633 108.86715867137536,80.37662836036179 107.67158671608195,83.50251121458132 104.48339483421296,85.35488212504424 100.7970479708165,85.2391090329038 97.21033210353926,85.12333592888899 93.52398523967713,85.2391090329038 89.93726937286556,85.2391090329038 86.25092250946909,85.2391090329038 82.66420664265752,85.2391090329038 79.07749077491462,85.2391090329038 75.49077490810305,85.35488212504424 74.39483394892886,85.47065520554315 74.09594095917419,84.19715066463687 73.59778597811237,83.61828448600136 73.69741697469726,82.69209797820076 75.09225092222914,79.33466547122225 75.39114391151816,77.48228461027611 76.58671586727723,74.00906224385835 78.18081180844456,70.53582911426201 79.47601476032287,66.83103524462786 80.17343173408881,64.97863371740095 82.3653136533685,61.85269919713028 84.55719557218254,58.84253178862855 85.55350553523749,57.33744505268987 87.54612546181306,55.25347546546254 89.6383763840422,51.89596075727604 91.2324723242782,49.580427511711605 91.43173431791365,48.76998974545859 92.92619926203042,46.107118672691286 95.01845018472522,43.44424127251841 97.01107011083513,40.665579847525805 98.70479704812169,37.423799477750435 99.90036900388077,35.91868397523649 101.79335793387145,35.33979285904206 105.38007380114868,35.10823632881511 108.7675276757218,35.10823632881511 112.25461254594848,35.224014600156806 115.84132841369137,35.10823632881511 118.43173431791365,35.224014600156806 119.82656826591119,35.224014600156806 120.52398523967713,35.10823632881511 124.01107011083513,34.64512312505394 125.90405904036015,34.52934479434043 126.60147601505741,34.99245804606471 127.0,35.80290577618871 125.60516605200246,39.276246551424265 124.70848708506674,41.93913385621272 124.50922509189695,42.86535404389724 123.91143911425024,43.3284638505429 123.01476014778018,44.94934666750487 121.91881918814033,48.538435990340076 121.61992619931698,49.34887392423116 121.61992619931698,50.27508798777126 121.02214022167027,50.969748033443466 119.62730627320707,54.21148921898566 118.13284132815897,57.56899698963389 117.33579335780814,59.30563499312848 116.83763837674633,60.11606514046434 115.64206642098725,63.58933056262322 114.24723247252405,66.94681023829617 113.05166051723063,70.30427985615097 111.55719557218254,73.54596511542331 110.16236162371933,76.9034149631625 108.7675276757218,80.1450811350951 107.87084870878607,82.57632461097091 107.2730627306737,83.27096463507041 104.98154981574044,84.89178968442138 101.39483394892886,85.12333592888899 97.70848708506674,85.12333592888899 94.02214022167027,85.2391090329038 90.43542435439304,85.2391090329038 87.64575645746663,85.2391090329038 84.15867158677429,85.12333592888899 80.67158671654761,85.12333592888899 77.8819188196212,85.2391090329038 77.08487084927037,84.77601654431783 74.99261992610991,85.35488212504424 73.39852398540825,85.00756281265058 73.0,84.31292386481073 74.4944649450481,80.7239491075743 75.29151291586459,78.87157054326963 75.09225092222914,78.29270161362365 76.487084871158,74.70370757835917 77.98154981574044,71.34625114058144 78.77859778609127,67.6414599501295 79.27675276715308,66.0206099532079 80.07380073843524,64.97863371740095 80.67158671654761,64.39975761214737 80.67158671654761,64.39975761214737" stroke="#4DD2FF" stroke-linecap="round" stroke-linejoin="round" stroke-width="0.5"><title>2025-05-03 5.0km</title><desc>9223370290623713404</desc></polyline><polyline fill="none" points="159.49063049908727,73.34095335094025 158.00170426722616,73.1588312991662 155.1805808795616,73.24989232979715 152.43782202992588,73.24989232979715 149.5383341042325,73.24989232979715 146.48211710061878,73.34095335094025 143.89608732890338,73.24989232979715 141.07496394077316,73.0677702591056 140.36968309432268,73.0677702591056 139.8994958633557,72.61246491823113 139.27257955493405,71.42866993136704 140.36968309432268,68.60576777759707 141.31005755718797,65.7828565845266 142.4071610965766,63.14206051023211 143.34753555897623,60.59231886296766 144.20954548288137,58.13363243261119 144.9148263297975,56.403441574424505 145.62010717671365,55.31068770366255 147.26576248649508,53.1251758983708 148.83305325731635,50.93965867423685 149.93015679670498,49.48264418117469 151.57581210602075,47.66137267800514 153.14310287684202,45.20265017962083 154.3185709551908,42.74392082297709 156.12095534196123,40.28518460789928 157.6882461127825,37.826441534329206 159.41226596059278,35.458756536769215 160.3526404229924,34.09278152970364 161.91993119381368,33.5463909341488 164.6626900434494,33.72852117015282 167.4054488921538,33.63745605701115 170.22657227981836,33.63745605701115 173.1260602059774,33.63745605701115 175.94718359364197,33.5463909341488 178.61157790385187,33.2731955096242 180.3355977521278,33.09106517909095 180.88414952158928,33.2731955096242 181.19760767603293,33.819586274330504 181.19760767603293,34.45704173849663 180.2572332136333,36.82472942699678 179.160129673779,39.465604345547035 178.14139067288488,41.83327858016128 177.0442871330306,44.56520248652669 176.4957353635691,46.113288941793144 175.7120899776928,47.11499049322447 175.47699636220932,48.48094532015966 174.30152828386053,50.93965867423685 172.96933112898842,53.85368043545168 172.10732120461762,56.31237880361732 171.16694674268365,58.68000778759597 170.22657227981836,61.32081722910516 169.20783327892423,63.4152466779924 168.97273966297507,64.59905242623063 168.3458233550191,65.7828565845266 168.18909427756444,66.60241237853188 167.3270843536593,67.87727543211076 167.3270843536593,68.60576777759707 167.0919907381758,69.33425952144898 166.38670989125967,70.42699600820197 165.99488719832152,71.24654748430476 163.80068011954427,72.70352600532351 162.86030565667897,73.24989232979715 161.91993119381368,73.43201436259551 159.02044326765463,73.34095335094025 156.27768441895023,73.24989232979715 154.94548726361245,73.43201436259551 152.35945749189705,73.24989232979715 149.85179225821048,73.34095335094025 147.34412702498958,73.61413635796634 144.36627456033602,73.61413635796634 142.25043201912194,73.97838023561053 139.9778604018502,73.70519734133268 138.9591214004904,73.0677702591056 138.56729870801792,72.06609819881851 139.66440224740654,69.69850516761653 140.68314124830067,67.33090577763505 141.70188024966046,64.78117624635343 142.6422547120601,62.23143934021937 143.73935825144872,59.590632626554 144.679732714314,57.31406876514666 146.1686589466408,54.7643102601869 147.89267879445106,52.4877339345403 149.30324048828334,50.393278521543834 151.10562487505376,48.38988173089456 152.59455110738054,45.840097411884926 153.22146741580218,44.9294583676965 154.1618418782018,42.926049158675596 155.80749718751758,40.74050664663082 157.29642341984436,38.46389410091797 158.9420787296258,36.096210815478116 160.1959113460034,34.274911653017625 160.50936950044706,34.00171645404771 161.6064730398357,33.63745605701115 162.70357657922432,33.63745605701115 165.21124181291088,33.5463909341488 168.11072973860428,33.5463909341488 170.696759511251,33.5463909341488 173.59624743741006,33.5463909341488 176.18227720912546,33.45532580220606 178.92503605829552,33.1821303491015 180.4923268291168,33.0 180.96251406054944,33.364260660426226 181.19760767603293,33.819586274330504 181.19760767603293,34.365976700617466 180.2572332136333,36.82472942699678 179.23849421273917,39.465604345547035 179.00340059679002,40.10305572650395 178.68994244234636,40.64944225776708 177.59283890295774,43.290305716975126 176.5740999020636,45.840097411884926 175.39863182371482,48.48094532015966 175.08517366927117,49.48264418117469 174.06643466837704,51.4860384882777 172.96933112898842,54.21793247835012 171.95059212762862,56.67662983038463 170.85348858824,59.317445273685735 169.83474958734587,61.958252805576194 169.20783327892423,63.4152466779924 169.12946874042973,64.0526807399583 168.03236520057544,66.78453578450717 167.5621779691428,67.42196741013322 167.4838134306483,68.15046013216488 167.1703552766703,68.87895225227112 166.70016804523766,69.42532094696071 166.15161627531052,70.88230247807223 164.5059609664604,72.24822047608905 163.33049288811162,72.79458708281163 160.66609857743606,72.9767092098482 157.6882461127825,72.88564815087011 155.1022163410671,73.0677702591056 152.6729156463407,73.24989232979715 149.69506318122149,73.34095335094025 146.79557525506243,73.43201436259551 144.05281640589237,73.43201436259551 141.23169301869348,73.43201436259551 139.9778604018502,72.9767092098482 139.27257955493405,72.15715934225591 139.1158504774794,71.70185353065608 139.19421501643956,71.06442499993136 139.50767317041755,70.6091186243575 139.82113132439554,70.33593468612526 140.52641217131168,67.69515225151554 141.54515117267147,64.78117624635343 142.4071610965766,62.50462579005398 143.50426463596523,59.7727574815508 144.52300363732502,57.04088070685975 146.0902944081463,54.7643102601869 147.57922064047307,52.578797100286465 149.14651141129434,50.393278521543834 150.00852133519948,49.573707657458726 151.65417664451525,47.29711792583112 152.20272841490805,46.84179927385412 152.43782202992588,46.20435276615899 153.14310287684202,45.02052231435664 154.2402064166963,42.561792449618224 155.96422626497224,40.37624903436517 157.609881574288,38.0996355478419 159.02044326765463,36.00514594686683 160.3526404229924,34.18384659610456 161.76320211729035,33.72852117015282 164.42759642750025,33.63745605701115 167.01362619921565,33.63745605701115 169.52129143290222,33.45532580220606 172.10732120461762,33.5463909341488 174.77171551575884,33.45532580220606 177.35774528747424,33.2731955096242 179.94377505918965,33.0 180.5706913676113,33.0 181.04087859904394,33.1821303491015 181.27597221452743,33.5463909341488 181.43270129198208,34.274911653017625 180.3355977521278,36.91579421114875 179.316858750768,39.19241075520404 178.45484882686287,41.01369975687703 177.51447436399758,43.563498037226964 176.4957353635691,45.93116126436507 175.63372543966398,47.66137267800514 175.08517366927117,49.48264418117469 173.98807012988254,51.75922826828901 172.89096659049392,54.21793247835012 171.79386305063963,57.13194340222981 170.85348858824,59.13532032468356 170.1482077408582,61.59400396118872 169.05110420193523,64.0526807399583 168.03236520057544,66.60241237853188 167.7189070461318,67.148782484408 167.1703552766703,68.97001372510567 166.54343896824867,70.06275066302624 166.46507442975417,70.70017991837813 166.15161627531052,71.24654748430476 165.21124181291088,72.15715934225591 164.8977836589329,72.70352600532351 164.6626900434494,75.2532326222281 164.5059609664604,76.25490106124198 164.6626900434494,76.80126518482575 164.34923188900575,77.98505295725772 164.34923188900575,80.80792507622391 164.34923188900575,83.44866823032498 164.27086735051125,85.36092557641678 164.42759642750025,87.0" stroke="#4DD2FF" stroke-linecap="round" stroke-linejoin="round" stroke-width="0.5"><title>2025-05-02 5.0km</title><desc>9223370290712225619</desc></polyline><polyline fill="none" points="43.269441870972514,94.36710086534731 41.563646111637354,93.68355051195249 39.573551058769226,93.68355051195249 35.02476237062365,95.73420109483413 31.328871559351683,98.81017428310588 28.770177922211587,105.30388486827724 27.63298074901104,115.55708285840228 25.927184990607202,126.15201648091897 25.35858640447259,131.27858353639022 25.642885697074234,133.67097843042575 29.3387765083462,140.848151412094 30.76027297321707,142.89876904105768 34.74046307615936,144.94938523694873 37.01485742162913,145.63292364939116 42.13224469777197,145.2911544633098 44.690938335843384,144.26584666315466 48.38682914618403,141.18992111622356 50.6612234916538,136.06337137450464 52.08271995745599,125.8102450252045 53.50421642232686,116.58240068587475 54.072815008461475,106.6709800043609 53.50421642232686,102.22791848797351 51.22982207778841,98.46839964319952 48.10252985358238,95.73420109483413 43.838040456175804,94.36710086534731 37.01485742162913,95.39242609776556 32.46606873162091,99.49372344184667 29.90737509354949,104.27856310061179 28.48587862867862,111.45580796082504 28.48587862867862,121.70898445765488 27.63298074901104,131.27858353639022 27.63298074901104,136.40514163533226 28.770177922211587,139.48107219696976 32.18176943901926,143.24053850607015 35.309061664156616,144.94938523694873 39.004952473565936,145.63292364939116 44.122339750640094,143.5823079321999 48.38682914618403,140.16461188532412 51.22982207778841,130.25327084120363 53.50421642232686,119.316579811275 54.35711430199444,115.89885550620966 54.35711430199444,106.6709800043609 52.93561783619225,100.86082128318958 48.10252985358238,95.0506510604173 44.40663904324174,93.34177527576685 39.573551058769226,93.68355051195249 34.74046307615936,96.0759760523215 30.475973681546748,100.86082128318958 27.06438216380775,109.40516836266033 26.495783576741815,115.89885550620966 26.495783576741815,126.4937878975179 26.21148428414017,131.27858353639022 27.91728004347533,137.77222228446044 30.191674387082458,141.5316907807719 35.877660249359906,144.26584666315466 39.573551058769226,144.26584666315466 46.68103338778019,141.87346040527336 48.95542773324996,139.1393022944685 50.37692419812083,135.37983073247597 51.7984206629917,125.4684735306073 53.50421642232686,117.26594570698217 53.78851571585983,107.01275368803181 53.50421642232686,103.25324097275734 52.08271995745599,99.49372344184667 49.23972702585161,97.10130068752915 44.40663904324174,94.70887598325498 38.72065318096429,94.70887598325498 34.17186449095607,97.44307548669167 31.61317085288465,100.17727244226262 29.3387765083462,109.06339495792054 28.201579335145652,118.29126293724403 27.348681456409395,128.20264437724836 26.495783576741815,133.32920785131864 28.770177922211587,140.16461188532412 34.17186449095607,144.6076159698423 37.583456008695066,145.63292364939116 44.40663904324174,144.94938523694873 47.2496319739148,142.89876904105768 50.09262490551919,138.4557623686269 51.7984206629917,127.17733060801402 54.35711430199444,116.58240068587475 54.64141359552741,106.6709800043609 54.64141359552741,104.62033706274815 51.7984206629917,98.12662496371195 49.52402631845325,95.73420109483413 43.55374116357416,93.68355051195249 39.004952473565936,94.02532570902258 35.02476237062365,96.4177509706933 32.7503680260852,98.12662496371195 29.90737509354949,103.59501505549997 28.770177922211587,115.21531016845256 27.06438216380775,125.8102450252045 26.21148428414017,134.01274897018448 27.348681456409395,138.1139923464507 33.31896661128849,143.9240773175843 39.004952473565936,147.0 40.710748232901096,147.0 43.838040456175804,146.3164619039744 48.38682914618403,140.848151412094 50.6612234916538,134.6962899309583 52.08271995745599,124.78493042080663 53.21991712972522,114.87353744008578 54.35711430199444,104.96211098553613 53.50421642232686,101.54436996486038 51.51412137039006,98.12662496371195 46.68103338778019,94.70887598325498 39.573551058769226,94.02532570902258 37.86775530129671,94.36710086534731 33.31896661128849,97.44307548669167 29.623075800947845,103.59501505549997 28.770177922211587,105.30388486827724 28.201579335145652,115.89885550620966 27.06438216380775,126.4937878975179 26.21148428414017,131.62035435438156 28.201579335145652,139.8228420612868 33.03466731868684,144.26584666315466 38.152054593898356,145.63292364939116 43.55374116357416,144.6076159698423 48.671128439716995,140.50638166884892 51.22982207778841,134.01274897018448 52.08271995745599,124.1013871524483 54.072815008461475,113.8482190137729 53.78851571585983,103.25324097275734 52.65131854265928,100.17727244226262 47.53393126837909,95.73420109483413 42.98514257743955,94.36710086534731 40.142149646766484,94.02532570902258 37.2991567151621,94.70887598325498 31.328871559351683,99.49372344184667 27.348681456409395,107.35452733188868 26.495783576741815,117.6077181568835 25.927184990607202,127.51910190470517 27.91728004347533,137.08868203917518 29.90737509354949,140.50638166884892 34.74046307615936,143.5823079321999 40.426448938436806,143.9240773175843 46.396734095178545,140.848151412094 49.80832561291754,137.08868203917518 51.7984206629917,126.4937878975179 54.35711430199444,116.24062811629847 54.35711430199444,106.3292062797118 54.072815008461475,102.56969268922694 50.6612234916538,98.12662496371195 44.40663904324174,94.36710086534731 40.710748232901096,94.02532570902258 33.60326590575278,97.10130068752915 29.90737509354949,103.25324097275734 28.201579335145652,112.48112722230144 27.06438216380775,115.89885550620966 26.495783576741815,125.4684735306073 25.927184990607202,130.936812678352 27.91728004347533,138.1139923464507 31.044572266750038,142.21522999042645 33.88756519835442,144.26584666315466 39.004952473565936,145.63292364939116 42.416543991304934,144.94938523694873 46.965332680381835,141.87346040527336 49.52402631845325,137.08868203917518 51.22982207778841,126.4937878975179 52.65131854265928,115.89885550620966 54.072815008461475,106.6709800043609 52.36701925005764,100.17727244226262 47.53393126837909,95.39242609776556 42.700843285769224,93.68355051195249 39.289251768030226,94.02532570902258 34.74046307615936,96.75952584948391 30.475973681546748,101.88614424667321 28.48587862867862,112.13935417402536 27.348681456409395,122.7343001361005 26.78008286934346,132.30389587231912 26.78008286934346,136.06337137450464 29.054477215744555,140.848151412094 34.45616378355771,144.94938523694873 39.573551058769226,145.63292364939116 42.98514257743955,144.94938523694873 48.95542773324996,140.848151412094 50.6612234916538,135.03806035104208 51.7984206629917,124.78493042080663 52.65131854265928,115.21531016845256 54.35711430199444,108.03807450225577 53.78851571585983,102.9114668504335 51.22982207778841,97.78485024510883 44.690938335843384,94.36710086534731 37.2991567151621,95.0506510604173 31.897470146417618,99.83549796231091 28.48587862867862,107.69630093686283 27.63298074901104,118.29126293724403 26.21148428414017,129.22795778838918 25.927184990607202,134.35451947012916 28.770177922211587,140.16461188532412 32.18176943901926,143.5823079321999 37.583456008695066,144.6076159698423 42.98514257743955,143.5823079321999 47.2496319739148,140.50638166884892 50.09262490551919,134.35451947012916 51.7984206629917,123.75961545784958 53.21991712972522,113.8482190137729 54.072815008461475,104.62033706274815 50.94552278518677,98.46839964319952 48.38682914618403,95.73420109483413 45.543836215510964,94.36710086534731 40.710748232901096,93.0 37.2991567151621,94.36710086534731 31.044572266750038,100.86082128318958 28.48587862867862,110.77226158720441 27.348681456409395,118.29126293724403 25.927184990607202,124.1013871524483 25.35858640447259,132.98743723123334 27.348681456409395,138.4557623686269 29.054477215744555,140.848151412094 31.044572266750038,142.89876904105768 35.02476237062365,144.6076159698423 41.563646111637354,143.5823079321999 43.55374116357416,142.89876904105768 48.38682914618403,139.1393022944685 50.09262490551919,136.06337137450464 50.94552278518677,126.4937878975179 52.65131854265928,117.26594570698217 54.072815008461475,107.35452733188868 53.78851571585983,101.88614424667321 51.7984206629917,98.46839964319952 47.53393126837909,95.0506510604173 41.84794540517032,93.68355051195249 36.44625883549452,95.39242609776556 32.18176943901926,98.81017428310588 29.623075800947845,103.59501505549997 28.201579335145652,112.82290023029782 27.63298074901104,122.05075639020652 26.21148428414017,125.4684735306073 26.495783576741815,127.17733060801402 25.642885697074234,134.6962899309583 27.348681456409395,139.8228420612868 28.201579335145652,141.5316907807719 30.76027297321707,143.5823079321999 38.152054593898356,145.63292364939116 45.543836215510964,143.24053850607015 48.10252985358238,140.50638166884892 50.37692419812083,131.27858353639022 52.65131854265928,121.36721248459071 54.35711430199444,110.08871505456045 54.64141359552741,103.59501505549997 53.78851571585983,101.20259564346634 50.09262490551919,96.75952584948391 42.13224469777197,94.02532570902258 39.004952473565936,94.02532570902258 36.44625883549452,95.0506510604173 32.18176943901926,98.46839964319952 30.475973681546748,100.86082128318958 27.91728004347533,111.11403479427099 26.495783576741815,121.70898445765488 26.495783576741815,121.70898445765488" stroke="#4DD2FF" stroke-linecap="round" stroke-linejoin="round" stroke-width="0.5"><title>2024-06-05 5.2km</title><desc>9223370319263910188</desc></polyline><polyline fill="none" points="91.75532242003828,102.22791848797351 90.90242473874241,103.59501505503431 88.34373169671744,114.87353743985295 86.92223556246608,121.70898445742205 85.7850386556238,132.987437231699 86.63793633598834,137.08868203964084 88.9123301524669,141.18992111785337 91.75532242003828,144.26584666478448 95.45121237076819,145.9746927979868 99.71570077259094,146.3164619046729 103.6958899507299,145.29115446377546 107.1074806721881,142.89876904152334 110.2347721690312,136.74691185820848 111.65626830328256,126.49378789681941 113.07776443846524,115.55708285886794 114.21496134530753,107.01275368826464 113.64636289142072,102.56969269015826 110.2347721690312,97.10130068776198 108.81327603384852,95.73420109576546 104.8330868575722,94.36710086558014 100.28429922834039,94.70887598302215 96.01981082372367,96.41775097092614 93.17681855522096,99.49372344301082 91.1867239670828,102.91146685183048 89.48092860542238,112.82290022959933 88.05943247117102,122.73430013749748 86.63793633598834,133.67097843135707 87.77513324376196,139.48107219813392 90.33382628578693,142.89876904152334 95.45121237076819,145.9746927979868 99.43140154704452,146.3164619046729 103.12729149591178,145.29115446377546 109.09757526218891,140.16461188485846 111.37196907680482,135.37983073317446 112.22486675716937,125.46847353130579 114.49926057178527,115.89885550783947 115.0678590266034,106.32920628110878 113.64636289142072,101.202595643932 109.95047294255346,96.75952584901825 106.53888221923262,94.70887598302215 102.84299227036536,94.02532570902258 96.58840927761048,95.73420109576546 90.90242473874241,100.86082128365524 88.34373169671744,110.08871505502611 86.92223556246608,120.00012419535778 86.06933788210154,123.75961545854807 85.7850386556238,133.67097843135707 87.49083401728421,139.48107219813392 90.04952705837786,142.89876904152334 94.88261391595006,145.9746927979868 98.86280309315771,147.0 103.12729149591178,146.3164619046729 106.53888221923262,143.9240773182828 109.38187448866665,140.5063816695474 111.65626830328256,134.6962899316568 112.79346521012485,124.44315880723298 114.49926057178527,116.92417321680114 115.35215825308114,107.01275368826464 113.93066211882979,101.202595643932 109.6661737151444,96.41775097092614 106.25458299182355,94.70887598302215 101.99009458906949,94.02532570902258 97.44130695797503,95.05065105995163 93.74541700910777,97.4430754869245 89.19662937894464,104.62033706344664 87.20653479080647,114.5317646714393 86.06933788210154,124.44315880723298 85.50073942914605,134.35451947152615 89.19662937894464,141.53169078170322 95.73551159631461,145.9746927979868 99.71570077259094,146.65823097270913 103.41159072332084,145.6329236512538 108.24467758089304,142.55699953599833 111.08766985032707,137.43045218242332 112.50916598364711,126.83555927313864 114.21496134530753,115.89885550783947 114.78355980012566,110.43048834102228 115.35215825308114,107.01275368826464 114.21496134530753,101.88614424597472 111.37196907680482,97.4430754869245 106.82318144571036,95.05065105995163 101.42149613425136,94.02532570902258 97.7256061853841,94.70887598302215 90.61812551412731,100.86082128365524 88.9123301524669,103.9367890979629 87.77513324376196,113.16467319824733 86.63793633598834,122.39252828457393 86.06933788210154,131.9621251344215 86.92223556246608,137.7722222842276 91.75532242003828,143.5823079328984 96.58840927761048,145.9746927979868 102.27439381554723,145.29115446377546 105.40168531052768,143.9240773182828 109.09757526218891,139.48107219813392 111.37196907680482,131.6203543562442 112.79346521012485,121.70898445742205 114.21496134530753,111.7975810887292 114.49926057178527,103.9367890979629 113.07776443846524,99.83549796277657 108.81327603384852,95.73420109576546 105.11738608498126,94.02532570902258 100.5685984538868,94.02532570902258 96.58840927761048,95.73420109576546 92.03962164744735,99.83549796277657 88.6280309241265,109.40516836405732 86.92223556246608,119.31657981243916 86.06933788210154,128.88618669169955 85.7850386556238,134.6962899316568 87.77513324376196,140.16461188485846 91.75532242003828,144.26584666478448 96.30411005020142,146.3164619046729 100.00000000093132,146.65823097270913 103.6958899507299,145.9746927979868 108.24467758089304,142.55699953599833 110.2347721690312,139.139302295167 111.9405675297603,131.27858353685588 112.79346521012485,121.70898445742205 113.64636289142072,111.7975810887292 114.21496134530753,104.27856310107745 112.22486675716937,98.81017428264022 107.96037835348397,95.39242609823123 103.12729149591178,94.02532570902258 99.43140154704452,94.36710086558014 94.598314688541,96.75952584901825 89.19662937894464,103.59501505503431 86.92223556246608,114.5317646714393 85.50073942914605,124.78493042220362 84.64784174785018,131.9621251344215 85.21644020080566,135.37983073317446 88.05943247117102,140.84815141395666 91.1867239670828,143.9240773182828 95.16691314335912,145.9746927979868 101.13719690777361,146.65823097270913 107.67607912793756,142.89876904152334 111.65626830328256,137.08868203964084 113.07776443846524,127.1773306101095 114.49926057178527,116.58240068610758 114.78355980012566,107.01275368826464 114.78355980012566,103.25324097345583 112.22486675716937,98.1266249648761 108.24467758089304,94.70887598302215 102.84299227036536,93.0 99.14710231963545,93.68355051288381 92.32392087392509,98.1266249648761 90.04952705837786,101.202595643932 87.77513324376196,110.43048834102228 85.7850386556238,121.02544047194533 84.64784174785018,131.27858353685588 86.3536371095106,137.08868203964084 89.19662937894464,141.18992111785337 93.4611177816987,143.9240773182828 95.73551159631461,144.9493852367159 101.13719690777361,144.9493852367159 105.40168531052768,143.24053850769997 108.81327603384852,140.16461188485846 110.80337062384933,136.0633713756688 112.22486675716937,124.78493042220362 112.50916598364711,114.87353743985295 113.93066211882979,105.30388486944139 112.50916598364711,100.17727244226262 110.2347721690312,97.10130068776198 104.26448840461671,94.36710086558014 100.28429922834039,94.36710086558014 94.31401546206325,97.10130068776198 90.33382628578693,102.22791848797351 87.77513324376196,110.43048834102228 87.20653479080647,114.5317646714393 85.7850386556238,124.1013871524483 84.93214097432792,133.67097843135707 86.92223556246608,139.48107219813392 91.1867239670828,143.9240773182828 94.88261391595006,145.9746927979868 100.85289768129587,146.65823097270913 105.68598453886807,144.26584666478448 109.6661737151444,140.5063816695474 111.9405675297603,135.03806035174057 112.79346521012485,125.12670199666172 114.21496134530753,115.55708285886794 114.78355980012566,106.32920628110878 113.64636289142072,100.86082128365524 108.81327603384852,95.05065105995163 104.8330868575722,93.68355051288381 100.85289768129587,93.68355051288381 96.87270850501955,95.05065105995163 92.32392087392509,98.81017428264022 88.9123301524669,105.30388486944139 86.92223556246608,114.5317646714393 85.7850386556238,125.81024502567016 85.21644020080566,132.987437231699 85.7850386556238,136.4051416371949 90.33382628578693,142.89876904152334 94.31401546206325,145.6329236512538 97.15700773149729,146.3164619046729 99.43140154704452,146.3164619046729" stroke="#4DD2FF" stroke-linecap="round" stroke-linejoin="round" stroke-width="0.5"><title>2024-06-03 4.1km</title><desc>9223370319435416669</desc></polyline><polyline fill="none" points="150.01793825626373,98.00004279683344 149.74065876286477,102.66674152598716 147.79970231093466,109.00010620476678 146.6905843410641,120.3334606536664 145.30418687593192,131.3334382364992 145.85874586179852,135.3334196030628 147.52242281939834,139.33339538169093 152.23617419879884,144.0000267245341 156.39536659233272,145.3333485685289 158.33632304240018,145.3333485685289 164.71375137846917,142.66670426074415 167.76382580026984,139.6667264434509 170.25934123713523,133.66676138015464 171.64573870040476,123.00012576719746 173.03213616553694,112.00011616107076 172.47757717967033,101.66673529543914 171.92301819473505,99.00005030748434 171.09117971546948,97.33337092748843 163.88191290013492,93.0 160.55455898493528,93.0 155.56352811306715,95.33335439185612 150.84977673366666,98.33337867213413 149.18609977606684,100.66672871611081 146.6905843410641,111.00011319108307 146.1360253551975,121.33346036192961 145.02690738346428,130.33344202069566 145.30418687593192,136.00008262158372 149.46337926853448,142.33337354683317 153.89985115546733,146.0000092573464 159.16816152073443,147.0 164.4364718850702,145.3333485685289 167.20926681533456,143.00003493460827 170.53662072960287,137.66673948662356 173.03213616553694,127.66678373795003 174.69581312313676,118.33346018800512 175.527651601471,109.00010620476678 174.9730926156044,103.66674740705639 173.58669515233487,100.33339311252348 169.42750275786966,96.00002672616392 163.60463340766728,94.33334559993818 157.78176405653358,94.33334559993818 156.11808709893376,95.00001816614531 150.01793825626373,100.33339311252348 147.52242281939834,108.33343689749017 147.79970231093466,114.6667890381068 146.6905843410641,120.3334606536664 145.85874586179852,121.66679352056235 144.47234839759767,131.3334382364992 145.02690738346428,136.6667454834096 150.01793825626373,143.00003493460827 153.34529217053205,145.3333485685289 159.16816152073443,146.66666979086585 162.7727949284017,146.0000092573464 167.4865463078022,142.33337354683317 170.53662072960287,137.00007685716264 172.2002976872027,127.66678373795003 174.41853363066912,117.3334594303742 175.25037210900337,108.00010218680836 174.9730926156044,103.66674740705639 172.2002976872027,98.33337867213413 167.20926681533456,94.33334559993818 163.60463340766728,93.33333645854145 159.44544101506472,93.6666728775017 151.4043357204646,99.00005030748434 148.63154079113156,105.6667581202928 148.07698180526495,115.00012297276407 145.85874586179852,124.66679020226002 145.02690738346428,132.33343410119414 146.6905843410641,138.0000707441941 150.01793825626373,142.33337354683317 154.45441014133394,145.0000181661453 158.05904354993254,145.6666789315641 163.32735391519964,144.6666877239477 167.4865463078022,141.3333811738994 170.25934123713523,136.6667454834096 171.64573870040476,127.33345127874054 173.03213616553694,118.33346018800512 173.58669515233487,107.666767437011 173.03213616553694,102.33340615429915 171.64573870040476,98.66671450971626 167.20926681533456,95.33335439185612 161.94095645099878,93.6666728775017 156.67264608480036,95.00001816614531 150.84977673366666,99.66672178753652 148.07698180526495,108.66677157045342 147.24514332599938,117.66679305536672 146.1360253551975,128.3334485415835 145.85874586179852,135.3334196030628 147.52242281939834,139.33339538169093 151.95889470539987,143.66669616708532 157.22720507066697,145.6666789315641 162.49551543593407,145.0000181661453 165.82286935020238,143.3333655698225 168.5956642795354,140.33338845334947 170.25934123713523,136.6667454834096 171.36845920793712,126.6667862420436 173.03213616553694,117.3334594303742 173.8639746448025,108.00010218680836 172.7548566730693,101.0000642822124 169.42750275786966,96.66669890494086 166.10014884267002,94.66668190225028 160.55455898493528,94.00000925874338 155.2862486205995,96.00002672616392 151.1270562261343,99.66672178753652 148.07698180526495,108.33343689749017 146.96786383353174,117.66679305536672 145.85874586179852,126.6667862420436 146.1360253551975,128.3334485415835 145.30418687593192,132.00010218494572 146.6905843410641,137.66673948662356 151.1270562261343,143.3333655698225 155.2862486205995,145.3333485685289 160.27727949246764,146.0000092573464 163.60463340766728,145.0000181661453 167.76382580026984,141.66671200376004 170.25934123713523,136.6667454834096 171.36845920793712,127.33345127874054 172.7548566730693,117.66679305536672 172.47757717967033,113.33345290995203 173.30941565800458,109.3334407992661 172.7548566730693,103.00007685902528 169.42750275786966,98.00004279683344 166.10014884267002,95.66669057798572 160.55455898493528,94.66668190225028 156.67264608480036,95.66669057798572 150.57249724119902,100.66672871611081 148.9088202835992,104.00008262251504 147.79970231093466,113.33345290995203 146.6905843410641,123.00012576719746 145.58146636839956,132.33343410119414 147.24514332599938,138.0000707441941 149.46337926853448,141.66671200376004 152.23617419879884,144.33335724310018 157.5044845631346,146.0000092573464 161.38639746326953,145.6666789315641 167.4865463078022,141.3333811738994 169.9820617446676,136.3334140717052 171.09117971546948,127.33345127874054 172.2002976872027,118.00012664147653 173.03213616553694,107.666767437011 173.03213616553694,103.66674740705639 170.53662072960287,98.66671450971626 166.10014884267002,95.33335439185612 160.83183847833425,94.66668190225028 156.11808709893376,96.00002672616392 151.68161521293223,100.0000574698206 148.9088202835992,105.00008803792298 147.52242281939834,114.6667890381068 146.6905843410641,124.00012454413809 146.1360253551975,134.6667564297095 148.07698180526495,139.6667264434509 151.68161521293223,144.0000267245341 156.94992557819933,146.0000092573464 162.2182359425351,145.3333485685289 166.9319873219356,142.66670426074415 169.9820617446676,137.66673948662356 171.92301819473505,128.66678088484332 173.58669515233487,119.33346059522592 174.41853363066912,115.66679072706029 174.14125413727015,106.33342804713175 173.03213616553694,101.33339980826713 169.70478225219995,97.00003493553959 165.26831036433578,94.00000925874338 163.32735391519964,93.33333645854145 159.7227205056697,94.00000925874338 154.17713064793497,96.66669890494086 149.74065876286477,101.66673529543914 147.24514332599938,109.6667753555812 146.41330484766513,118.66679369541816 145.58146636839956,129.3334454561118 145.30418687593192,131.3334382364992 146.6905843410641,137.33340819110163 150.01793825626373,142.33337354683317 155.8408076055348,145.3333485685289 159.44544101506472,145.6666789315641 162.7727949284017,144.6666877239477 166.9319873219356,142.00004279450513 169.9820617446676,137.66673948662356 171.36845920793712,128.3334485415835 172.47757717967033,118.00012664147653 173.58669515233487,107.3334326473996 173.03213616553694,102.00007074489258 169.9820617446676,97.66670688148588 164.4364718850702,94.33334559993818 159.44544101506472,94.33334559993818 154.45441014133394,96.66669890494086 151.68161521293223,99.00005030748434 148.63154079113156,106.33342804713175 147.52242281939834,115.66679072706029 146.41330484766513,125.00012297229841 145.30418687593192,131.00010620290413 145.58146636839956,133.33342961850576 149.18609977606684,140.66671939892694 154.17713064793497,144.6666877239477 156.11808709893376,145.3333485685289 163.05007442086935,144.33335724310018 166.65470783039927,142.00004279450513 169.70478225219995,137.33340819110163 171.36845920793712,127.00011878064834 172.2002976872027,117.66679305536672 173.58669515233487,106.66676295385696 173.58669515233487,105.33342309901491" stroke="#4DD2FF" stroke-linecap="round" stroke-linejoin="round" stroke-width="0.5"><title>2024-06-02 4.3km</title><desc>9223370319521430187</desc></polyline><polyline fill="none" points="29.752786160446703,157.72504016710445 28.629803822375834,165.15008772257715 29.472040574997663,167.51259886543266 28.91054940689355,177.63762480416335 28.068312652409077,187.42511625564657 27.226075897924602,192.15010029869154 27.506821483373642,194.51258943136781 30.875768498517573,200.58755264431238 33.96396993007511,202.9500349003356 38.175153699703515,203.96252670534886 42.38633746933192,203.2875322077889 44.63230214547366,202.27504016668536 46.316775653511286,200.58755264431238 49.68572266958654,193.83759273262694 51.370196177624166,182.7001245096326 51.65094176214188,177.63762480416335 53.054669686593115,168.18760169530287 52.773924101144075,163.12507663993165 51.089450592175126,159.07505022897385 47.4397579934448,155.70002389559522 42.947828638367355,154.01250925543718 34.806206684559584,155.70002389559522 33.402478761039674,157.05003490066156 29.472040574997663,163.12507663993165 28.349058237858117,172.57511625718325 27.506821483373642,181.68762527615763 26.103093559853733,190.80010564439 27.226075897924602,195.18758597341366 28.91054940689355,198.90006414009258 33.12173317652196,202.6125375526026 35.08695226814598,203.2875322077889 39.578881623223424,203.96252670534886 44.07081097736955,202.27504016668536 45.755284485407174,201.26254777098075 48.56274033151567,197.5500726304017 49.96646825503558,192.82509739114903 50.527959424071014,183.71262338990346 52.49317851662636,173.92511940049008 53.33541527017951,168.52510305168107 54.73914319463074,167.51259886543266 53.33541527017951,162.1125705682207 49.96646825503558,157.72504016710445 46.316775653511286,154.68751522991806 43.79006539285183,154.01250925543718 41.26335513032973,154.35001226165332 36.49068019166589,156.0375267053023 32.279496422968805,158.40004527638666 29.752786160446703,162.78757465467788 28.349058237858117,173.92511940049008 27.787567066960037,184.3876224460546 26.66458472982049,192.48759886459447 28.91054940689355,198.90006414009258 30.314277329482138,200.92505022743717 34.244715513661504,203.625029475661 39.017390452325344,204.6375210462138 41.26335513032973,204.6375210462138 45.474538899958134,202.27504016668536 48.56274033151567,198.90006414009258 49.404977086000144,196.53757858416066 50.527959424071014,185.7376200875733 51.089450592175126,175.27512191678397 52.773924101144075,167.85010030050762 52.49317851662636,162.78757465467788 50.527959424071014,158.40004527638666 49.12423150148243,156.37502947659232 47.15901240799576,155.0250181579031 39.85962720680982,153.67500620917417 37.61366252973676,154.01250925543718 34.244715513661504,156.37502947659232 31.15651408303529,160.0875573621597 29.472040574997663,164.4750841858331 28.629803822375834,173.92511940049008 28.068312652409077,183.03762417519465 26.66458472982049,191.81260169413872 27.506821483373642,195.86258235690184 31.15651408303529,201.26254777098075 34.806206684559584,203.2875322077889 39.017390452325344,204.6375210462138 42.947828638367355,203.2875322077889 46.597521238960326,200.92505022743717 49.12423150148243,196.87507663900033 50.2472138395533,187.42511625564657 51.089450592175126,176.62512380233966 53.33541527017951,166.16259273397736 51.370196177624166,159.07505022897385 48.56274033151567,156.0375267053023 44.35155656281859,154.01250925543718 39.85962720680982,153.33750312402844 35.92918902169913,154.68751522991806 32.5602420065552,157.38753755390644 30.595022914931178,161.437566322973 28.349058237858117,169.8751080816146 27.506821483373642,181.0126255908981 26.945330314338207,190.80010564439 27.226075897924602,195.18758597341366 28.91054940689355,199.57505966094323 35.08695226814598,203.625029475661 39.298136037774384,204.97501815692522 45.19379331637174,201.93754274141975 48.28199474699795,198.56256632204168 50.2472138395533,189.78760924004018 51.089450592175126,180.67512568854727 52.49317851662636,169.53760688286275 52.49317851662636,162.78757465467788 50.80870500858873,158.7375477727037 47.15901240799576,155.36252104653977 40.70186396129429,153.67500620917417 38.73664486967027,153.67500620917417 33.402478761039674,157.38753755390644 30.033531745895743,162.78757465467788 28.349058237858117,173.58761867391877 26.945330314338207,184.05012293742038 26.66458472982049,194.17509110225365 28.349058237858117,197.88757056649774 31.998750837519765,202.6125375526026 38.45589928422123,204.6375210462138 40.70186396129429,204.30002389592119 46.316775653511286,200.25005502230488 48.00124916154891,198.56256632204168 49.404977086000144,194.17509110225365 50.527959424071014,184.72512191464193 52.21243293210864,173.58761867391877 53.33541527017951,165.15008772257715 51.370196177624166,159.07505022897385 48.28199474699795,155.70002389559522 44.35155656281859,153.67500620917417 40.14037279225886,153.0 36.20993460714817,154.01250925543718 31.43725966848433,158.7375477727037 29.472040574997663,162.78757465467788 27.787567066960037,173.25011790753342 26.945330314338207,184.05012293742038 26.103093559853733,191.81260169413872 28.068312652409077,197.5500726304017 30.875768498517573,200.92505022743717 35.648443438112736,203.96252670534886 40.70186396129429,205.3125152294524 46.03603006899357,202.27504016668536 48.84348591603339,198.90006414009258 51.089450592175126,188.43761348514818 52.773924101144075,177.63762480416335 53.89690644014627,167.85010030050762 53.33541527017951,162.1125705682207 50.527959424071014,156.37502947659232 44.9130477309227,153.33750312402844 41.26335513032973,153.0 35.648443438112736,154.35001226165332 31.43725966848433,158.40004527638666 29.472040574997663,161.77506846562028 28.349058237858117,171.56261348584667 27.226075897924602,181.35012545366772 26.103093559853733,191.13760436652228 27.226075897924602,197.21257465495728 29.752786160446703,200.92505022743717 34.525461099110544,204.30002389592119 38.45589928422123,204.97501815692522 42.105591885745525,203.96252670534886 46.878266824409366,200.58755264431238 49.12423150148243,197.21257465495728 51.089450592175126,187.42511625564657 51.9316873466596,177.30012450995855 53.33541527017951,167.17509739100933 52.773924101144075,162.78757465467788 51.370196177624166,159.07505022897385 47.4397579934448,154.68751522991806 43.50931980833411,153.0 39.017390452325344,153.33750312402844 36.49068019166589,154.35001226165332 31.43725966848433,159.7500550239347 29.752786160446703,164.13758235890418 28.629803822375834,173.92511940049008 27.226075897924602,182.7001245096326 26.66458472982049,190.80010564439 27.787567066960037,196.53757858416066 29.752786160446703,199.91255736141466 34.525461099110544,203.2875322077889 38.175153699703515,203.96252670534886 43.50931980833411,202.9500349003356 48.00124916154891,199.57505966094323 49.96646825503558,193.5000943245832 51.089450592175126,183.03762417519465 51.9316873466596,174.60012073768303 53.054669686593115,170.550110361306 51.9316873466596,160.42505966080353 49.96646825503558,157.38753755390644 46.878266824409366,154.68751522991806 43.22857422288507,153.67500620917417 39.298136037774384,153.67500620917417 32.84098759107292,157.05003490066156 30.595022914931178,159.7500550239347 28.629803822375834,169.8751080816146 27.787567066960037,180.33762574754655 25.541602389886975,189.45011036051437 25.541602389886975,193.5000943245832 27.787567066960037,198.90006414009258 30.314277329482138,201.6000452756416 37.052171361632645,203.96252670534886 41.26335513032973,203.96252670534886 44.9130477309227,201.93754274141975 48.00124916154891,199.23756192042492 49.404977086000144,195.18758597341366 51.370196177624166,185.40012073563412 52.773924101144075,175.9501229377929 52.773924101144075,165.48758943355642 52.773924101144075,163.46257858583704 50.2472138395533,157.72504016710445 47.4397579934448,155.0250181579031 42.947828638367355,153.33750312402844 38.73664486967027,154.01250925543718 34.806206684559584,155.70002389559522 30.033531745895743,160.42505966080353 27.506821483373642,168.52510305168107 26.945330314338207,178.98762559029274 25.541602389886975,189.45011036051437 25.541602389886975,193.16259587742388 26.66458472982049,197.21257465495728 30.314277329482138,201.93754274141975 37.33291694615036,205.98750925576314 42.947828638367355,207.0 44.9130477309227,205.65001226193272 48.84348591603339,199.57505966094323 51.370196177624166,188.7751124824863 53.33541527017951,178.98762559029274 53.89690644014627,168.86260436824523 53.89690644014627,163.12507663993165 52.49317851662636,159.07505022897385 49.68572266958654,156.0375267053023 43.79006539285183,153.67500620917417 37.8944081151858,154.01250925543718 34.244715513661504,155.36252104653977 30.033531745895743,159.07505022897385 27.506821483373642,170.21260924148373 26.103093559853733,179.66262574773282 25.26085680630058,189.11261144047603 25.26085680630058,191.81260169413872 27.226075897924602,197.21257465495728 30.033531745895743,200.58755264431238 34.244715513661504,203.625029475661 38.73664486967027,204.6375210462138 43.22857422288507,203.625029475661 46.878266824409366,200.92505022743717" stroke="#4DD2FF" stroke-linecap="round" stroke-linejoin="round" stroke-width="0.5"><title>2024-05-28 4.9km</title><desc>9223370319956977916</desc></polyline><polyline fill="none" points="109.73250793293118,207.0 108.23519901931286,206.28000620543025 109.73250793293118,195.8400773264002 111.52927862852812,183.60011581145227 113.6255111079663,171.7201068191789 114.52389645576477,164.1600773271639 113.92497288994491,161.6400633866433 112.42766397632658,159.1200473944191 110.33143149875104,156.96003205049783 104.94111941196024,154.44001224078238 99.5508073233068,153.36000312282704 92.36372454278171,156.6000293456018 90.26749206334352,158.76004494121298 87.87179780378938,167.0400907418225 86.3744888920337,177.84011715254746 85.77556532621384,187.9201077616308 85.47610354423523,192.6000922296662 86.6739506740123,197.64006757945754 89.96803028322756,202.32003733259626 94.45995702035725,205.2000151979737 99.5508073233068,206.28000620543025 106.43842832371593,203.7600265997462 109.43304615095258,200.88004739349708 111.52927862852812,193.32008921145461 112.72712576016784,183.24011621042155 113.6255111079663,173.1601103397552 114.22443467192352,163.080071604345 112.12820219434798,158.76004494121298 110.33143149875104,156.6000293456018 104.94111941196024,154.0800092436839 99.5508073233068,153.7200062039774 92.36372454278171,156.6000293456018 88.77018315158784,163.080071604345 87.57233601994812,172.80010952311568 86.97341245599091,174.9601137994323 86.07502710819244,184.68011436495 85.77556532621384,194.76008267118596 87.57233601994812,199.44005678407848 91.46533919498324,203.4000293458812 96.25672771595418,205.5600122420583 101.04811623692513,205.92000924423337 107.03735188953578,202.6800347128883 109.73250793293118,199.08005902729928 110.93035506270826,194.76008267118596 112.42766397632658,183.60011581145227 113.32604932412505,171.7201068191789 114.22443467192352,164.52007915033028 112.72712576016784,160.200054500252 109.43304615095258,156.6000293456018 104.94111941196024,154.44001224078238 97.75403662957251,154.0800092436839 95.65780415199697,154.8000151971355 91.76480097696185,157.6800373326987 88.47072136960924,163.80007546115667 87.57233601994812,174.9601137994323 86.3744888920337,185.40011319122277 85.47610354423523,194.4000843691174 86.97341245599091,199.08005902729928 90.56695384718478,203.04003205057234 97.75403662957251,205.92000924423337 102.54542515054345,205.5600122420583 106.43842832371593,203.7600265997462 108.83412258513272,200.52004980458878 110.63089328072965,196.5600735526532 111.52927862852812,185.04011379857548 112.42766397632658,175.32011436508037 113.92497288994491,164.1600773271639 112.12820219434798,159.48004980455153 108.53466080315411,155.880023811711 104.04273406416178,154.0800092436839 99.5508073233068,153.7200062039774 95.35834236815572,155.16001811088063 92.0642627608031,158.0400399104692 89.06964493356645,164.1600773271639 87.57233601994812,174.9601137994323 86.07502710819244,185.76011254172772 85.17664176039398,194.4000843691174 86.6739506740123,199.08005902729928 89.96803028322756,203.04003205057234 96.25672771595418,206.6400031237863 98.65242197737098,207.0 105.2405811958015,205.2000151979737 109.43304615095258,200.88004739349708 111.22981684654951,196.5600735526532 111.52927862852812,185.04011379857548 111.82874041236937,176.04011537204497 113.92497288994491,165.96008602483198 113.02658754214644,161.28006122843362 110.03196971490979,157.32003471208736 103.74327228218317,153.7200062039774 97.4545748475939,154.0800092436839 93.56157167255878,156.2400265992619 89.36910671554506,161.6400633866433 87.57233601994812,173.52011111634783 85.77556532621384,184.68011436495 85.47610354423523,195.8400773264002 87.27287423983216,200.16005217377096 90.86641562916338,204.12002381216735 95.35834236815572,206.28000620543025 100.1497308909893,207.0 106.13896654359996,204.48002098221332 108.83412258513272,201.24004494096152 110.63089328072965,197.2800696119666 111.52927862852812,192.96009074221365 112.12820219434798,181.44011757196859 113.92497288994491,170.64010373759083 114.22443467192352,165.96008602483198 113.02658754214644,160.92005902691744 110.03196971490979,157.32003471208736 105.83950475975871,154.44001224078238 101.34757802076638,153.7200062039774 98.95188375934958,153.7200062039774 92.96264810860157,157.32003471208736 90.26749206334352,160.92005902691744 87.57233601994812,167.76009367662482 86.07502710819244,176.760116210673 86.6739506740123,181.44011757196859 85.47610354423523,192.24009367567487 85.77556532621384,196.92007160396315 88.17125958763063,201.60004244698212 91.76480097696185,204.48002098221332 96.25672771595418,206.6400031237863 100.44919267296791,207.0 106.43842832371593,204.48002098221332 109.13358436711133,200.88004739349708 112.42766397632658,189.72010262613185 113.32604932412505,187.56010866258293 112.72712576016784,182.52011688007042 114.22443467192352,171.36010583443567 114.82335823774338,164.52007915033028 114.22443467192352,162.3600675801281 110.33143149875104,156.2400265992619 107.03735188953578,153.7200062039774 104.94111941196024,153.0 97.75403662957251,154.44001224078238 93.86103345640004,156.96003205049783 90.86641562916338,160.200054500252 88.17125958763063,170.64010373759083 86.3744888920337,181.44011757196859 85.17664176039398,192.96009074221365 85.77556532621384,197.64006757945754 88.17125958763063,201.60004244698212 91.76480097696185,204.84001811081544 101.34757802076638,206.28000620543025 107.33681367151439,203.04003205057234 109.43304615095258,199.44005678407848 110.63089328072965,195.48007915052585 111.82874041236937,184.32011488848366 112.72712576016784,173.1601103397552 113.6255111079663,170.64010373759083 113.6255111079663,170.64010373759083" stroke="#4DD2FF" stroke-linecap="round" stroke-linejoin="round" stroke-width="0.5"><title>2024-04-08 3.0km</title><desc>9223370324277236884</desc></polyline><polyline fill="none" points="147.99327688664198,198.16987970122136 147.99327688664198,199.86798183480278 149.12332141492516,202.24532316066325 151.10089933872223,203.94342292216606 153.3609883962199,204.9622823037207 157.88116651028395,205.98114133020863 162.68385575618595,205.3019020180218 168.89910066127777,200.8868426408153 170.02914519049227,199.1887411007192 171.44170085061342,194.4340515276417 170.87667858600616,187.64162440481596 172.5717453788966,178.1321998552885 173.4192787753418,168.28312031319365 173.13676764350384,163.52838035440072 170.02914519049227,157.4151318720542 166.63901160564274,155.37737953127362 160.42376669868827,155.0377540020272 153.92601065989584,157.4151318720542 150.8183882078156,160.81138261058368 149.12332141492516,164.88687827647664 147.42825462296605,175.0755925225094 146.58072122652084,186.28313708025962 146.8632323583588,197.15101794642396 149.12332141492516,201.2264628307894 154.77354405727237,204.9622823037207 156.75112198106945,205.64152169390582 162.68385575618595,204.9622823037207 166.07398934010416,202.58494319207966 169.74663405772299,197.15101794642396 172.85425651073456,186.6227589712944 175.11434556823224,177.11333109950647 175.11434556823224,167.60387222189456 174.83183443639427,163.18875577487051 172.5717453788966,158.43400750937872 170.5941674541682,156.3962558801286 165.79147820919752,154.01887718006037 160.70627783052623,153.0 158.1636776421219,153.6792514922563 153.64349952805787,156.3962558801286 148.8408102830872,162.50950649613515 147.14574349019676,166.5849997883197 145.16816556546837,177.79257697588764 145.16816556546837,188.32086782786064 145.73318783007562,195.45291423029266 146.29821009375155,197.49063857039437 149.40583254676312,201.56608298025094 155.05605518817902,205.3019020180218 159.0112110376358,206.66038048220798 163.24887801986188,206.32076092623174 168.6165895294398,199.86798183480278 170.87667858600616,194.09443054674193 173.70178990717977,183.56616053706966 174.26681217178702,173.37747595249675 173.70178990717977,162.84913115529343 168.89910066127777,153.6792514922563 161.27130009513348,153.0 156.46861084923148,154.69812843413092 150.8183882078156,158.77363264304586 147.99327688664198,164.88687827647664 146.29821009375155,175.0755925225094 145.45067669730633,185.26427117432468 144.60314330086112,191.37746127904393 145.73318783007562,197.83025915618055 150.53587707597762,203.26418313616887 158.44618877395988,207.0 160.42376669868827,207.0 167.48654500115663,203.26418313616887 171.15918971784413,198.16987970122136 172.85425651073456,187.64162440481596 175.3968567000702,177.79257697588764 175.11434556823224,167.60387222189456 173.70178990717977,161.83025706070475 171.72421198245138,158.0943823370617 166.92152273841202,154.35850282688625 160.70627783052623,153.33962576650083 156.46861084923148,154.69812843413092 150.8183882078156,159.45288278977387 148.8408102830872,164.20762939355336 147.7107657538727,174.0567227001302 146.8632323583588,179.83031365601346 146.01569896191359,190.35859715146944 146.58072122652084,196.47177657904103 148.27578801941127,200.54722241102718 151.10089933872223,203.60380304954015 156.46861084923148,205.98114133020863 162.11883349251002,205.98114133020863 166.63901160564274,203.60380304954015 169.18161179404706,200.54722241102718 171.44170085061342,189.6793542020023 173.4192787753418,179.490690974053 174.26681217178702,169.6416160208173 173.4192787753418,160.47175771533512 172.00672311428934,158.77363264304586 166.92152273841202,155.37737953127362 162.9663668880239,154.01887718006037 158.44618877395988,154.69812843413092 154.2085217917338,156.7358812505845 151.10089933872223,161.15100746764801 148.8408102830872,171.0001110949088 147.42825462296605,181.52842646744102 145.73318783007562,191.37746127904393 145.73318783007562,194.09443054674193 147.14574349019676,198.849120674422 150.25336594320834,202.92456318368204 154.4910329245031,205.3019020180218 159.0112110376358,206.32076092623174 162.9663668880239,205.64152169390582 164.9439448127523,204.6226625496056 168.05156726483256,201.2264628307894 170.87667858600616,194.4340515276417 172.85425651073456,185.26427117432468 175.11434556823224,174.39634601329453 174.549323303625,165.56612700037658 173.4192787753418,160.81138261058368 170.31165632233024,157.4151318720542 164.9439448127523,154.01887718006037 160.70627783052623,153.6792514922563 156.75112198106945,154.69812843413092 151.6659216042608,159.11325773620047 149.6883436795324,162.84913115529343 148.27578801941127,174.0567227001302 147.14574349019676,183.56616053706966 146.01569896191359,193.41518846689723 147.14574349019676,199.1887411007192 149.6883436795324,202.92456318368204 153.3609883962199,204.9622823037207 157.88116651028395,205.98114133020863 162.40134462341666,205.64152169390582 167.20403386838734,201.90570309013128 170.31165632233024,195.113293368835 172.28923424705863,185.9435151515063 173.98430103994906,174.73596928780898 174.549323303625,165.56612700037658 173.13676764350384,161.15100746764801 168.33407839760184,156.05663047009148 164.37892254907638,154.35850282688625 157.59865537751466,155.37737953127362 153.64349952805787,157.75475712423213 150.53587707597762,161.490632283967 147.99327688664198,171.0001110949088 146.58072122652084,181.86804891144857 145.16816556546837,192.0567038343288 145.16816556546837,195.79253505310044 146.29821009375155,198.849120674422" stroke="#4DD2FF" stroke-linecap="round" stroke-linejoin="round" stroke-width="0.5"><title>2024-03-31 3.1km</title><desc>9223370324967953336</desc></polyline><polyline fill="none" points="46.84200881049037,264.496709730709 49.51931660622358,262.351030732505 51.00670982711017,259.84773667366244 52.19662440009415,250.90738408989273 53.68401762098074,239.8213107404299 54.57645355351269,226.94711082126014 54.57645355351269,224.08617017534561 53.68401762098074,221.2252268642187 52.19662440009415,218.72189928242005 50.11427389457822,216.93380690156482 44.75965830311179,214.43047582055442 36.7277349177748,215.14571348042227 34.347905764356256,216.57618830096908 31.075640682131052,221.2252268642187 29.58824746310711,231.95375053654425 28.100854244083166,242.32462112489156 26.31598237901926,252.3378422537353 26.018503734841943,255.1987565786112 27.208418311551213,260.20535023510456 28.695811530575156,262.351030732505 30.778162037953734,264.13909666775726 35.835298985242844,265.9271615622565 41.48739322088659,265.9271615622565 45.94957287982106,263.7814835635945 49.221837962046266,260.20535023510456 50.11427389457822,257.70205442700535 51.00670982711017,247.6888507900294 52.19662440009415,238.03323064674623 53.68401762098074,228.01996287540533 53.38653897680342,222.65569885331206 50.70923118107021,218.36428088904358 46.54453016631305,215.50333224749193 41.48739322088659,214.43047582055442 39.10756406933069,214.78809467121027 34.347905764356256,216.93380690156482 32.26555525884032,218.72189928242005 30.778162037953734,221.2252268642187 29.290768817067146,231.95375053654425 27.505896953865886,242.32462112489156 26.31598237901926,251.9802277747076 26.018503734841943,256.986826678738 28.100854244083166,261.27819067053497 31.670597970485687,264.496709730709 36.13277762942016,266.28477441566065 40.89243593253195,265.9271615622565 45.05713694728911,264.13909666775726 48.32940203137696,261.27819067053497 50.411752538755536,256.6292127412744 51.60166711360216,246.616005606018 52.79158168844879,234.81468385178596 53.98149626515806,225.15902322926559 53.089060332626104,220.50999062042683 51.60166711360216,218.36428088904358 47.436966098845005,214.78809467121027 42.67730779759586,213.71523799351417 37.620170848444104,214.07285692705773 33.45546983368695,216.57618830096908 30.480683393776417,220.50999062042683 28.39833288639784,230.16566586028785 26.910939667373896,241.96700548008084 25.721025090664625,253.76829974888824 26.018503734841943,258.05966823827475 29.58824746310711,263.06625723070465 31.37311932630837,264.496709730709 36.43025627359748,266.28477441566065 41.48739322088659,266.28477441566065 45.652094235643744,264.13909666775726 48.92435931786895,260.9205772341229 50.70923118107021,256.6292127412744 52.494103046134114,245.90077527542599 53.68401762098074,235.17230032919906 54.873932195827365,226.5894933855161 53.38653897680342,219.7947542106267 51.00670982711017,216.57618830096908 45.94957287982106,213.35761901712976 43.86722237057984,213.0 39.405042711645365,213.35761901712976 35.537820341065526,214.78809467121027 31.96807661280036,218.00666245422326 29.885726107284427,221.94046294293366 28.100854244083166,231.95375053654425 26.613461023196578,243.03985228808597 25.12606780230999,253.41068543680012 25.423546448349953,257.70205442700535 26.613461023196578,260.9205772341229 29.290768817067146,263.7814835635945 33.45546983368695,265.9271615622565 37.91764949262142,266.64238722855225 44.462179658934474,264.85432275081985 49.221837962046266,260.5629637551028 51.00670982711017,256.6292127412744 52.19662440009415,245.5431600480806 53.38653897680342,234.81468385178596 54.57645355351269,224.44378790236078 53.68401762098074,220.1523724363651 51.00670982711017,216.57618830096908 47.436966098845005,214.07285692705773 41.78487186320126,213.0 37.620170848444104,213.35761901712976 34.05042712017894,215.50333224749193 30.1832047495991,220.50999062042683 28.100854244083166,231.5961336849723 26.910939667373896,241.25177406682633 25.423546448349953,251.9802277747076 25.423546448349953,255.91398474294692 27.208418311551213,260.20535023510456 30.1832047495991,263.42387041822076 35.24034169688821,265.9271615622565 40.000000001862645,266.28477441566065 44.1647010166198,264.85432275081985 47.73444474302232,262.351030732505 49.8167952504009,258.41728200926445 51.89914575777948,250.54976944578812 53.089060332626104,240.5365424877964 54.278974909335375,230.16566586028785 53.98149626515806,223.72855240781792 52.494103046134114,219.43713594204746 48.92435931786895,215.86095097311772 44.462179658934474,213.71523799351417 39.405042711645365,213.71523799351417 35.24034169688821,215.14571348042227 31.670597970485687,218.72189928242005 29.58824746310711,223.01331674586982 28.39833288639784,234.45706733339466 26.613461023196578,244.8279294676613 25.423546448349953,255.1987565786112 27.208418311551213,260.20535023510456 31.670597970485687,264.496709730709 37.02521356008947,266.28477441566065 44.1647010166198,264.85432275081985 48.62688067369163,261.27819067053497 50.70923118107021,255.1987565786112 51.89914575777948,245.18554477882572 53.68401762098074,234.45706733339466 54.873932195827365,228.01996287540533 53.68401762098074,221.94046294293366 50.411752538755536,216.93380690156482 46.84200881049037,214.43047582055442 42.08235050737858,213.35761901712976 37.32269220612943,213.71523799351417 33.15799118950963,216.21856965776533 30.480683393776417,219.7947542106267 27.803375598043203,228.73519737063907 26.613461023196578,239.10607882705517 25.423546448349953,249.11931045050733 25.423546448349953,256.6292127412744 27.208418311551213,260.9205772341229 30.480683393776417,264.13909666775726 37.32269220612943,267.0 40.89243593253195,267.0 45.35461558960378,264.85432275081985 48.92435931786895,261.63580406666733 51.00670982711017,257.34444057405926 51.89914575777948,246.25839046062902 53.38653897680342,239.10607882705517" stroke="#4DD2FF" stroke-linecap="round" stroke-linejoin="round" stroke-width="0.5"><title>2024-03-27 3.0km</title><desc>9223370325311596095</desc></polyline></svg>