<?xml version="1.0" encoding="utf-8" ?>
<svg baseProfile="full" height="300mm" version="1.1" viewBox="0,0,200,300" width="200mm" xmlns="http://www.w3.org/2000/svg" xmlns:ev="http://www.w3.org/2001/xml-events" xmlns:xlink="http://www.w3.org/1999/xlink"><defs /><rect fill="#222222" height="300" width="200" x="0" y="0" /><text fill="#FFFFFF" style="font-size:12px; font-family:Arial; font-weight:bold;" x="10" y="20">Over 3km Runs</text><text fill="#FFFFFF" style="font-size:4px; font-family:Arial" x="10" y="280">Runner</text><text fill="#FFFFFF" style="font-size:9px; font-family:Arial" x="10" y="290">王子阳</text><text fill="#FFFFFF" style="font-size:4px; font-family:Arial" x="65" y="280">SPECIAL TRACKS</text><rect fill="yellow" height="2.6" width="2.6" x="65" y="283" /><text fill="#FFFFFF" style="font-size:3px; font-family:Arial" x="70" y="285.5">Over 20.0 km</text><rect fill="red" height="2.6" width="2.6" x="65" y="287" /><text fill="#FFFFFF" style="font-size:3px; font-family:Arial" x="70" y="289.5">Over 40.0 km</text><text fill="#FFFFFF" style="font-size:4px; font-family:Arial" x="120" y="280">STATISTICS</text><text fill="#FFFFFF" style="font-size:3px; font-family:Arial" x="120" y="285">Number: 9</text><text fill="#FFFFFF" style="font-size:3px; font-family:Arial" x="120" y="290">Weekly: 1.8</text><text fill="#FFFFFF" style="font-size:3px; font-family:Arial" x="141" y="285">Total: 37.7 km</text><text fill="#FFFFFF" style="font-size:3px; font-family:Arial" x="141" y="290">Avg: 4.2 km</text><text fill="#FFFFFF" style="font-size:3px; font-family:Arial" x="167" y="285">Min: 3.0 km</text><text fill="#FFFFFF" style="font-size:3px; font-family:Arial" x="167" y="290">Max: 5.2 km</text><polyline fill="none" points="15.59040590422228,76.9034149631625 16.586715867277235,74.47215918137226 16.487084871158004,73.6617394152563 17.981549815740436,70.76737832417712 18.479704796802253,70.0727305499604 18.579335793387145,69.26230760267936 19.874538745731115,65.90483486384619 21.867158671375364,62.77890292694792 23.959409594070166,59.88451372960117 26.1512915128842,56.41123682574835 27.147601476404816,54.790370586677454 29.339483394753188,52.474843321484514 31.132841328624636,49.81198105192743 31.929889298975468,48.07532833667938 32.42804428096861,47.2648894819431 32.82656826591119,46.454450040939264 34.91881918814033,43.791573466034606 37.11070110742003,40.665579847525805 39.20295202964917,37.423799477750435 40.298892989289016,36.03446216240991 40.996309963054955,35.57134934118949 41.89298892999068,35.33979285904206 45.38007380114868,35.68712756468449 48.767527675721794,35.80290577618871 52.65313653135672,36.03446216240991 56.239852398168296,35.68712756468449 59.12915129121393,36.03446216240991 62.21771217696369,35.224014600156806 65.30627306271344,34.87667975097429 66.10332103306428,34.87667975097429 66.60147601505741,35.45557110628579 66.80073800729588,36.150240337941796 65.40590405883268,39.16046869906131 64.11070110695437,42.51802156295162 63.2140221404843,45.875564367626794 62.018450184725225,49.23309711238835 60.125461254734546,52.59061979816761 59.7269372693263,53.2852784084389 59.7269372693263,53.86416025436483 59.328413284383714,54.32726551638916 57.83394833980128,57.91632480581757 57.13653136510402,60.00028944085352 56.6383763840422,60.5791678186506 55.442804427817464,63.82088120758999 54.54612546088174,66.48371019156184 52.95202952064574,69.72540650167502 51.457564576063305,73.43019080336671 50.06273062713444,76.78764099802356 48.6678966791369,80.37662836036179 47.67158671608195,82.92364467692096 44.78228782303631,85.12333592888899 41.19557195575908,85.00756281265058 37.50922509189695,85.12333592888899 33.723247232846916,85.2391090329038 30.236162361688912,85.35488212504424 26.8487084871158,85.35488212504424 23.56088560912758,85.35488212504424 20.372693727258593,85.35488212504424 17.184501845389605,85.35488212504424 14.793357933405787,85.2391090329038 14.095940959174186,85.00756281265058 13.199261992704123,83.73405774566345 13.298892989289016,82.92364467692096 14.793357933405787,79.45043917326257 15.988929889164865,75.86144884559326 17.184501845389605,72.27244702458847 18.579335793387145,68.68343371024821 19.974169741850346,65.44173438590951 21.966789667960256,62.31580115738325 24.357933579478413,59.30563499312848 26.05166051723063,56.41123682574835 27.147601476404816,55.369251655065455 29.140221402514726,52.474843321484514 30.933579336386174,50.043534543714486 32.42804428096861,46.8017813017359 32.82656826591119,46.107118672691286 35.21771217742935,43.21268641680945 37.30996309965849,40.08669118373655 39.3025830257684,36.96068723069038 39.90036900388077,36.26601850136649 40.59778597811237,35.68712756468449 43.7859778595157,35.224014600156806 45.67896678997204,35.10823632881511 49.16605166019872,34.64512312505394 52.45387453911826,34.64512312505394 55.64206642098725,34.760901443776675 58.830258302390575,34.52934479434043 62.41697417013347,34.760901443776675 65.90405904036015,34.52934479434043 66.60147601505741,34.99245804606471 67.0,35.80290577618871 65.60516605200246,39.39202439202927 64.80811808118597,41.82335627870634 63.11439114389941,45.180901164305396 62.018450184725225,48.1911052679643 61.420664206612855,50.50664138444699 60.52398523967713,51.89596075727604 60.32472324743867,52.59061979816761 60.025830258149654,53.053725586039945 59.92619926156476,53.86416025436483 58.730627306737006,56.29546074336395 58.730627306737006,56.99011705711018 57.435424354393035,59.537186523666605 57.23616236168891,60.46339216735214 55.64206642098725,63.82088120758999 54.24723247252405,67.06258522043936 53.05166051723063,70.53582911426201 51.65682656876743,73.89328797964845 50.162361623719335,77.01918891677633 48.867158671375364,80.37662836036179 47.67158671608195,83.50251121458132 44.48339483421296,85.35488212504424 40.79704797081649,85.2391090329038 37.21033210353926,85.12333592888899 33.52398523967713,85.2391090329038 29.937269372865558,85.2391090329038 26.250922509469092,85.2391090329038 22.66420664265752,85.2391090329038 19.077490774914622,85.2391090329038 15.490774908103049,85.35488212504424 14.394833948928863,85.47065520554315 14.095940959174186,84.19715066463687 13.59778597811237,83.61828448600136 13.697416974697262,82.69209797820076 15.092250922229141,79.33466547122225 15.391143911518157,77.48228461027611 16.586715867277235,74.00906224385835 18.18081180844456,70.53582911426201 19.47601476032287,66.83103524462786 20.17343173408881,64.97863371740095 22.365313653368503,61.85269919713028 24.557195572182536,58.84253178862855 25.55350553523749,57.33744505268987 27.546125461813062,55.25347546546254 29.638376384042203,51.89596075727604 31.232472324278206,49.580427511711605 31.43173431791365,48.76998974545859 32.92619926203042,46.107118672691286 35.018450184725225,43.44424127251841 37.011070110835135,40.665579847525805 38.70479704812169,37.423799477750435 39.90036900388077,35.91868397523649 41.79335793387145,35.33979285904206 45.38007380114868,35.10823632881511 48.767527675721794,35.10823632881511 52.254612545948476,35.224014600156806 55.84132841369137,35.10823632881511 58.43173431791365,35.224014600156806 59.82656826591119,35.224014600156806 60.52398523967713,35.10823632881511 64.01107011083513,34.64512312505394 65.90405904036015,34.52934479434043 66.60147601505741,34.99245804606471 67.0,35.80290577618871 65.60516605200246,39.276246551424265 64.70848708506674,41.93913385621272 64.50922509189695,42.86535404389724 63.91143911425024,43.3284638505429 63.01476014778018,44.94934666750487 61.91881918814033,48.538435990340076 61.61992619931698,49.34887392423116 61.61992619931698,50.27508798777126 61.02214022167027,50.969748033443466 59.62730627320707,54.21148921898566 58.132841328158975,57.56899698963389 57.33579335780814,59.30563499312848 56.83763837674633,60.11606514046434 55.64206642098725,63.58933056262322 54.24723247252405,66.94681023829617 53.05166051723063,70.30427985615097 51.557195572182536,73.54596511542331 50.162361623719335,76.9034149631625 48.767527675721794,80.1450811350951 47.87084870878607,82.57632461097091 47.2730627306737,83.27096463507041 44.981549815740436,84.89178968442138 41.39483394892886,85.12333592888899 37.708487085066736,85.12333592888899 34.02214022167027,85.2391090329038 30.435424354393035,85.2391090329038 27.645756457466632,85.2391090329038 24.15867158677429,85.12333592888899 20.67158671654761,85.12333592888899 17.881918819621205,85.2391090329038 17.084870849270374,84.77601654431783 14.99261992610991,85.35488212504424 13.398523985408247,85.00756281265058 13.0,84.31292386481073 14.494464945048094,80.7239491075743 15.291512915864587,78.87157054326963 15.092250922229141,78.29270161362365 16.487084871158004,74.70370757835917 17.981549815740436,71.34625114058144 18.778597786091268,67.6414599501295 19.276752767153084,66.0206099532079 20.07380073843524,64.97863371740095 20.67158671654761,64.39975761214737 20.67158671654761,64.39975761214737" stroke="#4DD2FF" stroke-linecap="round" stroke-linejoin="round" stroke-width="0.5"><title>2025-05-03 5.0km</title><desc>9223370290623713404</desc></polyline><polyline fill="none" points="99.49063049908727,73.34095335094025 98.00170426722616,73.1588312991662 95.1805808795616,73.24989232979715 92.43782202992588,73.24989232979715 89.53833410423249,73.24989232979715 86.48211710061878,73.34095335094025 83.89608732890338,73.24989232979715 81.07496394077316,73.0677702591056 80.36968309432268,73.0677702591056 79.8994958633557,72.61246491823113 79.27257955493405,71.42866993136704 80.36968309432268,68.60576777759707 81.31005755718797,65.7828565845266 82.4071610965766,63.14206051023211 83.34753555897623,60.59231886296766 84.20954548288137,58.13363243261119 84.9148263297975,56.403441574424505 85.62010717671365,55.31068770366255 87.26576248649508,53.1251758983708 88.83305325731635,50.93965867423685 89.93015679670498,49.48264418117469 91.57581210602075,47.66137267800514 93.14310287684202,45.20265017962083 94.31857095519081,42.74392082297709 96.12095534196123,40.28518460789928 97.68824611278251,37.826441534329206 99.41226596059278,35.458756536769215 100.35264042299241,34.09278152970364 101.91993119381368,33.5463909341488 104.6626900434494,33.72852117015282 107.4054488921538,33.63745605701115 110.22657227981836,33.63745605701115 113.12606020597741,33.63745605701115 115.94718359364197,33.5463909341488 118.61157790385187,33.2731955096242 120.3355977521278,33.09106517909095 120.88414952158928,33.2731955096242 121.19760767603293,33.819586274330504 121.19760767603293,34.45704173849663 120.2572332136333,36.82472942699678 119.16012967377901,39.465604345547035 118.14139067288488,41.83327858016128 117.0442871330306,44.56520248652669 116.49573536356911,46.113288941793144 115.71208997769281,47.11499049322447 115.47699636220932,48.48094532015966 114.30152828386053,50.93965867423685 112.96933112898842,53.85368043545168 112.10732120461762,56.31237880361732 111.16694674268365,58.68000778759597 110.22657227981836,61.32081722910516 109.20783327892423,63.4152466779924 108.97273966297507,64.59905242623063 108.34582335501909,65.7828565845266 108.18909427756444,66.60241237853188 107.3270843536593,67.87727543211076 107.3270843536593,68.60576777759707 107.09199073817581,69.33425952144898 106.38670989125967,70.42699600820197 105.99488719832152,71.24654748430476 103.80068011954427,72.70352600532351 102.86030565667897,73.24989232979715 101.91993119381368,73.43201436259551 99.02044326765463,73.34095335094025 96.27768441895023,73.24989232979715 94.94548726361245,73.43201436259551 92.35945749189705,73.24989232979715 89.85179225821048,73.34095335094025 87.34412702498958,73.61413635796634 84.36627456033602,73.61413635796634 82.25043201912194,73.97838023561053 79.9778604018502,73.70519734133268 78.9591214004904,73.0677702591056 78.56729870801792,72.06609819881851 79.66440224740654,69.69850516761653 80.68314124830067,67.33090577763505 81.70188024966046,64.78117624635343 82.6422547120601,62.23143934021937 83.73935825144872,59.590632626554 84.67973271431401,57.31406876514666 86.16865894664079,54.7643102601869 87.89267879445106,52.4877339345403 89.30324048828334,50.393278521543834 91.10562487505376,48.38988173089456 92.59455110738054,45.840097411884926 93.22146741580218,44.9294583676965 94.16184187820181,42.926049158675596 95.80749718751758,40.74050664663082 97.29642341984436,38.46389410091797 98.94207872962579,36.096210815478116 100.19591134600341,34.274911653017625 100.50936950044706,34.00171645404771 101.60647303983569,33.63745605701115 102.70357657922432,33.63745605701115 105.21124181291088,33.5463909341488 108.11072973860428,33.5463909341488 110.696759511251,33.5463909341488 113.59624743741006,33.5463909341488 116.18227720912546,33.45532580220606 118.92503605829552,33.1821303491015 120.49232682911679,33.0 120.96251406054944,33.364260660426226 121.19760767603293,33.819586274330504 121.19760767603293,34.365976700617466 120.2572332136333,36.82472942699678 119.23849421273917,39.465604345547035 119.00340059679002,40.10305572650395 118.68994244234636,40.64944225776708 117.59283890295774,43.290305716975126 116.57409990206361,45.840097411884926 115.39863182371482,48.48094532015966 115.08517366927117,49.48264418117469 114.06643466837704,51.4860384882777 112.96933112898842,54.21793247835012 111.95059212762862,56.67662983038463 110.85348858824,59.317445273685735 109.83474958734587,61.958252805576194 109.20783327892423,63.4152466779924 109.12946874042973,64.0526807399583 108.03236520057544,66.78453578450717 107.5621779691428,67.42196741013322 107.4838134306483,68.15046013216488 107.1703552766703,68.87895225227112 106.70016804523766,69.42532094696071 106.15161627531052,70.88230247807223 104.5059609664604,72.24822047608905 103.33049288811162,72.79458708281163 100.66609857743606,72.9767092098482 97.68824611278251,72.88564815087011 95.1022163410671,73.0677702591056 92.6729156463407,73.24989232979715 89.69506318122149,73.34095335094025 86.79557525506243,73.43201436259551 84.05281640589237,73.43201436259551 81.23169301869348,73.43201436259551 79.9778604018502,72.9767092098482 79.27257955493405,72.15715934225591 79.1158504774794,71.70185353065608 79.19421501643956,71.06442499993136 79.50767317041755,70.6091186243575 79.82113132439554,70.33593468612526 80.52641217131168,67.69515225151554 81.54515117267147,64.78117624635343 82.4071610965766,62.50462579005398 83.50426463596523,59.7727574815508 84.52300363732502,57.04088070685975 86.09029440814629,54.7643102601869 87.57922064047307,52.578797100286465 89.14651141129434,50.393278521543834 90.00852133519948,49.573707657458726 91.65417664451525,47.29711792583112 92.20272841490805,46.84179927385412 92.43782202992588,46.20435276615899 93.14310287684202,45.02052231435664 94.24020641669631,42.561792449618224 95.96422626497224,40.37624903436517 97.60988157428801,38.0996355478419 99.02044326765463,36.00514594686683 100.35264042299241,34.18384659610456 101.76320211729035,33.72852117015282 104.42759642750025,33.63745605701115 107.01362619921565,33.63745605701115 109.52129143290222,33.45532580220606 112.10732120461762,33.5463909341488 114.77171551575884,33.45532580220606 117.35774528747424,33.2731955096242 119.94377505918965,33.0 120.57069136761129,33.0 121.04087859904394,33.1821303491015 121.27597221452743,33.5463909341488 121.43270129198208,34.274911653017625 120.3355977521278,36.91579421114875 119.316858750768,39.19241075520404 118.45484882686287,41.01369975687703 117.51447436399758,43.563498037226964 116.49573536356911,45.93116126436507 115.63372543966398,47.66137267800514 115.08517366927117,49.48264418117469 113.98807012988254,51.75922826828901 112.89096659049392,54.21793247835012 111.79386305063963,57.13194340222981 110.85348858824,59.13532032468356 110.1482077408582,61.59400396118872 109.05110420193523,64.0526807399583 108.03236520057544,66.60241237853188 107.71890704613179,67.148782484408 107.1703552766703,68.97001372510567 106.54343896824867,70.06275066302624 106.46507442975417,70.70017991837813 106.15161627531052,71.24654748430476 105.21124181291088,72.15715934225591 104.8977836589329,72.70352600532351 104.6626900434494,75.2532326222281 104.5059609664604,76.25490106124198 104.6626900434494,76.80126518482575 104.34923188900575,77.98505295725772 104.34923188900575,80.80792507622391 104.34923188900575,83.44866823032498 104.27086735051125,85.36092557641678 104.42759642750025,87.0" stroke="#4DD2FF" stroke-linecap="round" stroke-linejoin="round" stroke-width="0.5"><title>2025-05-02 5.0km</title><desc>9223370290712225619</desc></polyline><polyline fill="none" points="163.2694418709725,34.36710086534731 161.56364611163735,33.68355051195249 159.57355105876923,33.68355051195249 155.02476237062365,35.734201094834134 151.32887155935168,38.81017428310588 148.7701779222116,45.30388486827724 147.63298074901104,55.55708285840228 145.9271849906072,66.15201648091897 145.3585864044726,71.27858353639022 145.64288569707423,73.67097843042575 149.3387765083462,80.84815141209401 150.76027297321707,82.89876904105768 154.74046307615936,84.94938523694873 157.01485742162913,85.63292364939116 162.13224469777197,85.2911544633098 164.69093833584338,84.26584666315466 168.38682914618403,81.18992111622356 170.6612234916538,76.06337137450464 172.082719957456,65.8102450252045 173.50421642232686,56.582400685874745 174.07281500846148,46.6709800043609 173.50421642232686,42.22791848797351 171.2298220777884,38.46839964319952 168.10252985358238,35.734201094834134 163.8380404561758,34.36710086534731 157.01485742162913,35.392426097765565 152.4660687316209,39.49372344184667 149.9073750935495,44.27856310061179 148.48587862867862,51.45580796082504 148.48587862867862,61.70898445765488 147.63298074901104,71.27858353639022 147.63298074901104,76.40514163533226 148.7701779222116,79.48107219696976 152.18176943901926,83.24053850607015 155.30906166415662,84.94938523694873 159.00495247356594,85.63292364939116 164.1223397506401,83.58230793219991 168.38682914618403,80.16461188532412 171.2298220777884,70.25327084120363 173.50421642232686,59.316579811275005 174.35711430199444,55.89885550620966 174.35711430199444,46.6709800043609 172.93561783619225,40.86082128318958 168.10252985358238,35.050651060417295 164.40663904324174,33.34177527576685 159.57355105876923,33.68355051195249 154.74046307615936,36.075976052321494 150.47597368154675,40.86082128318958 147.06438216380775,49.40516836266033 146.49578357674181,55.89885550620966 146.49578357674181,66.4937878975179 146.21148428414017,71.27858353639022 147.91728004347533,77.77222228446044 150.19167438708246,81.5316907807719 155.8776602493599,84.26584666315466 159.57355105876923,84.26584666315466 166.6810333877802,81.87346040527336 168.95542773324996,79.13930229446851 170.37692419812083,75.37983073247597 171.7984206629917,65.4684735306073 173.50421642232686,57.265945706982166 173.78851571585983,47.01275368803181 173.50421642232686,43.25324097275734 172.082719957456,39.49372344184667 169.2397270258516,37.10130068752915 164.40663904324174,34.708875983254984 158.7206531809643,34.708875983254984 154.17186449095607,37.44307548669167 151.61317085288465,40.17727244226262 149.3387765083462,49.063394957920536 148.20157933514565,58.29126293724403 147.3486814564094,68.20264437724836 146.49578357674181,73.32920785131864 148.7701779222116,80.16461188532412 154.17186449095607,84.6076159698423 157.58345600869507,85.63292364939116 164.40663904324174,84.94938523694873 167.2496319739148,82.89876904105768 170.0926249055192,78.45576236862689 171.7984206629917,67.17733060801402 174.35711430199444,56.582400685874745 174.6414135955274,46.6709800043609 174.6414135955274,44.62033706274815 171.7984206629917,38.12662496371195 169.52402631845325,35.734201094834134 163.55374116357416,33.68355051195249 159.00495247356594,34.02532570902258 155.02476237062365,36.417750970693305 152.7503680260852,38.12662496371195 149.9073750935495,43.59501505549997 148.7701779222116,55.21531016845256 147.06438216380775,65.8102450252045 146.21148428414017,74.01274897018448 147.3486814564094,78.11399234645069 153.3189666112885,83.9240773175843 159.00495247356594,87.0 160.7107482329011,87.0 163.8380404561758,86.31646190397441 168.38682914618403,80.84815141209401 170.6612234916538,74.6962899309583 172.082719957456,64.78493042080663 173.21991712972522,54.873537440085784 174.35711430199444,44.96211098553613 173.50421642232686,41.54436996486038 171.51412137039006,38.12662496371195 166.6810333877802,34.708875983254984 159.57355105876923,34.02532570902258 157.8677553012967,34.36710086534731 153.3189666112885,37.44307548669167 149.62307580094784,43.59501505549997 148.7701779222116,45.30388486827724 148.20157933514565,55.89885550620966 147.06438216380775,66.4937878975179 146.21148428414017,71.62035435438156 148.20157933514565,79.82284206128679 153.03466731868684,84.26584666315466 158.15205459389836,85.63292364939116 163.55374116357416,84.6076159698423 168.671128439717,80.50638166884892 171.2298220777884,74.01274897018448 172.082719957456,64.1013871524483 174.07281500846148,53.848219013772905 173.78851571585983,43.25324097275734 172.65131854265928,40.17727244226262 167.5339312683791,35.734201094834134 162.98514257743955,34.36710086534731 160.14214964676648,34.02532570902258 157.2991567151621,34.708875983254984 151.32887155935168,39.49372344184667 147.3486814564094,47.354527331888676 146.49578357674181,57.60771815688349 145.9271849906072,67.51910190470517 147.91728004347533,77.08868203917518 149.9073750935495,80.50638166884892 154.74046307615936,83.58230793219991 160.4264489384368,83.9240773175843 166.39673409517854,80.84815141209401 169.80832561291754,77.08868203917518 171.7984206629917,66.4937878975179 174.35711430199444,56.24062811629847 174.35711430199444,46.3292062797118 174.07281500846148,42.56969268922694 170.6612234916538,38.12662496371195 164.40663904324174,34.36710086534731 160.7107482329011,34.02532570902258 153.60326590575278,37.10130068752915 149.9073750935495,43.25324097275734 148.20157933514565,52.48112722230144 147.06438216380775,55.89885550620966 146.49578357674181,65.4684735306073 145.9271849906072,70.936812678352 147.91728004347533,78.11399234645069 151.04457226675004,82.21522999042645 153.88756519835442,84.26584666315466 159.00495247356594,85.63292364939116 162.41654399130493,84.94938523694873 166.96533268038183,81.87346040527336 169.52402631845325,77.08868203917518 171.2298220777884,66.4937878975179 172.65131854265928,55.89885550620966 174.07281500846148,46.6709800043609 172.36701925005764,40.17727244226262 167.5339312683791,35.392426097765565 162.70084328576922,33.68355051195249 159.28925176803023,34.02532570902258 154.74046307615936,36.75952584948391 150.47597368154675,41.88614424667321 148.48587862867862,52.13935417402536 147.3486814564094,62.7343001361005 146.78008286934346,72.30389587231912 146.78008286934346,76.06337137450464 149.05447721574455,80.84815141209401 154.4561637835577,84.94938523694873 159.57355105876923,85.63292364939116 162.98514257743955,84.94938523694873 168.95542773324996,80.84815141209401 170.6612234916538,75.03806035104208 171.7984206629917,64.78493042080663 172.65131854265928,55.21531016845256 174.35711430199444,48.03807450225577 173.78851571585983,42.9114668504335 171.2298220777884,37.78485024510883 164.69093833584338,34.36710086534731 157.2991567151621,35.050651060417295 151.89747014641762,39.83549796231091 148.48587862867862,47.696300936862826 147.63298074901104,58.29126293724403 146.21148428414017,69.22795778838918 145.9271849906072,74.35451947012916 148.7701779222116,80.16461188532412 152.18176943901926,83.58230793219991 157.58345600869507,84.6076159698423 162.98514257743955,83.58230793219991 167.2496319739148,80.50638166884892 170.0926249055192,74.35451947012916 171.7984206629917,63.75961545784958 173.21991712972522,53.848219013772905 174.07281500846148,44.62033706274815 170.94552278518677,38.46839964319952 168.38682914618403,35.734201094834134 165.54383621551096,34.36710086534731 160.7107482329011,33.0 157.2991567151621,34.36710086534731 151.04457226675004,40.86082128318958 148.48587862867862,50.77226158720441 147.3486814564094,58.29126293724403 145.9271849906072,64.1013871524483 145.3585864044726,72.98743723123334 147.3486814564094,78.45576236862689 149.05447721574455,80.84815141209401 151.04457226675004,82.89876904105768 155.02476237062365,84.6076159698423 161.56364611163735,83.58230793219991 163.55374116357416,82.89876904105768 168.38682914618403,79.13930229446851 170.0926249055192,76.06337137450464 170.94552278518677,66.4937878975179 172.65131854265928,57.265945706982166 174.07281500846148,47.354527331888676 173.78851571585983,41.88614424667321 171.7984206629917,38.46839964319952 167.5339312683791,35.050651060417295 161.84794540517032,33.68355051195249 156.44625883549452,35.392426097765565 152.18176943901926,38.81017428310588 149.62307580094784,43.59501505549997 148.20157933514565,52.82290023029782 147.63298074901104,62.050756390206516 146.21148428414017,65.4684735306073 146.49578357674181,67.17733060801402 145.64288569707423,74.6962899309583 147.3486814564094,79.82284206128679 148.20157933514565,81.5316907807719 150.76027297321707,83.58230793219991 158.15205459389836,85.63292364939116 165.54383621551096,83.24053850607015 168.10252985358238,80.50638166884892 170.37692419812083,71.27858353639022 172.65131854265928,61.36721248459071 174.35711430199444,50.08871505456045 174.6414135955274,43.59501505549997 173.78851571585983,41.20259564346634 170.0926249055192,36.75952584948391 162.13224469777197,34.02532570902258 159.00495247356594,34.02532570902258 156.44625883549452,35.050651060417295 152.18176943901926,38.46839964319952 150.47597368154675,40.86082128318958 147.91728004347533,51.11403479427099 146.49578357674181,61.70898445765488 146.49578357674181,61.70898445765488" stroke="#4DD2FF" stroke-linecap="round" stroke-linejoin="round" stroke-width="0.5"><title>2024-06-05 5.2km</title><desc>9223370319263910188</desc></polyline><polyline fill="none" points="31.755322420038283,132.2279184879735 30.90242473874241,133.5950150550343 28.34373169671744,144.87353743985295 26.922235562466085,151.70898445742205 25.785038655623794,162.987437231699 26.637936335988343,167.08868203964084 28.912330152466893,171.18992111785337 31.755322420038283,174.26584666478448 35.45121237076819,175.9746927979868 39.715700772590935,176.3164619046729 43.69588995072991,175.29115446377546 47.1074806721881,172.89876904152334 50.2347721690312,166.74691185820848 51.65626830328256,156.4937878968194 53.07776443846524,145.55708285886794 54.21496134530753,137.01275368826464 53.64636289142072,132.56969269015826 50.2347721690312,127.10130068776198 48.813276033848524,125.73420109576546 44.8330868575722,124.36710086558014 40.28429922834039,124.70887598302215 36.019810823723674,126.41775097092614 33.17681855522096,129.49372344301082 31.1867239670828,132.91146685183048 29.480928605422378,142.82290022959933 28.05943247117102,152.73430013749748 26.637936335988343,163.67097843135707 27.775133243761957,169.48107219813392 30.333826285786927,172.89876904152334 35.45121237076819,175.9746927979868 39.431401547044516,176.3164619046729 43.12729149591178,175.29115446377546 49.09757526218891,170.16461188485846 51.37196907680482,165.37983073317446 52.224866757169366,155.4684735313058 54.49926057178527,145.89885550783947 55.0678590266034,136.32920628110878 53.64636289142072,131.202595643932 49.95047294255346,126.75952584901825 46.53888221923262,124.70887598302215 42.84299227036536,124.02532570902258 36.58840927761048,125.73420109576546 30.90242473874241,130.86082128365524 28.34373169671744,140.0887150550261 26.922235562466085,150.00012419535778 26.069337882101536,153.75961545854807 25.785038655623794,163.67097843135707 27.490834017284214,169.48107219813392 30.049527058377862,172.89876904152334 34.88261391595006,175.9746927979868 38.86280309315771,177.0 43.12729149591178,176.3164619046729 46.53888221923262,173.9240773182828 49.381874488666654,170.5063816695474 51.65626830328256,164.6962899316568 52.79346521012485,154.44315880723298 54.49926057178527,146.92417321680114 55.35215825308114,137.01275368826464 53.93066211882979,131.202595643932 49.666173715144396,126.41775097092614 46.254582991823554,124.70887598302215 41.990094589069486,124.02532570902258 37.44130695797503,125.05065105995163 33.74541700910777,127.4430754869245 29.196629378944635,134.62033706344664 27.206534790806472,144.5317646714393 26.069337882101536,154.44315880723298 25.50073942914605,164.35451947152615 29.196629378944635,171.53169078170322 35.73551159631461,175.9746927979868 39.715700772590935,176.65823097270913 43.41159072332084,175.6329236512538 48.24467758089304,172.55699953599833 51.087669850327075,167.43045218242332 52.50916598364711,156.83555927313864 54.21496134530753,145.89885550783947 54.78355980012566,140.43048834102228 55.35215825308114,137.01275368826464 54.21496134530753,131.88614424597472 51.37196907680482,127.4430754869245 46.82318144571036,125.05065105995163 41.421496134251356,124.02532570902258 37.725606185384095,124.70887598302215 30.618125514127314,130.86082128365524 28.912330152466893,133.9367890979629 27.775133243761957,143.16467319824733 26.637936335988343,152.39252828457393 26.069337882101536,161.9621251344215 26.922235562466085,167.7722222842276 31.755322420038283,173.5823079328984 36.58840927761048,175.9746927979868 42.27439381554723,175.29115446377546 45.40168531052768,173.9240773182828 49.09757526218891,169.48107219813392 51.37196907680482,161.6203543562442 52.79346521012485,151.70898445742205 54.21496134530753,141.7975810887292 54.49926057178527,133.9367890979629 53.07776443846524,129.83549796277657 48.813276033848524,125.73420109576546 45.11738608498126,124.02532570902258 40.56859845388681,124.02532570902258 36.58840927761048,125.73420109576546 32.03962164744735,129.83549796277657 28.628030924126506,139.40516836405732 26.922235562466085,149.31657981243916 26.069337882101536,158.88618669169955 25.785038655623794,164.6962899316568 27.775133243761957,170.16461188485846 31.755322420038283,174.26584666478448 36.304110050201416,176.3164619046729 40.00000000093132,176.65823097270913 43.69588995072991,175.9746927979868 48.24467758089304,172.55699953599833 50.2347721690312,169.139302295167 51.9405675297603,161.27858353685588 52.79346521012485,151.70898445742205 53.64636289142072,141.7975810887292 54.21496134530753,134.27856310107745 52.224866757169366,128.81017428264022 47.960378353483975,125.39242609823123 43.12729149591178,124.02532570902258 39.431401547044516,124.36710086558014 34.598314688540995,126.75952584901825 29.196629378944635,133.5950150550343 26.922235562466085,144.5317646714393 25.50073942914605,154.78493042220362 24.64784174785018,161.9621251344215 25.216440200805664,165.37983073317446 28.05943247117102,170.84815141395666 31.1867239670828,173.9240773182828 35.166913143359125,175.9746927979868 41.137196907773614,176.65823097270913 47.676079127937555,172.89876904152334 51.65626830328256,167.08868203964084 53.07776443846524,157.1773306101095 54.49926057178527,146.58240068610758 54.78355980012566,137.01275368826464 54.78355980012566,133.25324097345583 52.224866757169366,128.1266249648761 48.24467758089304,124.70887598302215 42.84299227036536,123.0 39.14710231963545,123.68355051288381 32.32392087392509,128.1266249648761 30.049527058377862,131.202595643932 27.775133243761957,140.43048834102228 25.785038655623794,151.02544047194533 24.64784174785018,161.27858353685588 26.3536371095106,167.08868203964084 29.196629378944635,171.18992111785337 33.461117781698704,173.9240773182828 35.73551159631461,174.9493852367159 41.137196907773614,174.9493852367159 45.40168531052768,173.24053850769997 48.813276033848524,170.16461188485846 50.80337062384933,166.0633713756688 52.224866757169366,154.78493042220362 52.50916598364711,144.87353743985295 53.93066211882979,135.3038848694414 52.50916598364711,130.17727244226262 50.2347721690312,127.10130068776198 44.26448840461671,124.36710086558014 40.28429922834039,124.36710086558014 34.31401546206325,127.10130068776198 30.333826285786927,132.2279184879735 27.775133243761957,140.43048834102228 27.206534790806472,144.5317646714393 25.785038655623794,154.1013871524483 24.932140974327922,163.67097843135707 26.922235562466085,169.48107219813392 31.1867239670828,173.9240773182828 34.88261391595006,175.9746927979868 40.85289768129587,176.65823097270913 45.68598453886807,174.26584666478448 49.666173715144396,170.5063816695474 51.9405675297603,165.03806035174057 52.79346521012485,155.12670199666172 54.21496134530753,145.55708285886794 54.78355980012566,136.32920628110878 53.64636289142072,130.86082128365524 48.813276033848524,125.05065105995163 44.8330868575722,123.68355051288381 40.85289768129587,123.68355051288381 36.872708505019546,125.05065105995163 32.32392087392509,128.81017428264022 28.912330152466893,135.3038848694414 26.922235562466085,144.5317646714393 25.785038655623794,155.81024502567016 25.216440200805664,162.987437231699 25.785038655623794,166.4051416371949 30.333826285786927,172.89876904152334 34.31401546206325,175.6329236512538 37.15700773149729,176.3164619046729 39.431401547044516,176.3164619046729" stroke="#4DD2FF" stroke-linecap="round" stroke-linejoin="round" stroke-width="0.5"><title>2024-06-03 4.1km</title><desc>9223370319435416669</desc></polyline><polyline fill="none" points="90.01793825626373,128.00004279683344 89.74065876286477,132.66674152598716 87.79970231093466,139.00010620476678 86.6905843410641,150.3334606536664 85.30418687593192,161.3334382364992 85.85874586179852,165.3334196030628 87.52242281939834,169.33339538169093 92.23617419879884,174.0000267245341 96.39536659233272,175.3333485685289 98.33632304240018,175.3333485685289 104.71375137846917,172.66670426074415 107.76382580026984,169.6667264434509 110.25934123713523,163.66676138015464 111.64573870040476,153.00012576719746 113.03213616553694,142.00011616107076 112.47757717967033,131.66673529543914 111.92301819473505,129.00005030748434 111.09117971546948,127.33337092748843 103.88191290013492,123.0 100.55455898493528,123.0 95.56352811306715,125.33335439185612 90.84977673366666,128.33337867213413 89.18609977606684,130.6667287161108 86.6905843410641,141.00011319108307 86.13602535519749,151.3334603619296 85.02690738346428,160.33344202069566 85.30418687593192,166.00008262158372 89.46337926853448,172.33337354683317 93.89985115546733,176.0000092573464 99.16816152073443,177.0 104.4364718850702,175.3333485685289 107.20926681533456,173.00003493460827 110.53662072960287,167.66673948662356 113.03213616553694,157.66678373795003 114.69581312313676,148.33346018800512 115.527651601471,139.00010620476678 114.9730926156044,133.6667474070564 113.58669515233487,130.33339311252348 109.42750275786966,126.00002672616392 103.60463340766728,124.33334559993818 97.78176405653358,124.33334559993818 96.11808709893376,125.00001816614531 90.01793825626373,130.33339311252348 87.52242281939834,138.33343689749017 87.79970231093466,144.6667890381068 86.6905843410641,150.3334606536664 85.85874586179852,151.66679352056235 84.47234839759767,161.3334382364992 85.02690738346428,166.6667454834096 90.01793825626373,173.00003493460827 93.34529217053205,175.3333485685289 99.16816152073443,176.66666979086585 102.77279492840171,176.0000092573464 107.4865463078022,172.33337354683317 110.53662072960287,167.00007685716264 112.20029768720269,157.66678373795003 114.41853363066912,147.3334594303742 115.25037210900337,138.00010218680836 114.9730926156044,133.6667474070564 112.20029768720269,128.33337867213413 107.20926681533456,124.33334559993818 103.60463340766728,123.33333645854145 99.44544101506472,123.6666728775017 91.40433572046459,129.00005030748434 88.63154079113156,135.6667581202928 88.07698180526495,145.00012297276407 85.85874586179852,154.66679020226002 85.02690738346428,162.33343410119414 86.6905843410641,168.0000707441941 90.01793825626373,172.33337354683317 94.45441014133394,175.0000181661453 98.05904354993254,175.6666789315641 103.32735391519964,174.6666877239477 107.4865463078022,171.3333811738994 110.25934123713523,166.6667454834096 111.64573870040476,157.33345127874054 113.03213616553694,148.33346018800512 113.58669515233487,137.666767437011 113.03213616553694,132.33340615429915 111.64573870040476,128.66671450971626 107.20926681533456,125.33335439185612 101.94095645099878,123.6666728775017 96.67264608480036,125.00001816614531 90.84977673366666,129.66672178753652 88.07698180526495,138.66677157045342 87.24514332599938,147.66679305536672 86.13602535519749,158.3334485415835 85.85874586179852,165.3334196030628 87.52242281939834,169.33339538169093 91.95889470539987,173.66669616708532 97.22720507066697,175.6666789315641 102.49551543593407,175.0000181661453 105.82286935020238,173.3333655698225 108.59566427953541,170.33338845334947 110.25934123713523,166.6667454834096 111.36845920793712,156.6667862420436 113.03213616553694,147.3334594303742 113.86397464480251,138.00010218680836 112.7548566730693,131.0000642822124 109.42750275786966,126.66669890494086 106.10014884267002,124.66668190225028 100.55455898493528,124.00000925874338 95.28624862059951,126.00002672616392 91.1270562261343,129.66672178753652 88.07698180526495,138.33343689749017 86.96786383353174,147.66679305536672 85.85874586179852,156.6667862420436 86.13602535519749,158.3334485415835 85.30418687593192,162.00010218494572 86.6905843410641,167.66673948662356 91.1270562261343,173.3333655698225 95.28624862059951,175.3333485685289 100.27727949246764,176.0000092573464 103.60463340766728,175.0000181661453 107.76382580026984,171.66671200376004 110.25934123713523,166.6667454834096 111.36845920793712,157.33345127874054 112.7548566730693,147.66679305536672 112.47757717967033,143.33345290995203 113.30941565800458,139.3334407992661 112.7548566730693,133.00007685902528 109.42750275786966,128.00004279683344 106.10014884267002,125.66669057798572 100.55455898493528,124.66668190225028 96.67264608480036,125.66669057798572 90.57249724119902,130.6667287161108 88.9088202835992,134.00008262251504 87.79970231093466,143.33345290995203 86.6905843410641,153.00012576719746 85.58146636839956,162.33343410119414 87.24514332599938,168.0000707441941 89.46337926853448,171.66671200376004 92.23617419879884,174.33335724310018 97.50448456313461,176.0000092573464 101.38639746326953,175.6666789315641 107.4865463078022,171.3333811738994 109.98206174466759,166.3334140717052 111.09117971546948,157.33345127874054 112.20029768720269,148.00012664147653 113.03213616553694,137.666767437011 113.03213616553694,133.6667474070564 110.53662072960287,128.66671450971626 106.10014884267002,125.33335439185612 100.83183847833425,124.66668190225028 96.11808709893376,126.00002672616392 91.68161521293223,130.0000574698206 88.9088202835992,135.00008803792298 87.52242281939834,144.6667890381068 86.6905843410641,154.0001245441381 86.13602535519749,164.6667564297095 88.07698180526495,169.6667264434509 91.68161521293223,174.0000267245341 96.94992557819933,176.0000092573464 102.2182359425351,175.3333485685289 106.9319873219356,172.66670426074415 109.98206174466759,167.66673948662356 111.92301819473505,158.66678088484332 113.58669515233487,149.33346059522592 114.41853363066912,145.6667907270603 114.14125413727015,136.33342804713175 113.03213616553694,131.33339980826713 109.70478225219995,127.00003493553959 105.26831036433578,124.00000925874338 103.32735391519964,123.33333645854145 99.72272050566971,124.00000925874338 94.17713064793497,126.66669890494086 89.74065876286477,131.66673529543914 87.24514332599938,139.6667753555812 86.41330484766513,148.66679369541816 85.58146636839956,159.3334454561118 85.30418687593192,161.3334382364992 86.6905843410641,167.33340819110163 90.01793825626373,172.33337354683317 95.84080760553479,175.3333485685289 99.44544101506472,175.6666789315641 102.77279492840171,174.6666877239477 106.9319873219356,172.00004279450513 109.98206174466759,167.66673948662356 111.36845920793712,158.3334485415835 112.47757717967033,148.00012664147653 113.58669515233487,137.3334326473996 113.03213616553694,132.00007074489258 109.98206174466759,127.66670688148588 104.4364718850702,124.33334559993818 99.44544101506472,124.33334559993818 94.45441014133394,126.66669890494086 91.68161521293223,129.00005030748434 88.63154079113156,136.33342804713175 87.52242281939834,145.6667907270603 86.41330484766513,155.0001229722984 85.30418687593192,161.00010620290413 85.58146636839956,163.33342961850576 89.18609977606684,170.66671939892694 94.17713064793497,174.6666877239477 96.11808709893376,175.3333485685289 103.05007442086935,174.33335724310018 106.65470783039927,172.00004279450513 109.70478225219995,167.33340819110163 111.36845920793712,157.00011878064834 112.20029768720269,147.66679305536672 113.58669515233487,136.66676295385696 113.58669515233487,135.3334230990149" stroke="#4DD2FF" stroke-linecap="round" stroke-linejoin="round" stroke-width="0.5"><title>2024-06-02 4.3km</title><desc>9223370319521430187</desc></polyline><polyline fill="none" points="149.7527861604467,127.72504016710445 148.62980382237583,135.15008772257715 149.47204057499766,137.51259886543266 148.91054940689355,147.63762480416335 148.06831265240908,157.42511625564657 147.2260758979246,162.15010029869154 147.50682148337364,164.51258943136781 150.87576849851757,170.58755264431238 153.9639699300751,172.9500349003356 158.17515369970351,173.96252670534886 162.38633746933192,173.2875322077889 164.63230214547366,172.27504016668536 166.31677565351129,170.58755264431238 169.68572266958654,163.83759273262694 171.37019617762417,152.7001245096326 171.65094176214188,147.63762480416335 173.05466968659312,138.18760169530287 172.77392410114408,133.12507663993165 171.08945059217513,129.07505022897385 167.4397579934448,125.70002389559522 162.94782863836735,124.01250925543718 154.80620668455958,125.70002389559522 153.40247876103967,127.05003490066156 149.47204057499766,133.12507663993165 148.34905823785812,142.57511625718325 147.50682148337364,151.68762527615763 146.10309355985373,160.80010564439 147.2260758979246,165.18758597341366 148.91054940689355,168.90006414009258 153.12173317652196,172.6125375526026 155.08695226814598,173.2875322077889 159.57888162322342,173.96252670534886 164.07081097736955,172.27504016668536 165.75528448540717,171.26254777098075 168.56274033151567,167.5500726304017 169.96646825503558,162.82509739114903 170.527959424071,153.71262338990346 172.49317851662636,143.92511940049008 173.3354152701795,138.52510305168107 174.73914319463074,137.51259886543266 173.3354152701795,132.1125705682207 169.96646825503558,127.72504016710445 166.31677565351129,124.68751522991806 163.79006539285183,124.01250925543718 161.26335513032973,124.35001226165332 156.4906801916659,126.0375267053023 152.2794964229688,128.40004527638666 149.7527861604467,132.78757465467788 148.34905823785812,143.92511940049008 147.78756706696004,154.3876224460546 146.6645847298205,162.48759886459447 148.91054940689355,168.90006414009258 150.31427732948214,170.92505022743717 154.2447155136615,173.625029475661 159.01739045232534,174.6375210462138 161.26335513032973,174.6375210462138 165.47453889995813,172.27504016668536 168.56274033151567,168.90006414009258 169.40497708600014,166.53757858416066 170.527959424071,155.7376200875733 171.08945059217513,145.27512191678397 172.77392410114408,137.85010030050762 172.49317851662636,132.78757465467788 170.527959424071,128.40004527638666 169.12423150148243,126.37502947659232 167.15901240799576,125.0250181579031 159.85962720680982,123.67500620917417 157.61366252973676,124.01250925543718 154.2447155136615,126.37502947659232 151.1565140830353,130.0875573621597 149.47204057499766,134.4750841858331 148.62980382237583,143.92511940049008 148.06831265240908,153.03762417519465 146.6645847298205,161.81260169413872 147.50682148337364,165.86258235690184 151.1565140830353,171.26254777098075 154.80620668455958,173.2875322077889 159.01739045232534,174.6375210462138 162.94782863836735,173.2875322077889 166.59752123896033,170.92505022743717 169.12423150148243,166.87507663900033 170.2472138395533,157.42511625564657 171.08945059217513,146.62512380233966 173.3354152701795,136.16259273397736 171.37019617762417,129.07505022897385 168.56274033151567,126.0375267053023 164.3515565628186,124.01250925543718 159.85962720680982,123.33750312402844 155.92918902169913,124.68751522991806 152.5602420065552,127.38753755390644 150.59502291493118,131.437566322973 148.34905823785812,139.8751080816146 147.50682148337364,151.0126255908981 146.9453303143382,160.80010564439 147.2260758979246,165.18758597341366 148.91054940689355,169.57505966094323 155.08695226814598,173.625029475661 159.29813603777438,174.97501815692522 165.19379331637174,171.93754274141975 168.28199474699795,168.56256632204168 170.2472138395533,159.78760924004018 171.08945059217513,150.67512568854727 172.49317851662636,139.53760688286275 172.49317851662636,132.78757465467788 170.80870500858873,128.7375477727037 167.15901240799576,125.36252104653977 160.7018639612943,123.67500620917417 158.73664486967027,123.67500620917417 153.40247876103967,127.38753755390644 150.03353174589574,132.78757465467788 148.34905823785812,143.58761867391877 146.9453303143382,154.05012293742038 146.6645847298205,164.17509110225365 148.34905823785812,167.88757056649774 151.99875083751976,172.6125375526026 158.45589928422123,174.6375210462138 160.7018639612943,174.30002389592119 166.31677565351129,170.25005502230488 168.0012491615489,168.56256632204168 169.40497708600014,164.17509110225365 170.527959424071,154.72512191464193 172.21243293210864,143.58761867391877 173.3354152701795,135.15008772257715 171.37019617762417,129.07505022897385 168.28199474699795,125.70002389559522 164.3515565628186,123.67500620917417 160.14037279225886,123.0 156.20993460714817,124.01250925543718 151.43725966848433,128.7375477727037 149.47204057499766,132.78757465467788 147.78756706696004,143.25011790753342 146.9453303143382,154.05012293742038 146.10309355985373,161.81260169413872 148.06831265240908,167.5500726304017 150.87576849851757,170.92505022743717 155.64844343811274,173.96252670534886 160.7018639612943,175.3125152294524 166.03603006899357,172.27504016668536 168.8434859160334,168.90006414009258 171.08945059217513,158.43761348514818 172.77392410114408,147.63762480416335 173.89690644014627,137.85010030050762 173.3354152701795,132.1125705682207 170.527959424071,126.37502947659232 164.9130477309227,123.33750312402844 161.26335513032973,123.0 155.64844343811274,124.35001226165332 151.43725966848433,128.40004527638666 149.47204057499766,131.77506846562028 148.34905823785812,141.56261348584667 147.2260758979246,151.35012545366772 146.10309355985373,161.13760436652228 147.2260758979246,167.21257465495728 149.7527861604467,170.92505022743717 154.52546109911054,174.30002389592119 158.45589928422123,174.97501815692522 162.10559188574553,173.96252670534886 166.87826682440937,170.58755264431238 169.12423150148243,167.21257465495728 171.08945059217513,157.42511625564657 171.9316873466596,147.30012450995855 173.3354152701795,137.17509739100933 172.77392410114408,132.78757465467788 171.37019617762417,129.07505022897385 167.4397579934448,124.68751522991806 163.5093198083341,123.0 159.01739045232534,123.33750312402844 156.4906801916659,124.35001226165332 151.43725966848433,129.7500550239347 149.7527861604467,134.13758235890418 148.62980382237583,143.92511940049008 147.2260758979246,152.7001245096326 146.6645847298205,160.80010564439 147.78756706696004,166.53757858416066 149.7527861604467,169.91255736141466 154.52546109911054,173.2875322077889 158.17515369970351,173.96252670534886 163.5093198083341,172.9500349003356 168.0012491615489,169.57505966094323 169.96646825503558,163.5000943245832 171.08945059217513,153.03762417519465 171.9316873466596,144.60012073768303 173.05466968659312,140.550110361306 171.9316873466596,130.42505966080353 169.96646825503558,127.38753755390644 166.87826682440937,124.68751522991806 163.22857422288507,123.67500620917417 159.29813603777438,123.67500620917417 152.84098759107292,127.05003490066156 150.59502291493118,129.7500550239347 148.62980382237583,139.8751080816146 147.78756706696004,150.33762574754655 145.54160238988698,159.45011036051437 145.54160238988698,163.5000943245832 147.78756706696004,168.90006414009258 150.31427732948214,171.6000452756416 157.05217136163265,173.96252670534886 161.26335513032973,173.96252670534886 164.9130477309227,171.93754274141975 168.0012491615489,169.23756192042492 169.40497708600014,165.18758597341366 171.37019617762417,155.40012073563412 172.77392410114408,145.9501229377929 172.77392410114408,135.48758943355642 172.77392410114408,133.46257858583704 170.2472138395533,127.72504016710445 167.4397579934448,125.0250181579031 162.94782863836735,123.33750312402844 158.73664486967027,124.01250925543718 154.80620668455958,125.70002389559522 150.03353174589574,130.42505966080353 147.50682148337364,138.52510305168107 146.9453303143382,148.98762559029274 145.54160238988698,159.45011036051437 145.54160238988698,163.16259587742388 146.6645847298205,167.21257465495728 150.31427732948214,171.93754274141975 157.33291694615036,175.98750925576314 162.94782863836735,177.0 164.9130477309227,175.65001226193272 168.8434859160334,169.57505966094323 171.37019617762417,158.7751124824863 173.3354152701795,148.98762559029274 173.89690644014627,138.86260436824523 173.89690644014627,133.12507663993165 172.49317851662636,129.07505022897385 169.68572266958654,126.0375267053023 163.79006539285183,123.67500620917417 157.8944081151858,124.01250925543718 154.2447155136615,125.36252104653977 150.03353174589574,129.07505022897385 147.50682148337364,140.21260924148373 146.10309355985373,149.66262574773282 145.26085680630058,159.11261144047603 145.26085680630058,161.81260169413872 147.2260758979246,167.21257465495728 150.03353174589574,170.58755264431238 154.2447155136615,173.625029475661 158.73664486967027,174.6375210462138 163.22857422288507,173.625029475661 166.87826682440937,170.92505022743717" stroke="#4DD2FF" stroke-linecap="round" stroke-linejoin="round" stroke-width="0.5"><title>2024-05-28 4.9km</title><desc>9223370319956977916</desc></polyline><polyline fill="none" points="49.732507932931185,267.0 48.23519901931286,266.28000620543025 49.732507932931185,255.8400773264002 51.52927862852812,243.60011581145227 53.625511107966304,231.7201068191789 54.52389645576477,224.1600773271639 53.92497288994491,221.6400633866433 52.427663976326585,219.1200473944191 50.331431498751044,216.96003205049783 44.941119411960244,214.44001224078238 39.5508073233068,213.36000312282704 32.36372454278171,216.6000293456018 30.267492063343525,218.76004494121298 27.871797803789377,227.0400907418225 26.374488892033696,237.84011715254746 25.775565326213837,247.9201077616308 25.47610354423523,252.6000922296662 26.673950674012303,257.64006757945754 29.968030283227563,262.32003733259626 34.45995702035725,265.2000151979737 39.5508073233068,266.28000620543025 46.438428323715925,263.7600265997462 49.43304615095258,260.8800473934971 51.52927862852812,253.32008921145461 52.72712576016784,243.24011621042155 53.625511107966304,233.1601103397552 54.22443467192352,223.080071604345 52.12820219434798,218.76004494121298 50.331431498751044,216.6000293456018 44.941119411960244,214.0800092436839 39.5508073233068,213.7200062039774 32.36372454278171,216.6000293456018 28.770183151587844,223.080071604345 27.572336019948125,232.80010952311568 26.97341245599091,234.9601137994323 26.075027108192444,244.68011436495 25.775565326213837,254.76008267118596 27.572336019948125,259.4400567840785 31.465339194983244,263.4000293458812 36.256727715954185,265.5600122420583 41.048116236925125,265.92000924423337 47.037351889535785,262.6800347128883 49.732507932931185,259.0800590272993 50.93035506270826,254.76008267118596 52.427663976326585,243.60011581145227 53.32604932412505,231.7201068191789 54.22443467192352,224.52007915033028 52.72712576016784,220.200054500252 49.43304615095258,216.6000293456018 44.941119411960244,214.44001224078238 37.75403662957251,214.0800092436839 35.65780415199697,214.8000151971355 31.76480097696185,217.6800373326987 28.470721369609237,223.80007546115667 27.572336019948125,234.9601137994323 26.374488892033696,245.40011319122277 25.47610354423523,254.4000843691174 26.97341245599091,259.0800590272993 30.566953847184777,263.04003205057234 37.75403662957251,265.92000924423337 42.54542515054345,265.5600122420583 46.438428323715925,263.7600265997462 48.83412258513272,260.5200498045888 50.63089328072965,256.5600735526532 51.52927862852812,245.04011379857548 52.427663976326585,235.32011436508037 53.92497288994491,224.1600773271639 52.12820219434798,219.48004980455153 48.53466080315411,215.880023811711 44.04273406416178,214.0800092436839 39.5508073233068,213.7200062039774 35.35834236815572,215.16001811088063 32.0642627608031,218.0400399104692 29.06964493356645,224.1600773271639 27.572336019948125,234.9601137994323 26.075027108192444,245.76011254172772 25.176641760393977,254.4000843691174 26.673950674012303,259.0800590272993 29.968030283227563,263.04003205057234 36.256727715954185,266.6400031237863 38.65242197737098,267.0 45.2405811958015,265.2000151979737 49.43304615095258,260.8800473934971 51.22981684654951,256.5600735526532 51.52927862852812,245.04011379857548 51.82874041236937,236.04011537204497 53.92497288994491,225.96008602483198 53.026587542146444,221.28006122843362 50.03196971490979,217.32003471208736 43.74327228218317,213.7200062039774 37.4545748475939,214.0800092436839 33.561571672558784,216.2400265992619 29.36910671554506,221.6400633866433 27.572336019948125,233.52011111634783 25.775565326213837,244.68011436495 25.47610354423523,255.8400773264002 27.272874239832163,260.16005217377096 30.866415629163384,264.12002381216735 35.35834236815572,266.28000620543025 40.149730890989304,267.0 46.13896654359996,264.4800209822133 48.83412258513272,261.2400449409615 50.63089328072965,257.2800696119666 51.52927862852812,252.96009074221365 52.12820219434798,241.44011757196859 53.92497288994491,230.64010373759083 54.22443467192352,225.96008602483198 53.026587542146444,220.92005902691744 50.03196971490979,217.32003471208736 45.83950475975871,214.44001224078238 41.34757802076638,213.7200062039774 38.951883759349585,213.7200062039774 32.96264810860157,217.32003471208736 30.267492063343525,220.92005902691744 27.572336019948125,227.76009367662482 26.075027108192444,236.760116210673 26.673950674012303,241.44011757196859 25.47610354423523,252.24009367567487 25.775565326213837,256.92007160396315 28.17125958763063,261.6000424469821 31.76480097696185,264.4800209822133 36.256727715954185,266.6400031237863 40.44919267296791,267.0 46.438428323715925,264.4800209822133 49.133584367111325,260.8800473934971 52.427663976326585,249.72010262613185 53.32604932412505,247.56010866258293 52.72712576016784,242.52011688007042 54.22443467192352,231.36010583443567 54.82335823774338,224.52007915033028 54.22443467192352,222.3600675801281 50.331431498751044,216.2400265992619 47.037351889535785,213.7200062039774 44.941119411960244,213.0 37.75403662957251,214.44001224078238 33.86103345640004,216.96003205049783 30.866415629163384,220.200054500252 28.17125958763063,230.64010373759083 26.374488892033696,241.44011757196859 25.176641760393977,252.96009074221365 25.775565326213837,257.64006757945754 28.17125958763063,261.6000424469821 31.76480097696185,264.84001811081544 41.34757802076638,266.28000620543025 47.33681367151439,263.04003205057234 49.43304615095258,259.4400567840785 50.63089328072965,255.48007915052585 51.82874041236937,244.32011488848366 52.72712576016784,233.1601103397552 53.625511107966304,230.64010373759083 53.625511107966304,230.64010373759083" stroke="#4DD2FF" stroke-linecap="round" stroke-linejoin="round" stroke-width="0.5"><title>2024-04-08 3.0km</title><desc>9223370324277236884</desc></polyline><polyline fill="none" points="87.99327688664198,258.16987970122136 87.99327688664198,259.8679818348028 89.12332141492516,262.24532316066325 91.10089933872223,263.94342292216606 93.36098839621991,264.9622823037207 97.88116651028395,265.98114133020863 102.68385575618595,265.3019020180218 108.89910066127777,260.8868426408153 110.02914519049227,259.1887411007192 111.44170085061342,254.4340515276417 110.87667858600616,247.64162440481596 112.5717453788966,238.1321998552885 113.41927877534181,228.28312031319365 113.13676764350384,223.52838035440072 110.02914519049227,217.4151318720542 106.63901160564274,215.37737953127362 100.42376669868827,215.0377540020272 93.92601065989584,217.4151318720542 90.81838820781559,220.81138261058368 89.12332141492516,224.88687827647664 87.42825462296605,235.0755925225094 86.58072122652084,246.28313708025962 86.8632323583588,257.15101794642396 89.12332141492516,261.2264628307894 94.77354405727237,264.9622823037207 96.75112198106945,265.6415216939058 102.68385575618595,264.9622823037207 106.07398934010416,262.58494319207966 109.74663405772299,257.15101794642396 112.85425651073456,246.6227589712944 115.11434556823224,237.11333109950647 115.11434556823224,227.60387222189456 114.83183443639427,223.18875577487051 112.5717453788966,218.43400750937872 110.5941674541682,216.3962558801286 105.79147820919752,214.01887718006037 100.70627783052623,213.0 98.16367764212191,213.6792514922563 93.64349952805787,216.3962558801286 88.8408102830872,222.50950649613515 87.14574349019676,226.5849997883197 85.16816556546837,237.79257697588764 85.16816556546837,248.32086782786064 85.73318783007562,255.45291423029266 86.29821009375155,257.49063857039437 89.40583254676312,261.56608298025094 95.05605518817902,265.3019020180218 99.0112110376358,266.660380482208 103.24887801986188,266.32076092623174 108.6165895294398,259.8679818348028 110.87667858600616,254.09443054674193 113.70178990717977,243.56616053706966 114.26681217178702,233.37747595249675 113.70178990717977,222.84913115529343 108.89910066127777,213.6792514922563 101.27130009513348,213.0 96.46861084923148,214.69812843413092 90.81838820781559,218.77363264304586 87.99327688664198,224.88687827647664 86.29821009375155,235.0755925225094 85.45067669730633,245.26427117432468 84.60314330086112,251.37746127904393 85.73318783007562,257.83025915618055 90.53587707597762,263.26418313616887 98.44618877395988,267.0 100.42376669868827,267.0 107.48654500115663,263.26418313616887 111.15918971784413,258.16987970122136 112.85425651073456,247.64162440481596 115.3968567000702,237.79257697588764 115.11434556823224,227.60387222189456 113.70178990717977,221.83025706070475 111.72421198245138,218.0943823370617 106.92152273841202,214.35850282688625 100.70627783052623,213.33962576650083 96.46861084923148,214.69812843413092 90.81838820781559,219.45288278977387 88.8408102830872,224.20762939355336 87.71076575387269,234.0567227001302 86.8632323583588,239.83031365601346 86.01569896191359,250.35859715146944 86.58072122652084,256.47177657904103 88.27578801941127,260.5472224110272 91.10089933872223,263.60380304954015 96.46861084923148,265.98114133020863 102.11883349251002,265.98114133020863 106.63901160564274,263.60380304954015 109.18161179404706,260.5472224110272 111.44170085061342,249.6793542020023 113.41927877534181,239.490690974053 114.26681217178702,229.6416160208173 113.41927877534181,220.47175771533512 112.00672311428934,218.77363264304586 106.92152273841202,215.37737953127362 102.96636688802391,214.01887718006037 98.44618877395988,214.69812843413092 94.2085217917338,216.7358812505845 91.10089933872223,221.15100746764801 88.8408102830872,231.0001110949088 87.42825462296605,241.52842646744102 85.73318783007562,251.37746127904393 85.73318783007562,254.09443054674193 87.14574349019676,258.849120674422 90.25336594320834,262.92456318368204 94.49103292450309,265.3019020180218 99.0112110376358,266.32076092623174 102.96636688802391,265.6415216939058 104.9439448127523,264.6226625496056 108.05156726483256,261.2264628307894 110.87667858600616,254.4340515276417 112.85425651073456,245.26427117432468 115.11434556823224,234.39634601329453 114.54932330362499,225.56612700037658 113.41927877534181,220.81138261058368 110.31165632233024,217.4151318720542 104.9439448127523,214.01887718006037 100.70627783052623,213.6792514922563 96.75112198106945,214.69812843413092 91.6659216042608,219.11325773620047 89.68834367953241,222.84913115529343 88.27578801941127,234.0567227001302 87.14574349019676,243.56616053706966 86.01569896191359,253.41518846689723 87.14574349019676,259.1887411007192 89.68834367953241,262.92456318368204 93.36098839621991,264.9622823037207 97.88116651028395,265.98114133020863 102.40134462341666,265.6415216939058 107.20403386838734,261.9057030901313 110.31165632233024,255.113293368835 112.28923424705863,245.9435151515063 113.98430103994906,234.73596928780898 114.54932330362499,225.56612700037658 113.13676764350384,221.15100746764801 108.33407839760184,216.05663047009148 104.37892254907638,214.35850282688625 97.59865537751466,215.37737953127362 93.64349952805787,217.75475712423213 90.53587707597762,221.490632283967 87.99327688664198,231.0001110949088 86.58072122652084,241.86804891144857 85.16816556546837,252.0567038343288 85.16816556546837,255.79253505310044 86.29821009375155,258.849120674422" stroke="#4DD2FF" stroke-linecap="round" stroke-linejoin="round" stroke-width="0.5"><title>2024-03-31 3.1km</title><desc>9223370324967953336</desc></polyline><polyline fill="none" points="166.84200881049037,264.496709730709 169.51931660622358,262.351030732505 171.00670982711017,259.84773667366244 172.19662440009415,250.90738408989273 173.68401762098074,239.8213107404299 174.5764535535127,226.94711082126014 174.5764535535127,224.08617017534561 173.68401762098074,221.2252268642187 172.19662440009415,218.72189928242005 170.11427389457822,216.93380690156482 164.7596583031118,214.43047582055442 156.7277349177748,215.14571348042227 154.34790576435626,216.57618830096908 151.07564068213105,221.2252268642187 149.5882474631071,231.95375053654425 148.10085424408317,242.32462112489156 146.31598237901926,252.3378422537353 146.01850373484194,255.1987565786112 147.2084183115512,260.20535023510456 148.69581153057516,262.351030732505 150.77816203795373,264.13909666775726 155.83529898524284,265.9271615622565 161.4873932208866,265.9271615622565 165.94957287982106,263.7814835635945 169.22183796204627,260.20535023510456 170.11427389457822,257.70205442700535 171.00670982711017,247.6888507900294 172.19662440009415,238.03323064674623 173.68401762098074,228.01996287540533 173.38653897680342,222.65569885331206 170.7092311810702,218.36428088904358 166.54453016631305,215.50333224749193 161.4873932208866,214.43047582055442 159.1075640693307,214.78809467121027 154.34790576435626,216.93380690156482 152.26555525884032,218.72189928242005 150.77816203795373,221.2252268642187 149.29076881706715,231.95375053654425 147.50589695386589,242.32462112489156 146.31598237901926,251.9802277747076 146.01850373484194,256.986826678738 148.10085424408317,261.27819067053497 151.6705979704857,264.496709730709 156.13277762942016,266.28477441566065 160.89243593253195,265.9271615622565 165.0571369472891,264.13909666775726 168.32940203137696,261.27819067053497 170.41175253875554,256.6292127412744 171.60166711360216,246.616005606018 172.7915816884488,234.81468385178596 173.98149626515806,225.15902322926559 173.0890603326261,220.50999062042683 171.60166711360216,218.36428088904358 167.436966098845,214.78809467121027 162.67730779759586,213.71523799351417 157.6201708484441,214.07285692705773 153.45546983368695,216.57618830096908 150.48068339377642,220.50999062042683 148.39833288639784,230.16566586028785 146.9109396673739,241.96700548008084 145.72102509066463,253.76829974888824 146.01850373484194,258.05966823827475 149.5882474631071,263.06625723070465 151.37311932630837,264.496709730709 156.43025627359748,266.28477441566065 161.4873932208866,266.28477441566065 165.65209423564374,264.13909666775726 168.92435931786895,260.9205772341229 170.7092311810702,256.6292127412744 172.49410304613411,245.90077527542599 173.68401762098074,235.17230032919906 174.87393219582736,226.5894933855161 173.38653897680342,219.7947542106267 171.00670982711017,216.57618830096908 165.94957287982106,213.35761901712976 163.86722237057984,213.0 159.40504271164536,213.35761901712976 155.53782034106553,214.78809467121027 151.96807661280036,218.00666245422326 149.88572610728443,221.94046294293366 148.10085424408317,231.95375053654425 146.61346102319658,243.03985228808597 145.12606780231,253.41068543680012 145.42354644834995,257.70205442700535 146.61346102319658,260.9205772341229 149.29076881706715,263.7814835635945 153.45546983368695,265.9271615622565 157.91764949262142,266.64238722855225 164.46217965893447,264.85432275081985 169.22183796204627,260.5629637551028 171.00670982711017,256.6292127412744 172.19662440009415,245.5431600480806 173.38653897680342,234.81468385178596 174.5764535535127,224.44378790236078 173.68401762098074,220.1523724363651 171.00670982711017,216.57618830096908 167.436966098845,214.07285692705773 161.78487186320126,213.0 157.6201708484441,213.35761901712976 154.05042712017894,215.50333224749193 150.1832047495991,220.50999062042683 148.10085424408317,231.5961336849723 146.9109396673739,241.25177406682633 145.42354644834995,251.9802277747076 145.42354644834995,255.91398474294692 147.2084183115512,260.20535023510456 150.1832047495991,263.42387041822076 155.2403416968882,265.9271615622565 160.00000000186265,266.28477441566065 164.1647010166198,264.85432275081985 167.73444474302232,262.351030732505 169.8167952504009,258.41728200926445 171.89914575777948,250.54976944578812 173.0890603326261,240.5365424877964 174.27897490933537,230.16566586028785 173.98149626515806,223.72855240781792 172.49410304613411,219.43713594204746 168.92435931786895,215.86095097311772 164.46217965893447,213.71523799351417 159.40504271164536,213.71523799351417 155.2403416968882,215.14571348042227 151.6705979704857,218.72189928242005 149.5882474631071,223.01331674586982 148.39833288639784,234.45706733339466 146.61346102319658,244.8279294676613 145.42354644834995,255.1987565786112 147.2084183115512,260.20535023510456 151.6705979704857,264.496709730709 157.02521356008947,266.28477441566065 164.1647010166198,264.85432275081985 168.62688067369163,261.27819067053497 170.7092311810702,255.1987565786112 171.89914575777948,245.18554477882572 173.68401762098074,234.45706733339466 174.87393219582736,228.01996287540533 173.68401762098074,221.94046294293366 170.41175253875554,216.93380690156482 166.84200881049037,214.43047582055442 162.08235050737858,213.35761901712976 157.32269220612943,213.71523799351417 153.15799118950963,216.21856965776533 150.48068339377642,219.7947542106267 147.8033755980432,228.73519737063907 146.61346102319658,239.10607882705517 145.42354644834995,249.11931045050733 145.42354644834995,256.6292127412744 147.2084183115512,260.9205772341229 150.48068339377642,264.13909666775726 157.32269220612943,267.0 160.89243593253195,267.0 165.35461558960378,264.85432275081985 168.92435931786895,261.63580406666733 171.00670982711017,257.34444057405926 171.89914575777948,246.25839046062902 173.38653897680342,239.10607882705517" stroke="#4DD2FF" stroke-linecap="round" stroke-linejoin="round" stroke-width="0.5"><title>2024-03-27 3.0km</title><desc>9223370325311596095</desc></polyline></svg>