<?xml version="1.0" encoding="utf-8" ?>
<svg baseProfile="full" height="300mm" version="1.1" viewBox="0,0,200,300" width="200mm" xmlns="http://www.w3.org/2000/svg" xmlns:ev="http://www.w3.org/2001/xml-events" xmlns:xlink="http://www.w3.org/1999/xlink"><defs /><rect fill="#222222" height="300" width="200" x="0" y="0" /><text fill="#FFFFFF" style="font-size:12px; font-family:Arial; font-weight:bold;" x="10" y="20">Over 3km Runs</text><text fill="#FFFFFF" style="font-size:4px; font-family:Arial" x="10" y="280">Runner</text><text fill="#FFFFFF" style="font-size:9px; font-family:Arial" x="10" y="290">王子阳</text><text fill="#FFFFFF" style="font-size:4px; font-family:Arial" x="65" y="280">SPECIAL TRACKS</text><rect fill="yellow" height="2.6" width="2.6" x="65" y="283" /><text fill="#FFFFFF" style="font-size:3px; font-family:Arial" x="70" y="285.5">Over 20.0 km</text><rect fill="red" height="2.6" width="2.6" x="65" y="287" /><text fill="#FFFFFF" style="font-size:3px; font-family:Arial" x="70" y="289.5">Over 40.0 km</text><text fill="#FFFFFF" style="font-size:4px; font-family:Arial" x="120" y="280">STATISTICS</text><text fill="#FFFFFF" style="font-size:3px; font-family:Arial" x="120" y="285">Number: 7</text><text fill="#FFFFFF" style="font-size:3px; font-family:Arial" x="120" y="290">Weekly: 1.8</text><text fill="#FFFFFF" style="font-size:3px; font-family:Arial" x="141" y="285">Total: 27.7 km</text><text fill="#FFFFFF" style="font-size:3px; font-family:Arial" x="141" y="290">Avg: 4.0 km</text><text fill="#FFFFFF" style="font-size:3px; font-family:Arial" x="167" y="285">Min: 3.0 km</text><text fill="#FFFFFF" style="font-size:3px; font-family:Arial" x="167" y="290">Max: 5.2 km</text><polyline fill="none" points="43.269441870972514,34.36710086534731 41.563646111637354,33.68355051195249 39.573551058769226,33.68355051195249 35.02476237062365,35.734201094834134 31.328871559351683,38.81017428310588 28.770177922211587,45.30388486827724 27.63298074901104,55.55708285840228 25.927184990607202,66.15201648091897 25.35858640447259,71.27858353639022 25.642885697074234,73.67097843042575 29.3387765083462,80.84815141209401 30.76027297321707,82.89876904105768 34.74046307615936,84.94938523694873 37.01485742162913,85.63292364939116 42.13224469777197,85.2911544633098 44.690938335843384,84.26584666315466 48.38682914618403,81.18992111622356 50.6612234916538,76.06337137450464 52.08271995745599,65.8102450252045 53.50421642232686,56.582400685874745 54.072815008461475,46.6709800043609 53.50421642232686,42.22791848797351 51.22982207778841,38.46839964319952 48.10252985358238,35.734201094834134 43.838040456175804,34.36710086534731 37.01485742162913,35.392426097765565 32.46606873162091,39.49372344184667 29.90737509354949,44.27856310061179 28.48587862867862,51.45580796082504 28.48587862867862,61.70898445765488 27.63298074901104,71.27858353639022 27.63298074901104,76.40514163533226 28.770177922211587,79.48107219696976 32.18176943901926,83.24053850607015 35.309061664156616,84.94938523694873 39.004952473565936,85.63292364939116 44.122339750640094,83.58230793219991 48.38682914618403,80.16461188532412 51.22982207778841,70.25327084120363 53.50421642232686,59.316579811275005 54.35711430199444,55.89885550620966 54.35711430199444,46.6709800043609 52.93561783619225,40.86082128318958 48.10252985358238,35.050651060417295 44.40663904324174,33.34177527576685 39.573551058769226,33.68355051195249 34.74046307615936,36.075976052321494 30.475973681546748,40.86082128318958 27.06438216380775,49.40516836266033 26.495783576741815,55.89885550620966 26.495783576741815,66.4937878975179 26.21148428414017,71.27858353639022 27.91728004347533,77.77222228446044 30.191674387082458,81.5316907807719 35.877660249359906,84.26584666315466 39.573551058769226,84.26584666315466 46.68103338778019,81.87346040527336 48.95542773324996,79.13930229446851 50.37692419812083,75.37983073247597 51.7984206629917,65.4684735306073 53.50421642232686,57.265945706982166 53.78851571585983,47.01275368803181 53.50421642232686,43.25324097275734 52.08271995745599,39.49372344184667 49.23972702585161,37.10130068752915 44.40663904324174,34.708875983254984 38.72065318096429,34.708875983254984 34.17186449095607,37.44307548669167 31.61317085288465,40.17727244226262 29.3387765083462,49.063394957920536 28.201579335145652,58.29126293724403 27.348681456409395,68.20264437724836 26.495783576741815,73.32920785131864 28.770177922211587,80.16461188532412 34.17186449095607,84.6076159698423 37.583456008695066,85.63292364939116 44.40663904324174,84.94938523694873 47.2496319739148,82.89876904105768 50.09262490551919,78.45576236862689 51.7984206629917,67.17733060801402 54.35711430199444,56.582400685874745 54.64141359552741,46.6709800043609 54.64141359552741,44.62033706274815 51.7984206629917,38.12662496371195 49.52402631845325,35.734201094834134 43.55374116357416,33.68355051195249 39.004952473565936,34.02532570902258 35.02476237062365,36.417750970693305 32.7503680260852,38.12662496371195 29.90737509354949,43.59501505549997 28.770177922211587,55.21531016845256 27.06438216380775,65.8102450252045 26.21148428414017,74.01274897018448 27.348681456409395,78.11399234645069 33.31896661128849,83.9240773175843 39.004952473565936,87.0 40.710748232901096,87.0 43.838040456175804,86.31646190397441 48.38682914618403,80.84815141209401 50.6612234916538,74.6962899309583 52.08271995745599,64.78493042080663 53.21991712972522,54.873537440085784 54.35711430199444,44.96211098553613 53.50421642232686,41.54436996486038 51.51412137039006,38.12662496371195 46.68103338778019,34.708875983254984 39.573551058769226,34.02532570902258 37.86775530129671,34.36710086534731 33.31896661128849,37.44307548669167 29.623075800947845,43.59501505549997 28.770177922211587,45.30388486827724 28.201579335145652,55.89885550620966 27.06438216380775,66.4937878975179 26.21148428414017,71.62035435438156 28.201579335145652,79.82284206128679 33.03466731868684,84.26584666315466 38.152054593898356,85.63292364939116 43.55374116357416,84.6076159698423 48.671128439716995,80.50638166884892 51.22982207778841,74.01274897018448 52.08271995745599,64.1013871524483 54.072815008461475,53.848219013772905 53.78851571585983,43.25324097275734 52.65131854265928,40.17727244226262 47.53393126837909,35.734201094834134 42.98514257743955,34.36710086534731 40.142149646766484,34.02532570902258 37.2991567151621,34.708875983254984 31.328871559351683,39.49372344184667 27.348681456409395,47.354527331888676 26.495783576741815,57.60771815688349 25.927184990607202,67.51910190470517 27.91728004347533,77.08868203917518 29.90737509354949,80.50638166884892 34.74046307615936,83.58230793219991 40.426448938436806,83.9240773175843 46.396734095178545,80.84815141209401 49.80832561291754,77.08868203917518 51.7984206629917,66.4937878975179 54.35711430199444,56.24062811629847 54.35711430199444,46.3292062797118 54.072815008461475,42.56969268922694 50.6612234916538,38.12662496371195 44.40663904324174,34.36710086534731 40.710748232901096,34.02532570902258 33.60326590575278,37.10130068752915 29.90737509354949,43.25324097275734 28.201579335145652,52.48112722230144 27.06438216380775,55.89885550620966 26.495783576741815,65.4684735306073 25.927184990607202,70.936812678352 27.91728004347533,78.11399234645069 31.044572266750038,82.21522999042645 33.88756519835442,84.26584666315466 39.004952473565936,85.63292364939116 42.416543991304934,84.94938523694873 46.965332680381835,81.87346040527336 49.52402631845325,77.08868203917518 51.22982207778841,66.4937878975179 52.65131854265928,55.89885550620966 54.072815008461475,46.6709800043609 52.36701925005764,40.17727244226262 47.53393126837909,35.392426097765565 42.700843285769224,33.68355051195249 39.289251768030226,34.02532570902258 34.74046307615936,36.75952584948391 30.475973681546748,41.88614424667321 28.48587862867862,52.13935417402536 27.348681456409395,62.7343001361005 26.78008286934346,72.30389587231912 26.78008286934346,76.06337137450464 29.054477215744555,80.84815141209401 34.45616378355771,84.94938523694873 39.573551058769226,85.63292364939116 42.98514257743955,84.94938523694873 48.95542773324996,80.84815141209401 50.6612234916538,75.03806035104208 51.7984206629917,64.78493042080663 52.65131854265928,55.21531016845256 54.35711430199444,48.03807450225577 53.78851571585983,42.9114668504335 51.22982207778841,37.78485024510883 44.690938335843384,34.36710086534731 37.2991567151621,35.050651060417295 31.897470146417618,39.83549796231091 28.48587862867862,47.696300936862826 27.63298074901104,58.29126293724403 26.21148428414017,69.22795778838918 25.927184990607202,74.35451947012916 28.770177922211587,80.16461188532412 32.18176943901926,83.58230793219991 37.583456008695066,84.6076159698423 42.98514257743955,83.58230793219991 47.2496319739148,80.50638166884892 50.09262490551919,74.35451947012916 51.7984206629917,63.75961545784958 53.21991712972522,53.848219013772905 54.072815008461475,44.62033706274815 50.94552278518677,38.46839964319952 48.38682914618403,35.734201094834134 45.543836215510964,34.36710086534731 40.710748232901096,33.0 37.2991567151621,34.36710086534731 31.044572266750038,40.86082128318958 28.48587862867862,50.77226158720441 27.348681456409395,58.29126293724403 25.927184990607202,64.1013871524483 25.35858640447259,72.98743723123334 27.348681456409395,78.45576236862689 29.054477215744555,80.84815141209401 31.044572266750038,82.89876904105768 35.02476237062365,84.6076159698423 41.563646111637354,83.58230793219991 43.55374116357416,82.89876904105768 48.38682914618403,79.13930229446851 50.09262490551919,76.06337137450464 50.94552278518677,66.4937878975179 52.65131854265928,57.265945706982166 54.072815008461475,47.354527331888676 53.78851571585983,41.88614424667321 51.7984206629917,38.46839964319952 47.53393126837909,35.050651060417295 41.84794540517032,33.68355051195249 36.44625883549452,35.392426097765565 32.18176943901926,38.81017428310588 29.623075800947845,43.59501505549997 28.201579335145652,52.82290023029782 27.63298074901104,62.050756390206516 26.21148428414017,65.4684735306073 26.495783576741815,67.17733060801402 25.642885697074234,74.6962899309583 27.348681456409395,79.82284206128679 28.201579335145652,81.5316907807719 30.76027297321707,83.58230793219991 38.152054593898356,85.63292364939116 45.543836215510964,83.24053850607015 48.10252985358238,80.50638166884892 50.37692419812083,71.27858353639022 52.65131854265928,61.36721248459071 54.35711430199444,50.08871505456045 54.64141359552741,43.59501505549997 53.78851571585983,41.20259564346634 50.09262490551919,36.75952584948391 42.13224469777197,34.02532570902258 39.004952473565936,34.02532570902258 36.44625883549452,35.050651060417295 32.18176943901926,38.46839964319952 30.475973681546748,40.86082128318958 27.91728004347533,51.11403479427099 26.495783576741815,61.70898445765488 26.495783576741815,61.70898445765488" stroke="#4DD2FF" stroke-linecap="round" stroke-linejoin="round" stroke-width="0.5"><title>2024-06-05 5.2km</title><desc>9223370319263910188</desc></polyline><polyline fill="none" points="151.75532242003828,42.22791848797351 150.9024247387424,43.59501505503431 148.34373169671744,54.87353743985295 146.92223556246608,61.70898445742205 145.7850386556238,72.987437231699 146.63793633598834,77.08868203964084 148.9123301524669,81.18992111785337 151.75532242003828,84.26584666478448 155.4512123707682,85.97469279798679 159.71570077259094,86.3164619046729 163.6958899507299,85.29115446377546 167.1074806721881,82.89876904152334 170.2347721690312,76.74691185820848 171.65626830328256,66.49378789681941 173.07776443846524,55.55708285886794 174.21496134530753,47.01275368826464 173.64636289142072,42.56969269015826 170.2347721690312,37.10130068776198 168.81327603384852,35.73420109576546 164.8330868575722,34.36710086558014 160.2842992283404,34.70887598302215 156.01981082372367,36.417750970926136 153.17681855522096,39.49372344301082 151.1867239670828,42.91146685183048 149.48092860542238,52.82290022959933 148.05943247117102,62.734300137497485 146.63793633598834,73.67097843135707 147.77513324376196,79.48107219813392 150.33382628578693,82.89876904152334 155.4512123707682,85.97469279798679 159.43140154704452,86.3164619046729 163.12729149591178,85.29115446377546 169.0975752621889,80.16461188485846 171.37196907680482,75.37983073317446 172.22486675716937,65.46847353130579 174.49926057178527,55.89885550783947 175.0678590266034,46.32920628110878 173.64636289142072,41.202595643932 169.95047294255346,36.759525849018246 166.53888221923262,34.70887598302215 162.84299227036536,34.02532570902258 156.58840927761048,35.73420109576546 150.9024247387424,40.86082128365524 148.34373169671744,50.088715055026114 146.92223556246608,60.000124195357785 146.06933788210154,63.75961545854807 145.7850386556238,73.67097843135707 147.49083401728421,79.48107219813392 150.04952705837786,82.89876904152334 154.88261391595006,85.97469279798679 158.8628030931577,87.0 163.12729149591178,86.3164619046729 166.53888221923262,83.9240773182828 169.38187448866665,80.50638166954741 171.65626830328256,74.69628993165679 172.79346521012485,64.44315880723298 174.49926057178527,56.92417321680114 175.35215825308114,47.01275368826464 173.9306621188298,41.202595643932 169.6661737151444,36.417750970926136 166.25458299182355,34.70887598302215 161.99009458906949,34.02532570902258 157.44130695797503,35.05065105995163 153.74541700910777,37.4430754869245 149.19662937894464,44.62033706344664 147.20653479080647,54.531764671439305 146.06933788210154,64.44315880723298 145.50073942914605,74.35451947152615 149.19662937894464,81.53169078170322 155.7355115963146,85.97469279798679 159.71570077259094,86.65823097270913 163.41159072332084,85.6329236512538 168.24467758089304,82.55699953599833 171.08766985032707,77.43045218242332 172.5091659836471,66.83555927313864 174.21496134530753,55.89885550783947 174.78355980012566,50.43048834102228 175.35215825308114,47.01275368826464 174.21496134530753,41.88614424597472 171.37196907680482,37.4430754869245 166.82318144571036,35.05065105995163 161.42149613425136,34.02532570902258 157.7256061853841,34.70887598302215 150.6181255141273,40.86082128365524 148.9123301524669,43.9367890979629 147.77513324376196,53.16467319824733 146.63793633598834,62.39252828457393 146.06933788210154,71.96212513442151 146.92223556246608,77.77222228422761 151.75532242003828,83.5823079328984 156.58840927761048,85.97469279798679 162.27439381554723,85.29115446377546 165.40168531052768,83.9240773182828 169.0975752621889,79.48107219813392 171.37196907680482,71.6203543562442 172.79346521012485,61.70898445742205 174.21496134530753,51.7975810887292 174.49926057178527,43.9367890979629 173.07776443846524,39.83549796277657 168.81327603384852,35.73420109576546 165.11738608498126,34.02532570902258 160.5685984538868,34.02532570902258 156.58840927761048,35.73420109576546 152.03962164744735,39.83549796277657 148.6280309241265,49.40516836405732 146.92223556246608,59.31657981243916 146.06933788210154,68.88618669169955 145.7850386556238,74.69628993165679 147.77513324376196,80.16461188485846 151.75532242003828,84.26584666478448 156.30411005020142,86.3164619046729 160.00000000093132,86.65823097270913 163.6958899507299,85.97469279798679 168.24467758089304,82.55699953599833 170.2347721690312,79.139302295167 171.9405675297603,71.27858353685588 172.79346521012485,61.70898445742205 173.64636289142072,51.7975810887292 174.21496134530753,44.27856310107745 172.22486675716937,38.81017428264022 167.96037835348397,35.392426098231226 163.12729149591178,34.02532570902258 159.43140154704452,34.36710086558014 154.598314688541,36.759525849018246 149.19662937894464,43.59501505503431 146.92223556246608,54.531764671439305 145.50073942914605,64.78493042220362 144.64784174785018,71.96212513442151 145.21644020080566,75.37983073317446 148.05943247117102,80.84815141395666 151.1867239670828,83.9240773182828 155.16691314335912,85.97469279798679 161.1371969077736,86.65823097270913 167.67607912793756,82.89876904152334 171.65626830328256,77.08868203964084 173.07776443846524,67.1773306101095 174.49926057178527,56.582400686107576 174.78355980012566,47.01275368826464 174.78355980012566,43.25324097345583 172.22486675716937,38.1266249648761 168.24467758089304,34.70887598302215 162.84299227036536,33.0 159.14710231963545,33.68355051288381 152.3239208739251,38.1266249648761 150.04952705837786,41.202595643932 147.77513324376196,50.43048834102228 145.7850386556238,61.02544047194533 144.64784174785018,71.27858353685588 146.3536371095106,77.08868203964084 149.19662937894464,81.18992111785337 153.4611177816987,83.9240773182828 155.7355115963146,84.9493852367159 161.1371969077736,84.9493852367159 165.40168531052768,83.24053850769997 168.81327603384852,80.16461188485846 170.80337062384933,76.0633713756688 172.22486675716937,64.78493042220362 172.5091659836471,54.87353743985295 173.9306621188298,45.30388486944139 172.5091659836471,40.17727244226262 170.2347721690312,37.10130068776198 164.2644884046167,34.36710086558014 160.2842992283404,34.36710086558014 154.31401546206325,37.10130068776198 150.33382628578693,42.22791848797351 147.77513324376196,50.43048834102228 147.20653479080647,54.531764671439305 145.7850386556238,64.1013871524483 144.93214097432792,73.67097843135707 146.92223556246608,79.48107219813392 151.1867239670828,83.9240773182828 154.88261391595006,85.97469279798679 160.85289768129587,86.65823097270913 165.68598453886807,84.26584666478448 169.6661737151444,80.50638166954741 171.9405675297603,75.03806035174057 172.79346521012485,65.12670199666172 174.21496134530753,55.55708285886794 174.78355980012566,46.32920628110878 173.64636289142072,40.86082128365524 168.81327603384852,35.05065105995163 164.8330868575722,33.68355051288381 160.85289768129587,33.68355051288381 156.87270850501955,35.05065105995163 152.3239208739251,38.81017428264022 148.9123301524669,45.30388486944139 146.92223556246608,54.531764671439305 145.7850386556238,65.81024502567016 145.21644020080566,72.987437231699 145.7850386556238,76.4051416371949 150.33382628578693,82.89876904152334 154.31401546206325,85.6329236512538 157.1570077314973,86.3164619046729 159.43140154704452,86.3164619046729" stroke="#4DD2FF" stroke-linecap="round" stroke-linejoin="round" stroke-width="0.5"><title>2024-06-03 4.1km</title><desc>9223370319435416669</desc></polyline><polyline fill="none" points="30.017938256263733,98.00004279683344 29.74065876286477,102.66674152598716 27.799702310934663,109.00010620476678 26.690584341064095,120.3334606536664 25.30418687593192,131.3334382364992 25.858745861798525,135.3334196030628 27.522422819398344,139.33339538169093 32.236174198798835,144.0000267245341 36.39536659233272,145.3333485685289 38.33632304240018,145.3333485685289 44.71375137846917,142.66670426074415 47.76382580026984,139.6667264434509 50.25934123713523,133.66676138015464 51.64573870040476,123.00012576719746 53.03213616553694,112.00011616107076 52.477577179670334,101.66673529543914 51.92301819473505,99.00005030748434 51.09117971546948,97.33337092748843 43.88191290013492,93.0 40.554558984935284,93.0 35.56352811306715,95.33335439185612 30.84977673366666,98.33337867213413 29.18609977606684,100.66672871611081 26.690584341064095,111.00011319108307 26.13602535519749,121.33346036192961 25.026907383464277,130.33344202069566 25.30418687593192,136.00008262158372 29.46337926853448,142.33337354683317 33.89985115546733,146.0000092573464 39.16816152073443,147.0 44.436471885070205,145.3333485685289 47.20926681533456,143.00003493460827 50.53662072960287,137.66673948662356 53.03213616553694,127.66678373795003 54.69581312313676,118.33346018800512 55.52765160147101,109.00010620476678 54.9730926156044,103.66674740705639 53.58669515233487,100.33339311252348 49.42750275786966,96.00002672616392 43.60463340766728,94.33334559993818 37.781764056533575,94.33334559993818 36.118087098933756,95.00001816614531 30.017938256263733,100.33339311252348 27.522422819398344,108.33343689749017 27.799702310934663,114.6667890381068 26.690584341064095,120.3334606536664 25.858745861798525,121.66679352056235 24.47234839759767,131.3334382364992 25.026907383464277,136.6667454834096 30.017938256263733,143.00003493460827 33.34529217053205,145.3333485685289 39.16816152073443,146.66666979086585 42.77279492840171,146.0000092573464 47.4865463078022,142.33337354683317 50.53662072960287,137.00007685716264 52.20029768720269,127.66678373795003 54.41853363066912,117.3334594303742 55.250372109003365,108.00010218680836 54.9730926156044,103.66674740705639 52.20029768720269,98.33337867213413 47.20926681533456,94.33334559993818 43.60463340766728,93.33333645854145 39.445441015064716,93.6666728775017 31.404335720464587,99.00005030748434 28.631540791131556,105.6667581202928 28.07698180526495,115.00012297276407 25.858745861798525,124.66679020226002 25.026907383464277,132.33343410119414 26.690584341064095,138.0000707441941 30.017938256263733,142.33337354683317 34.45441014133394,145.0000181661453 38.05904354993254,145.6666789315641 43.32735391519964,144.6666877239477 47.4865463078022,141.3333811738994 50.25934123713523,136.6667454834096 51.64573870040476,127.33345127874054 53.03213616553694,118.33346018800512 53.58669515233487,107.666767437011 53.03213616553694,102.33340615429915 51.64573870040476,98.66671450971626 47.20926681533456,95.33335439185612 41.94095645099878,93.6666728775017 36.67264608480036,95.00001816614531 30.84977673366666,99.66672178753652 28.07698180526495,108.66677157045342 27.24514332599938,117.66679305536672 26.13602535519749,128.3334485415835 25.858745861798525,135.3334196030628 27.522422819398344,139.33339538169093 31.95889470539987,143.66669616708532 37.22720507066697,145.6666789315641 42.49551543593407,145.0000181661453 45.82286935020238,143.3333655698225 48.59566427953541,140.33338845334947 50.25934123713523,136.6667454834096 51.36845920793712,126.6667862420436 53.03213616553694,117.3334594303742 53.86397464480251,108.00010218680836 52.7548566730693,101.0000642822124 49.42750275786966,96.66669890494086 46.10014884267002,94.66668190225028 40.554558984935284,94.00000925874338 35.28624862059951,96.00002672616392 31.1270562261343,99.66672178753652 28.07698180526495,108.33343689749017 26.967863833531737,117.66679305536672 25.858745861798525,126.6667862420436 26.13602535519749,128.3334485415835 25.30418687593192,132.00010218494572 26.690584341064095,137.66673948662356 31.1270562261343,143.3333655698225 35.28624862059951,145.3333485685289 40.27727949246764,146.0000092573464 43.60463340766728,145.0000181661453 47.76382580026984,141.66671200376004 50.25934123713523,136.6667454834096 51.36845920793712,127.33345127874054 52.7548566730693,117.66679305536672 52.477577179670334,113.33345290995203 53.30941565800458,109.3334407992661 52.7548566730693,103.00007685902528 49.42750275786966,98.00004279683344 46.10014884267002,95.66669057798572 40.554558984935284,94.66668190225028 36.67264608480036,95.66669057798572 30.572497241199017,100.66672871611081 28.908820283599198,104.00008262251504 27.799702310934663,113.33345290995203 26.690584341064095,123.00012576719746 25.58146636839956,132.33343410119414 27.24514332599938,138.0000707441941 29.46337926853448,141.66671200376004 32.236174198798835,144.33335724310018 37.50448456313461,146.0000092573464 41.38639746326953,145.6666789315641 47.4865463078022,141.3333811738994 49.98206174466759,136.3334140717052 51.09117971546948,127.33345127874054 52.20029768720269,118.00012664147653 53.03213616553694,107.666767437011 53.03213616553694,103.66674740705639 50.53662072960287,98.66671450971626 46.10014884267002,95.33335439185612 40.83183847833425,94.66668190225028 36.118087098933756,96.00002672616392 31.68161521293223,100.0000574698206 28.908820283599198,105.00008803792298 27.522422819398344,114.6667890381068 26.690584341064095,124.00012454413809 26.13602535519749,134.6667564297095 28.07698180526495,139.6667264434509 31.68161521293223,144.0000267245341 36.94992557819933,146.0000092573464 42.2182359425351,145.3333485685289 46.931987321935594,142.66670426074415 49.98206174466759,137.66673948662356 51.92301819473505,128.66678088484332 53.58669515233487,119.33346059522592 54.41853363066912,115.66679072706029 54.14125413727015,106.33342804713175 53.03213616553694,101.33339980826713 49.70478225219995,97.00003493553959 45.268310364335775,94.00000925874338 43.32735391519964,93.33333645854145 39.72272050566971,94.00000925874338 34.17713064793497,96.66669890494086 29.74065876286477,101.66673529543914 27.24514332599938,109.6667753555812 26.41330484766513,118.66679369541816 25.58146636839956,129.3334454561118 25.30418687593192,131.3334382364992 26.690584341064095,137.33340819110163 30.017938256263733,142.33337354683317 35.84080760553479,145.3333485685289 39.445441015064716,145.6666789315641 42.77279492840171,144.6666877239477 46.931987321935594,142.00004279450513 49.98206174466759,137.66673948662356 51.36845920793712,128.3334485415835 52.477577179670334,118.00012664147653 53.58669515233487,107.3334326473996 53.03213616553694,102.00007074489258 49.98206174466759,97.66670688148588 44.436471885070205,94.33334559993818 39.445441015064716,94.33334559993818 34.45441014133394,96.66669890494086 31.68161521293223,99.00005030748434 28.631540791131556,106.33342804713175 27.522422819398344,115.66679072706029 26.41330484766513,125.00012297229841 25.30418687593192,131.00010620290413 25.58146636839956,133.33342961850576 29.18609977606684,140.66671939892694 34.17713064793497,144.6666877239477 36.118087098933756,145.3333485685289 43.05007442086935,144.33335724310018 46.654707830399275,142.00004279450513 49.70478225219995,137.33340819110163 51.36845920793712,127.00011878064834 52.20029768720269,117.66679305536672 53.58669515233487,106.66676295385696 53.58669515233487,105.33342309901491" stroke="#4DD2FF" stroke-linecap="round" stroke-linejoin="round" stroke-width="0.5"><title>2024-06-02 4.3km</title><desc>9223370319521430187</desc></polyline><polyline fill="none" points="149.7527861604467,97.72504016710445 148.62980382237583,105.15008772257715 149.47204057499766,107.51259886543266 148.91054940689355,117.63762480416335 148.06831265240908,127.42511625564657 147.2260758979246,132.15010029869154 147.50682148337364,134.51258943136781 150.87576849851757,140.58755264431238 153.9639699300751,142.9500349003356 158.17515369970351,143.96252670534886 162.38633746933192,143.2875322077889 164.63230214547366,142.27504016668536 166.31677565351129,140.58755264431238 169.68572266958654,133.83759273262694 171.37019617762417,122.70012450963259 171.65094176214188,117.63762480416335 173.05466968659312,108.18760169530287 172.77392410114408,103.12507663993165 171.08945059217513,99.07505022897385 167.4397579934448,95.70002389559522 162.94782863836735,94.01250925543718 154.80620668455958,95.70002389559522 153.40247876103967,97.05003490066156 149.47204057499766,103.12507663993165 148.34905823785812,112.57511625718325 147.50682148337364,121.68762527615763 146.10309355985373,130.80010564439 147.2260758979246,135.18758597341366 148.91054940689355,138.90006414009258 153.12173317652196,142.6125375526026 155.08695226814598,143.2875322077889 159.57888162322342,143.96252670534886 164.07081097736955,142.27504016668536 165.75528448540717,141.26254777098075 168.56274033151567,137.5500726304017 169.96646825503558,132.82509739114903 170.527959424071,123.71262338990346 172.49317851662636,113.92511940049008 173.3354152701795,108.52510305168107 174.73914319463074,107.51259886543266 173.3354152701795,102.11257056822069 169.96646825503558,97.72504016710445 166.31677565351129,94.68751522991806 163.79006539285183,94.01250925543718 161.26335513032973,94.35001226165332 156.4906801916659,96.0375267053023 152.2794964229688,98.40004527638666 149.7527861604467,102.78757465467788 148.34905823785812,113.92511940049008 147.78756706696004,124.38762244605459 146.6645847298205,132.48759886459447 148.91054940689355,138.90006414009258 150.31427732948214,140.92505022743717 154.2447155136615,143.625029475661 159.01739045232534,144.6375210462138 161.26335513032973,144.6375210462138 165.47453889995813,142.27504016668536 168.56274033151567,138.90006414009258 169.40497708600014,136.53757858416066 170.527959424071,125.7376200875733 171.08945059217513,115.27512191678397 172.77392410114408,107.85010030050762 172.49317851662636,102.78757465467788 170.527959424071,98.40004527638666 169.12423150148243,96.37502947659232 167.15901240799576,95.0250181579031 159.85962720680982,93.67500620917417 157.61366252973676,94.01250925543718 154.2447155136615,96.37502947659232 151.1565140830353,100.08755736215971 149.47204057499766,104.47508418583311 148.62980382237583,113.92511940049008 148.06831265240908,123.03762417519465 146.6645847298205,131.81260169413872 147.50682148337364,135.86258235690184 151.1565140830353,141.26254777098075 154.80620668455958,143.2875322077889 159.01739045232534,144.6375210462138 162.94782863836735,143.2875322077889 166.59752123896033,140.92505022743717 169.12423150148243,136.87507663900033 170.2472138395533,127.42511625564657 171.08945059217513,116.62512380233966 173.3354152701795,106.16259273397736 171.37019617762417,99.07505022897385 168.56274033151567,96.0375267053023 164.3515565628186,94.01250925543718 159.85962720680982,93.33750312402844 155.92918902169913,94.68751522991806 152.5602420065552,97.38753755390644 150.59502291493118,101.437566322973 148.34905823785812,109.8751080816146 147.50682148337364,121.0126255908981 146.9453303143382,130.80010564439 147.2260758979246,135.18758597341366 148.91054940689355,139.57505966094323 155.08695226814598,143.625029475661 159.29813603777438,144.97501815692522 165.19379331637174,141.93754274141975 168.28199474699795,138.56256632204168 170.2472138395533,129.78760924004018 171.08945059217513,120.67512568854727 172.49317851662636,109.53760688286275 172.49317851662636,102.78757465467788 170.80870500858873,98.73754777270369 167.15901240799576,95.36252104653977 160.7018639612943,93.67500620917417 158.73664486967027,93.67500620917417 153.40247876103967,97.38753755390644 150.03353174589574,102.78757465467788 148.34905823785812,113.58761867391877 146.9453303143382,124.05012293742038 146.6645847298205,134.17509110225365 148.34905823785812,137.88757056649774 151.99875083751976,142.6125375526026 158.45589928422123,144.6375210462138 160.7018639612943,144.30002389592119 166.31677565351129,140.25005502230488 168.0012491615489,138.56256632204168 169.40497708600014,134.17509110225365 170.527959424071,124.72512191464193 172.21243293210864,113.58761867391877 173.3354152701795,105.15008772257715 171.37019617762417,99.07505022897385 168.28199474699795,95.70002389559522 164.3515565628186,93.67500620917417 160.14037279225886,93.0 156.20993460714817,94.01250925543718 151.43725966848433,98.73754777270369 149.47204057499766,102.78757465467788 147.78756706696004,113.25011790753342 146.9453303143382,124.05012293742038 146.10309355985373,131.81260169413872 148.06831265240908,137.5500726304017 150.87576849851757,140.92505022743717 155.64844343811274,143.96252670534886 160.7018639612943,145.3125152294524 166.03603006899357,142.27504016668536 168.8434859160334,138.90006414009258 171.08945059217513,128.43761348514818 172.77392410114408,117.63762480416335 173.89690644014627,107.85010030050762 173.3354152701795,102.11257056822069 170.527959424071,96.37502947659232 164.9130477309227,93.33750312402844 161.26335513032973,93.0 155.64844343811274,94.35001226165332 151.43725966848433,98.40004527638666 149.47204057499766,101.77506846562028 148.34905823785812,111.56261348584667 147.2260758979246,121.35012545366772 146.10309355985373,131.13760436652228 147.2260758979246,137.21257465495728 149.7527861604467,140.92505022743717 154.52546109911054,144.30002389592119 158.45589928422123,144.97501815692522 162.10559188574553,143.96252670534886 166.87826682440937,140.58755264431238 169.12423150148243,137.21257465495728 171.08945059217513,127.42511625564657 171.9316873466596,117.30012450995855 173.3354152701795,107.17509739100933 172.77392410114408,102.78757465467788 171.37019617762417,99.07505022897385 167.4397579934448,94.68751522991806 163.5093198083341,93.0 159.01739045232534,93.33750312402844 156.4906801916659,94.35001226165332 151.43725966848433,99.75005502393469 149.7527861604467,104.13758235890418 148.62980382237583,113.92511940049008 147.2260758979246,122.70012450963259 146.6645847298205,130.80010564439 147.78756706696004,136.53757858416066 149.7527861604467,139.91255736141466 154.52546109911054,143.2875322077889 158.17515369970351,143.96252670534886 163.5093198083341,142.9500349003356 168.0012491615489,139.57505966094323 169.96646825503558,133.5000943245832 171.08945059217513,123.03762417519465 171.9316873466596,114.60012073768303 173.05466968659312,110.550110361306 171.9316873466596,100.42505966080353 169.96646825503558,97.38753755390644 166.87826682440937,94.68751522991806 163.22857422288507,93.67500620917417 159.29813603777438,93.67500620917417 152.84098759107292,97.05003490066156 150.59502291493118,99.75005502393469 148.62980382237583,109.8751080816146 147.78756706696004,120.33762574754655 145.54160238988698,129.45011036051437 145.54160238988698,133.5000943245832 147.78756706696004,138.90006414009258 150.31427732948214,141.6000452756416 157.05217136163265,143.96252670534886 161.26335513032973,143.96252670534886 164.9130477309227,141.93754274141975 168.0012491615489,139.23756192042492 169.40497708600014,135.18758597341366 171.37019617762417,125.40012073563412 172.77392410114408,115.95012293779291 172.77392410114408,105.48758943355642 172.77392410114408,103.46257858583704 170.2472138395533,97.72504016710445 167.4397579934448,95.0250181579031 162.94782863836735,93.33750312402844 158.73664486967027,94.01250925543718 154.80620668455958,95.70002389559522 150.03353174589574,100.42505966080353 147.50682148337364,108.52510305168107 146.9453303143382,118.98762559029274 145.54160238988698,129.45011036051437 145.54160238988698,133.16259587742388 146.6645847298205,137.21257465495728 150.31427732948214,141.93754274141975 157.33291694615036,145.98750925576314 162.94782863836735,147.0 164.9130477309227,145.65001226193272 168.8434859160334,139.57505966094323 171.37019617762417,128.7751124824863 173.3354152701795,118.98762559029274 173.89690644014627,108.86260436824523 173.89690644014627,103.12507663993165 172.49317851662636,99.07505022897385 169.68572266958654,96.0375267053023 163.79006539285183,93.67500620917417 157.8944081151858,94.01250925543718 154.2447155136615,95.36252104653977 150.03353174589574,99.07505022897385 147.50682148337364,110.21260924148373 146.10309355985373,119.66262574773282 145.26085680630058,129.11261144047603 145.26085680630058,131.81260169413872 147.2260758979246,137.21257465495728 150.03353174589574,140.58755264431238 154.2447155136615,143.625029475661 158.73664486967027,144.6375210462138 163.22857422288507,143.625029475661 166.87826682440937,140.92505022743717" stroke="#4DD2FF" stroke-linecap="round" stroke-linejoin="round" stroke-width="0.5"><title>2024-05-28 4.9km</title><desc>9223370319956977916</desc></polyline><polyline fill="none" points="49.732507932931185,207.0 48.23519901931286,206.28000620543025 49.732507932931185,195.8400773264002 51.52927862852812,183.60011581145227 53.625511107966304,171.7201068191789 54.52389645576477,164.1600773271639 53.92497288994491,161.6400633866433 52.427663976326585,159.1200473944191 50.331431498751044,156.96003205049783 44.941119411960244,154.44001224078238 39.5508073233068,153.36000312282704 32.36372454278171,156.6000293456018 30.267492063343525,158.76004494121298 27.871797803789377,167.0400907418225 26.374488892033696,177.84011715254746 25.775565326213837,187.9201077616308 25.47610354423523,192.6000922296662 26.673950674012303,197.64006757945754 29.968030283227563,202.32003733259626 34.45995702035725,205.2000151979737 39.5508073233068,206.28000620543025 46.438428323715925,203.7600265997462 49.43304615095258,200.88004739349708 51.52927862852812,193.32008921145461 52.72712576016784,183.24011621042155 53.625511107966304,173.1601103397552 54.22443467192352,163.080071604345 52.12820219434798,158.76004494121298 50.331431498751044,156.6000293456018 44.941119411960244,154.0800092436839 39.5508073233068,153.7200062039774 32.36372454278171,156.6000293456018 28.770183151587844,163.080071604345 27.572336019948125,172.80010952311568 26.97341245599091,174.9601137994323 26.075027108192444,184.68011436495 25.775565326213837,194.76008267118596 27.572336019948125,199.44005678407848 31.465339194983244,203.4000293458812 36.256727715954185,205.5600122420583 41.048116236925125,205.92000924423337 47.037351889535785,202.6800347128883 49.732507932931185,199.08005902729928 50.93035506270826,194.76008267118596 52.427663976326585,183.60011581145227 53.32604932412505,171.7201068191789 54.22443467192352,164.52007915033028 52.72712576016784,160.200054500252 49.43304615095258,156.6000293456018 44.941119411960244,154.44001224078238 37.75403662957251,154.0800092436839 35.65780415199697,154.8000151971355 31.76480097696185,157.6800373326987 28.470721369609237,163.80007546115667 27.572336019948125,174.9601137994323 26.374488892033696,185.40011319122277 25.47610354423523,194.4000843691174 26.97341245599091,199.08005902729928 30.566953847184777,203.04003205057234 37.75403662957251,205.92000924423337 42.54542515054345,205.5600122420583 46.438428323715925,203.7600265997462 48.83412258513272,200.52004980458878 50.63089328072965,196.5600735526532 51.52927862852812,185.04011379857548 52.427663976326585,175.32011436508037 53.92497288994491,164.1600773271639 52.12820219434798,159.48004980455153 48.53466080315411,155.880023811711 44.04273406416178,154.0800092436839 39.5508073233068,153.7200062039774 35.35834236815572,155.16001811088063 32.0642627608031,158.0400399104692 29.06964493356645,164.1600773271639 27.572336019948125,174.9601137994323 26.075027108192444,185.76011254172772 25.176641760393977,194.4000843691174 26.673950674012303,199.08005902729928 29.968030283227563,203.04003205057234 36.256727715954185,206.6400031237863 38.65242197737098,207.0 45.2405811958015,205.2000151979737 49.43304615095258,200.88004739349708 51.22981684654951,196.5600735526532 51.52927862852812,185.04011379857548 51.82874041236937,176.04011537204497 53.92497288994491,165.96008602483198 53.026587542146444,161.28006122843362 50.03196971490979,157.32003471208736 43.74327228218317,153.7200062039774 37.4545748475939,154.0800092436839 33.561571672558784,156.2400265992619 29.36910671554506,161.6400633866433 27.572336019948125,173.52011111634783 25.775565326213837,184.68011436495 25.47610354423523,195.8400773264002 27.272874239832163,200.16005217377096 30.866415629163384,204.12002381216735 35.35834236815572,206.28000620543025 40.149730890989304,207.0 46.13896654359996,204.48002098221332 48.83412258513272,201.24004494096152 50.63089328072965,197.2800696119666 51.52927862852812,192.96009074221365 52.12820219434798,181.44011757196859 53.92497288994491,170.64010373759083 54.22443467192352,165.96008602483198 53.026587542146444,160.92005902691744 50.03196971490979,157.32003471208736 45.83950475975871,154.44001224078238 41.34757802076638,153.7200062039774 38.951883759349585,153.7200062039774 32.96264810860157,157.32003471208736 30.267492063343525,160.92005902691744 27.572336019948125,167.76009367662482 26.075027108192444,176.760116210673 26.673950674012303,181.44011757196859 25.47610354423523,192.24009367567487 25.775565326213837,196.92007160396315 28.17125958763063,201.60004244698212 31.76480097696185,204.48002098221332 36.256727715954185,206.6400031237863 40.44919267296791,207.0 46.438428323715925,204.48002098221332 49.133584367111325,200.88004739349708 52.427663976326585,189.72010262613185 53.32604932412505,187.56010866258293 52.72712576016784,182.52011688007042 54.22443467192352,171.36010583443567 54.82335823774338,164.52007915033028 54.22443467192352,162.3600675801281 50.331431498751044,156.2400265992619 47.037351889535785,153.7200062039774 44.941119411960244,153.0 37.75403662957251,154.44001224078238 33.86103345640004,156.96003205049783 30.866415629163384,160.200054500252 28.17125958763063,170.64010373759083 26.374488892033696,181.44011757196859 25.176641760393977,192.96009074221365 25.775565326213837,197.64006757945754 28.17125958763063,201.60004244698212 31.76480097696185,204.84001811081544 41.34757802076638,206.28000620543025 47.33681367151439,203.04003205057234 49.43304615095258,199.44005678407848 50.63089328072965,195.48007915052585 51.82874041236937,184.32011488848366 52.72712576016784,173.1601103397552 53.625511107966304,170.64010373759083 53.625511107966304,170.64010373759083" stroke="#4DD2FF" stroke-linecap="round" stroke-linejoin="round" stroke-width="0.5"><title>2024-04-08 3.0km</title><desc>9223370324277236884</desc></polyline><polyline fill="none" points="147.99327688664198,198.16987970122136 147.99327688664198,199.86798183480278 149.12332141492516,202.24532316066325 151.10089933872223,203.94342292216606 153.3609883962199,204.9622823037207 157.88116651028395,205.98114133020863 162.68385575618595,205.3019020180218 168.89910066127777,200.8868426408153 170.02914519049227,199.1887411007192 171.44170085061342,194.4340515276417 170.87667858600616,187.64162440481596 172.5717453788966,178.1321998552885 173.4192787753418,168.28312031319365 173.13676764350384,163.52838035440072 170.02914519049227,157.4151318720542 166.63901160564274,155.37737953127362 160.42376669868827,155.0377540020272 153.92601065989584,157.4151318720542 150.8183882078156,160.81138261058368 149.12332141492516,164.88687827647664 147.42825462296605,175.0755925225094 146.58072122652084,186.28313708025962 146.8632323583588,197.15101794642396 149.12332141492516,201.2264628307894 154.77354405727237,204.9622823037207 156.75112198106945,205.64152169390582 162.68385575618595,204.9622823037207 166.07398934010416,202.58494319207966 169.74663405772299,197.15101794642396 172.85425651073456,186.6227589712944 175.11434556823224,177.11333109950647 175.11434556823224,167.60387222189456 174.83183443639427,163.18875577487051 172.5717453788966,158.43400750937872 170.5941674541682,156.3962558801286 165.79147820919752,154.01887718006037 160.70627783052623,153.0 158.1636776421219,153.6792514922563 153.64349952805787,156.3962558801286 148.8408102830872,162.50950649613515 147.14574349019676,166.5849997883197 145.16816556546837,177.79257697588764 145.16816556546837,188.32086782786064 145.73318783007562,195.45291423029266 146.29821009375155,197.49063857039437 149.40583254676312,201.56608298025094 155.05605518817902,205.3019020180218 159.0112110376358,206.66038048220798 163.24887801986188,206.32076092623174 168.6165895294398,199.86798183480278 170.87667858600616,194.09443054674193 173.70178990717977,183.56616053706966 174.26681217178702,173.37747595249675 173.70178990717977,162.84913115529343 168.89910066127777,153.6792514922563 161.27130009513348,153.0 156.46861084923148,154.69812843413092 150.8183882078156,158.77363264304586 147.99327688664198,164.88687827647664 146.29821009375155,175.0755925225094 145.45067669730633,185.26427117432468 144.60314330086112,191.37746127904393 145.73318783007562,197.83025915618055 150.53587707597762,203.26418313616887 158.44618877395988,207.0 160.42376669868827,207.0 167.48654500115663,203.26418313616887 171.15918971784413,198.16987970122136 172.85425651073456,187.64162440481596 175.3968567000702,177.79257697588764 175.11434556823224,167.60387222189456 173.70178990717977,161.83025706070475 171.72421198245138,158.0943823370617 166.92152273841202,154.35850282688625 160.70627783052623,153.33962576650083 156.46861084923148,154.69812843413092 150.8183882078156,159.45288278977387 148.8408102830872,164.20762939355336 147.7107657538727,174.0567227001302 146.8632323583588,179.83031365601346 146.01569896191359,190.35859715146944 146.58072122652084,196.47177657904103 148.27578801941127,200.54722241102718 151.10089933872223,203.60380304954015 156.46861084923148,205.98114133020863 162.11883349251002,205.98114133020863 166.63901160564274,203.60380304954015 169.18161179404706,200.54722241102718 171.44170085061342,189.6793542020023 173.4192787753418,179.490690974053 174.26681217178702,169.6416160208173 173.4192787753418,160.47175771533512 172.00672311428934,158.77363264304586 166.92152273841202,155.37737953127362 162.9663668880239,154.01887718006037 158.44618877395988,154.69812843413092 154.2085217917338,156.7358812505845 151.10089933872223,161.15100746764801 148.8408102830872,171.0001110949088 147.42825462296605,181.52842646744102 145.73318783007562,191.37746127904393 145.73318783007562,194.09443054674193 147.14574349019676,198.849120674422 150.25336594320834,202.92456318368204 154.4910329245031,205.3019020180218 159.0112110376358,206.32076092623174 162.9663668880239,205.64152169390582 164.9439448127523,204.6226625496056 168.05156726483256,201.2264628307894 170.87667858600616,194.4340515276417 172.85425651073456,185.26427117432468 175.11434556823224,174.39634601329453 174.549323303625,165.56612700037658 173.4192787753418,160.81138261058368 170.31165632233024,157.4151318720542 164.9439448127523,154.01887718006037 160.70627783052623,153.6792514922563 156.75112198106945,154.69812843413092 151.6659216042608,159.11325773620047 149.6883436795324,162.84913115529343 148.27578801941127,174.0567227001302 147.14574349019676,183.56616053706966 146.01569896191359,193.41518846689723 147.14574349019676,199.1887411007192 149.6883436795324,202.92456318368204 153.3609883962199,204.9622823037207 157.88116651028395,205.98114133020863 162.40134462341666,205.64152169390582 167.20403386838734,201.90570309013128 170.31165632233024,195.113293368835 172.28923424705863,185.9435151515063 173.98430103994906,174.73596928780898 174.549323303625,165.56612700037658 173.13676764350384,161.15100746764801 168.33407839760184,156.05663047009148 164.37892254907638,154.35850282688625 157.59865537751466,155.37737953127362 153.64349952805787,157.75475712423213 150.53587707597762,161.490632283967 147.99327688664198,171.0001110949088 146.58072122652084,181.86804891144857 145.16816556546837,192.0567038343288 145.16816556546837,195.79253505310044 146.29821009375155,198.849120674422" stroke="#4DD2FF" stroke-linecap="round" stroke-linejoin="round" stroke-width="0.5"><title>2024-03-31 3.1km</title><desc>9223370324967953336</desc></polyline><polyline fill="none" points="46.84200881049037,264.496709730709 49.51931660622358,262.351030732505 51.00670982711017,259.84773667366244 52.19662440009415,250.90738408989273 53.68401762098074,239.8213107404299 54.57645355351269,226.94711082126014 54.57645355351269,224.08617017534561 53.68401762098074,221.2252268642187 52.19662440009415,218.72189928242005 50.11427389457822,216.93380690156482 44.75965830311179,214.43047582055442 36.7277349177748,215.14571348042227 34.347905764356256,216.57618830096908 31.075640682131052,221.2252268642187 29.58824746310711,231.95375053654425 28.100854244083166,242.32462112489156 26.31598237901926,252.3378422537353 26.018503734841943,255.1987565786112 27.208418311551213,260.20535023510456 28.695811530575156,262.351030732505 30.778162037953734,264.13909666775726 35.835298985242844,265.9271615622565 41.48739322088659,265.9271615622565 45.94957287982106,263.7814835635945 49.221837962046266,260.20535023510456 50.11427389457822,257.70205442700535 51.00670982711017,247.6888507900294 52.19662440009415,238.03323064674623 53.68401762098074,228.01996287540533 53.38653897680342,222.65569885331206 50.70923118107021,218.36428088904358 46.54453016631305,215.50333224749193 41.48739322088659,214.43047582055442 39.10756406933069,214.78809467121027 34.347905764356256,216.93380690156482 32.26555525884032,218.72189928242005 30.778162037953734,221.2252268642187 29.290768817067146,231.95375053654425 27.505896953865886,242.32462112489156 26.31598237901926,251.9802277747076 26.018503734841943,256.986826678738 28.100854244083166,261.27819067053497 31.670597970485687,264.496709730709 36.13277762942016,266.28477441566065 40.89243593253195,265.9271615622565 45.05713694728911,264.13909666775726 48.32940203137696,261.27819067053497 50.411752538755536,256.6292127412744 51.60166711360216,246.616005606018 52.79158168844879,234.81468385178596 53.98149626515806,225.15902322926559 53.089060332626104,220.50999062042683 51.60166711360216,218.36428088904358 47.436966098845005,214.78809467121027 42.67730779759586,213.71523799351417 37.620170848444104,214.07285692705773 33.45546983368695,216.57618830096908 30.480683393776417,220.50999062042683 28.39833288639784,230.16566586028785 26.910939667373896,241.96700548008084 25.721025090664625,253.76829974888824 26.018503734841943,258.05966823827475 29.58824746310711,263.06625723070465 31.37311932630837,264.496709730709 36.43025627359748,266.28477441566065 41.48739322088659,266.28477441566065 45.652094235643744,264.13909666775726 48.92435931786895,260.9205772341229 50.70923118107021,256.6292127412744 52.494103046134114,245.90077527542599 53.68401762098074,235.17230032919906 54.873932195827365,226.5894933855161 53.38653897680342,219.7947542106267 51.00670982711017,216.57618830096908 45.94957287982106,213.35761901712976 43.86722237057984,213.0 39.405042711645365,213.35761901712976 35.537820341065526,214.78809467121027 31.96807661280036,218.00666245422326 29.885726107284427,221.94046294293366 28.100854244083166,231.95375053654425 26.613461023196578,243.03985228808597 25.12606780230999,253.41068543680012 25.423546448349953,257.70205442700535 26.613461023196578,260.9205772341229 29.290768817067146,263.7814835635945 33.45546983368695,265.9271615622565 37.91764949262142,266.64238722855225 44.462179658934474,264.85432275081985 49.221837962046266,260.5629637551028 51.00670982711017,256.6292127412744 52.19662440009415,245.5431600480806 53.38653897680342,234.81468385178596 54.57645355351269,224.44378790236078 53.68401762098074,220.1523724363651 51.00670982711017,216.57618830096908 47.436966098845005,214.07285692705773 41.78487186320126,213.0 37.620170848444104,213.35761901712976 34.05042712017894,215.50333224749193 30.1832047495991,220.50999062042683 28.100854244083166,231.5961336849723 26.910939667373896,241.25177406682633 25.423546448349953,251.9802277747076 25.423546448349953,255.91398474294692 27.208418311551213,260.20535023510456 30.1832047495991,263.42387041822076 35.24034169688821,265.9271615622565 40.000000001862645,266.28477441566065 44.1647010166198,264.85432275081985 47.73444474302232,262.351030732505 49.8167952504009,258.41728200926445 51.89914575777948,250.54976944578812 53.089060332626104,240.5365424877964 54.278974909335375,230.16566586028785 53.98149626515806,223.72855240781792 52.494103046134114,219.43713594204746 48.92435931786895,215.86095097311772 44.462179658934474,213.71523799351417 39.405042711645365,213.71523799351417 35.24034169688821,215.14571348042227 31.670597970485687,218.72189928242005 29.58824746310711,223.01331674586982 28.39833288639784,234.45706733339466 26.613461023196578,244.8279294676613 25.423546448349953,255.1987565786112 27.208418311551213,260.20535023510456 31.670597970485687,264.496709730709 37.02521356008947,266.28477441566065 44.1647010166198,264.85432275081985 48.62688067369163,261.27819067053497 50.70923118107021,255.1987565786112 51.89914575777948,245.18554477882572 53.68401762098074,234.45706733339466 54.873932195827365,228.01996287540533 53.68401762098074,221.94046294293366 50.411752538755536,216.93380690156482 46.84200881049037,214.43047582055442 42.08235050737858,213.35761901712976 37.32269220612943,213.71523799351417 33.15799118950963,216.21856965776533 30.480683393776417,219.7947542106267 27.803375598043203,228.73519737063907 26.613461023196578,239.10607882705517 25.423546448349953,249.11931045050733 25.423546448349953,256.6292127412744 27.208418311551213,260.9205772341229 30.480683393776417,264.13909666775726 37.32269220612943,267.0 40.89243593253195,267.0 45.35461558960378,264.85432275081985 48.92435931786895,261.63580406666733 51.00670982711017,257.34444057405926 51.89914575777948,246.25839046062902 53.38653897680342,239.10607882705517" stroke="#4DD2FF" stroke-linecap="round" stroke-linejoin="round" stroke-width="0.5"><title>2024-03-27 3.0km</title><desc>9223370325311596095</desc></polyline></svg>