<?xml version="1.0" encoding="utf-8" ?>
<svg baseProfile="full" height="300mm" version="1.1" viewBox="0,0,200,300" width="200mm" xmlns="http://www.w3.org/2000/svg" xmlns:ev="http://www.w3.org/2001/xml-events" xmlns:xlink="http://www.w3.org/1999/xlink"><defs /><rect fill="#222222" height="300" width="200" x="0" y="0" /><text fill="#FFFFFF" style="font-size:12px; font-family:Arial; font-weight:bold;" x="10" y="20">Over 3km Runs</text><text fill="#FFFFFF" style="font-size:4px; font-family:Arial" x="10" y="280">Runner</text><text fill="#FFFFFF" style="font-size:9px; font-family:Arial" x="10" y="290">王子阳</text><text fill="#FFFFFF" style="font-size:4px; font-family:Arial" x="65" y="280">SPECIAL TRACKS</text><rect fill="yellow" height="2.6" width="2.6" x="65" y="283" /><text fill="#FFFFFF" style="font-size:3px; font-family:Arial" x="70" y="285.5">Over 20.0 km</text><rect fill="red" height="2.6" width="2.6" x="65" y="287" /><text fill="#FFFFFF" style="font-size:3px; font-family:Arial" x="70" y="289.5">Over 40.0 km</text><text fill="#FFFFFF" style="font-size:4px; font-family:Arial" x="120" y="280">STATISTICS</text><text fill="#FFFFFF" style="font-size:3px; font-family:Arial" x="120" y="285">Number: 11</text><text fill="#FFFFFF" style="font-size:3px; font-family:Arial" x="120" y="290">Weekly: 1.8</text><text fill="#FFFFFF" style="font-size:3px; font-family:Arial" x="141" y="285">Total: 45.9 km</text><text fill="#FFFFFF" style="font-size:3px; font-family:Arial" x="141" y="290">Avg: 4.2 km</text><text fill="#FFFFFF" style="font-size:3px; font-family:Arial" x="167" y="285">Min: 3.0 km</text><text fill="#FFFFFF" style="font-size:3px; font-family:Arial" x="167" y="290">Max: 5.2 km</text><polyline fill="none" points="57.135773909278214,53.081458489294164 58.58795813843608,53.250209195073694 59.749705522321165,51.90020305919461 59.894923944957554,50.71894677495584 60.18536079209298,48.86268517340068 60.33057921472937,47.34392411308363 59.894923944957554,44.812652539345436 58.29752129223198,43.29388771287631 58.0070844469592,42.95638422656339 56.26446337066591,39.750097625888884 55.828808101825416,39.58134552533738 54.23140545003116,38.400080332532525 53.79575018025935,38.06257583468687 52.34356595110148,37.21881428535562 50.600944875739515,35.53128987865057 50.310508030466735,35.19378478813451 47.84179483912885,33.84376372897532 46.97048430144787,33.0 46.97048430144787,34.51877439778764 43.775678995996714,34.18126909818966 38.4025973463431,34.687527021742426 36.51475784741342,34.856279628234915 35.35301046445966,35.700042397598736 34.772136772051454,39.58134552533738 34.481699926778674,40.08760177495424 33.02951569668949,42.61888067028485 32.8842972740531,43.125135978451 32.01298673637211,45.82516163948458 31.28689462132752,48.86268517340068 30.270365660078824,51.562701350892894 28.96339985355735,52.91270776593592 28.672963007353246,53.250209195073694 26.349468240514398,57.13147062191274 26.204249816946685,58.31272226886358 25.913812970742583,58.98772282677237 24.60684716515243,61.181472712545656 23.445099780336022,63.88146852864884 23.15466293413192,64.38771724689286 22.57378924358636,66.91895848675631 22.138133973814547,68.77519956941251 21.121605013497174,70.12519175908528 20.83116816729307,70.63143854297232 20.25029447581619,72.6564241083106 20.25029447581619,72.6564241083106 21.702478705905378,78.05637334368657 21.557260282337666,78.2251214699354 22.57378924358636,80.92508911481127 23.880755050107837,82.44381895393599 24.89728401042521,83.28755714348517 27.801652469672263,84.30004239571281 29.979928814806044,84.63753734028433 30.560802505351603,84.80628478631843 32.1582051590085,85.31252702034544 32.739078850485384,85.48127439653035 36.51475784741342,85.65002175536938 37.095631539821625,85.31252702034544 37.82172365486622,84.80628478631843 39.564344730228186,84.30004239571281 40.87131053674966,84.46878987643868 42.178276343271136,84.80628478631843 45.08264480251819,86.15626372816041 47.55135799385607,84.97503221500665 49.87485276069492,83.79379984783009 50.02007118333131,83.62505229725502 51.7626922596246,80.58759340329561 51.90791068226099,80.25009762181435 52.779221220873296,78.73136574309319 51.61747383605689,76.20014280779287 51.61747383605689,76.03139447234571 51.61747383605689,76.03139447234571 51.61747383605689,76.03139447234571 52.19834752846509,70.46268963220064 52.19834752846509,68.43770134763326 52.34356595110148,67.93145388376433 52.634002797305584,67.08770776283927 53.069658066146076,65.06271529453807 53.360094911418855,63.88146852864884 53.65053175762296,62.531471178284846 53.79575018025935,62.0252218847163 53.94096860382706,61.012722826213576 54.52184229530394,59.49397306190804 55.39315283391625,58.31272226886358 56.26446337066591,57.30022090987768 56.55490021687001,56.62521965417545 56.84533706307411,56.11896852997597 57.280992331914604,55.612717248965055 58.58795813843608,53.92521184508223 59.31405025348067,52.91270776593592 59.45926867611706,52.74395702534821 59.749705522321165,52.0689538869774 59.894923944957554,50.8876977248583 60.04014236852527,49.87519176269416 60.33057921472937,48.35643164359499 60.33057921472937,46.33141595427878 59.894923944957554,44.13764612446539 59.02361340820789,42.61888067028485 57.42621075455099,40.93136184243485 55.683589679189026,39.243841271614656 54.23140545003116,37.72507126722485 52.779221220873296,36.20629985060077 52.0531291058287,35.700042397598736 50.4557264521718,35.19378478813451 49.00354222301394,34.856279628234915 48.132231685332954,34.856279628234915 46.82526587881148,34.856279628234915 45.80873691756278,34.687527021742426 44.50177111104131,34.51877439778764 43.775678995996714,34.35002175695263 42.61393161211163,34.51877439778764 41.597402651794255,34.687527021742426 40.14521842170507,34.856279628234915 38.54781576897949,35.02503221691586 37.38606838602573,35.02503221691586 36.51475784741342,35.19378478813451 35.78866573330015,35.36253734189086 35.207792040891945,35.700042397598736 34.91735519468784,35.86879489943385 34.772136772051454,36.03754738392308 34.19126308057457,36.88130954303779 33.31995254289359,38.23132809204981 32.30342358164489,39.58134552533738 31.8677683128044,40.25635382311884 30.851239351555705,41.77512147440575 30.706020928919315,42.112625204841606 30.560802505351603,42.112625204841606 29.68949196767062,44.13764612446539 29.25383669976145,45.48765867576003 28.81818143092096,46.8376701119123 27.511215624399483,48.69393401418347 26.639905085787177,50.21269382024184 26.204249816946685,52.0689538869774 25.913812970742583,54.431463649263605 25.478157702833414,56.62521965417545 25.3329392792657,57.30022090987768 24.89728401042521,58.81897271319758 24.46162874158472,60.168973131570965 24.171191895380616,60.67522300092969 24.025973472744226,61.181472712545656 23.445099780336022,62.86897062067874 22.86422608885914,64.21896769176237 22.71900766529143,64.55646678467747 22.57378924358636,64.89396580879111 21.992915551178157,66.24396120617166 21.557260282337666,67.59395548829343 21.412041859701276,68.26895221078303 21.121605013497174,69.7876938165864 20.83116816729307,70.46268963220064 20.39551289845258,71.47518283349928 20.105076052248478,71.98142919898964 19.814639206044376,73.33141873893328 19.66942078433931,74.1751616349211 19.66942078433931,74.3439101621043 19.66942078433931,74.68140716326889 19.66942078433931,74.8501556381816 19.959857629612088,76.70638770854566 20.83116816729307,78.39386957825627 21.702478705905378,79.4063578635687 22.57378924358636,80.75634126795921 23.445099780336022,82.10632355615962 25.3329392792657,83.62505229725502 27.22077877819538,84.46878987643868 28.96339985355735,85.14377962634899 30.851239351555705,85.81876909721177 32.59386042878032,86.49375828937627 33.61038938816637,86.66250554344151 34.626918349415064,87.0 35.93388415593654,86.83125278027728 36.950413117185235,86.66250554344151 37.82172365486622,86.49375828937627 39.564344730228186,86.3250110176159 40.29043684527278,86.3250110176159 41.01652895938605,86.3250110176159 41.597402651794255,86.3250110176159 43.48524214979261,86.66250554344151 43.775678995996714,86.66250554344151 44.35655268840492,86.49375828937627 45.373081649653614,86.15626372816041 46.680047455243766,85.65002175536938 49.43919749185443,84.13129489752464 50.310508030466735,83.62505229725502 50.746163298375905,83.28755714348517 51.7626922596246,80.4188455210533 52.924439643509686,78.39386957825627 53.21487648971379,77.88762520044111 53.360094911418855,77.04388422158081 53.50531333498657,76.03139447234571 53.50531333498657,75.01890409504995 53.50531333498657,74.00641309074126 53.50531333498657,72.6564241083106 53.50531333498657,71.81268042779993 53.50531333498657,70.46268963220064 53.50531333498657,68.77519956941251 53.65053175762296,66.4127105526859 53.79575018025935,64.38771724689286 53.94096860382706,63.54396929545328 55.24793441127986,61.35022258211393 56.70011864043772,59.15647292288486 57.42621075455099,57.97522188536823 59.16883183084428,55.10646581102628 59.45926867611706,52.74395702534821 60.04014236852527,49.87519176269416 60.18536079209298,48.69393401418347 60.18536079209298,46.33141595427878 59.31405025348067,44.47514936653897 58.0070844469592,42.95638422656339 56.11924494896084,40.59385786799248 55.24793441127986,39.41259340697434 54.23140545003116,38.56883255508728 52.19834752846509,36.88130954303779 51.61747383605689,36.375052299699746 50.4557264521718,35.700042397598736 49.14876064565033,35.36253734189086 47.69657641649246,35.36253734189086 46.680047455243766,35.19378478813451 45.80873691756278,35.02503221691586 44.50177111104131,34.856279628234915 43.775678995996714,34.687527021742426 42.90436845831573,34.51877439778764 41.88783949799836,34.687527021742426 40.43565526884049,34.856279628234915 39.128689461387694,35.02503221691586 37.96694207750261,35.02503221691586 36.80519469361752,35.02503221691586 35.498228886164725,35.53128987865057 35.207792040891945,35.700042397598736 35.062573618255556,35.86879489943385 34.91735519468784,36.03754738392308 34.481699926778674,36.375052299699746 33.75560781173408,37.72507126722485 33.61038938816637,37.89382355939597 33.46517096552998,38.06257583468687 33.174734119325876,38.73758475994691 32.8842972740531,41.437617673538625 32.739078850485384,42.112625204841606 32.59386042878032,43.125135978451 32.30342358164489,44.64390096208081 32.01298673637211,45.65641016664449 31.28689462132752,47.006421462865546 30.996457775123417,47.68142669228837 30.706020928919315,48.52518283785321 30.415584083646536,49.36893854709342 29.68949196767062,51.05644865776412 29.544273545965552,51.39395047072321 29.39905512239784,51.39395047072321 28.527744584716856,53.250209195073694 27.946870893239975,53.92521184508223 26.93034193199128,55.10646581102628 25.913812970742583,56.45646929705981 25.62337612453848,56.79396999441087 25.187720856629312,57.63772143225651 24.752065586857498,59.32522300106939 24.31641031894833,60.33772310556378 24.171191895380616,60.67522300092969 24.171191895380616,60.67522300092969 24.171191895380616,60.84397292218637 23.299881357699633,63.375219652894884 22.86422608885914,64.38771724689286 22.57378924358636,65.06271529453807 21.847697127610445,66.58145988115575 21.412041859701276,67.76270469476003 21.121605013497174,69.28144677134696 20.83116816729307,70.12519175908528 20.25029447581619,71.13768516934942 19.959857629612088,71.81268042779993 19.814639206044376,72.48767540673725 19.66942078433931,74.00641309074126 19.66942078433931,74.1751616349211 19.66942078433931,74.3439101621043 19.66942078433931,75.01890409504995 20.105076052248478,77.2126324523706 20.54073132108897,77.88762520044111 21.557260282337666,79.23760985943954 22.138133973814547,80.08134970534593 23.15466293413192,81.76882808865048 23.445099780336022,82.27507126366254 24.171191895380616,82.78131428232882 24.752065586857498,83.11880954063963 26.204249816946685,84.13129489752464 26.93034193199128,84.46878987643868 27.511215624399483,84.63753734028433 28.672963007353246,84.97503221500665 29.544273545965552,85.31252702034544 30.125147237442434,85.48127439653035 32.448642005212605,86.3250110176159 33.02951569668949,86.66250554344151 35.207792040891945,87.0 36.36953942477703,86.83125278027728 37.38606838602573,86.66250554344151 38.4025973463431,86.49375828937627 39.709563152864575,86.3250110176159 40.43565526884049,86.3250110176159 41.30696580559015,86.3250110176159 43.48524214979261,86.49375828937627 44.35655268840492,86.49375828937627 45.51830007135868,86.15626372816041 46.2443921873346,85.81876909721177 47.26092114765197,85.31252702034544 47.987013262696564,84.80628478631843 48.858323799446225,84.46878987643868 49.58441591542214,83.9625473812921 50.16528960689902,83.62505229725502 50.746163298375905,83.11880954063963 51.181818567216396,82.61256662674714 51.7626922596246,81.6000803289935 52.19834752846509,80.58759340329561 52.48878437373787,79.91260177083313 53.069658066146076,78.73136574309319 53.360094911418855,77.88762520044111 53.50531333498657,76.87513597367797 53.79575018025935,75.86264611943625 53.79575018025935,75.01890409504995 53.50531333498657,73.6689159492962 53.50531333498657,72.31892668805085 53.50531333498657,71.47518283349928 53.50531333498657,70.96893631154671 53.50531333498657,69.7876938165864 53.360094911418855,68.6064504670212 53.069658066146076,67.42520626378246 53.069658066146076,66.75020919227973 53.21487648971379,65.56896364677232 53.50531333498657,64.55646678467747 53.79575018025935,63.03772031550761 53.94096860382706,61.85647208546288" stroke="#4DD2FF" stroke-linecap="round" stroke-linejoin="round" stroke-width="0.5"><title>2025-05-06 3.1km</title><desc>9223370290319922807</desc></polyline><polyline fill="none" points="82.47547169774771,85.45536935818382 78.70566037669778,85.57376376481261 76.4641509433277,85.33697493944783 75.03773584868759,85.21858050872106 73.40754716936499,84.38981914927717 73.30566037679091,82.96908399707172 73.71320754708722,81.54834708338603 74.12075471645221,79.53563344082795 74.8339622640051,77.52291626413353 75.44528301851824,76.22056797205005 76.87169811269268,74.79982269275934 77.58490566024557,73.73426257795654 77.89056603703648,72.31351421645377 79.11320754652843,70.65597223583609 80.33584905648604,68.76163560827263 81.55849056597799,66.74889951071236 82.37358490563929,65.32814249023795 83.18867924483493,63.55219373770524 83.90188679192215,62.13143275456969 84.71698113204911,60.23708203691058 86.24528301879764,58.22433096857276 87.46792452782393,56.56676861108281 88.58867924520746,54.43561348586809 89.60754716955125,52.42285222897772 90.32075471710414,51.23887336777989 91.13584905676544,50.05489328317344 92.15471698110923,48.98931016144343 93.07169811287895,47.80532775318716 94.4981132070534,46.26614879351109 95.51698113186285,44.8453663806431 96.53584905620664,43.42458220617846 98.16603773552924,41.5302005673293 98.87924528261647,40.464609518880025 100.61132075451314,38.333424450363964 102.6490566036664,37.267830429947935 104.07547169784084,36.79423276928719 105.9094339623116,35.8470368613489 107.33584905648604,35.373438613605686 109.47547169774771,35.018239799072035 110.90188679285347,34.89984017016832 112.53207547171041,34.781440528691746 114.36603773618117,34.66304087534081 116.30188679229468,34.54464120918419 117.72830188693479,34.66304087534081 119.56226415093988,34.66304087534081 121.0905660376884,34.66304087534081 123.02641509426758,34.66304087534081 125.06415094342083,34.3078418407822 126.49056603759527,34.66304087534081 126.89811320789158,34.89984017016832 126.89811320789158,36.08383591182064 126.28679245337844,37.74142789468169 125.67547169839963,39.399017480085604 125.26792452810332,40.70140761532821 124.45283018890768,42.35899291979149 123.63773584924638,43.77977841475513 122.720754717011,45.4373592666816 122.31320754718035,46.62134412128944 121.70188679313287,48.515717344824225 120.98867924557999,50.52848546393216 120.58113207574934,51.83086295169778 119.86792452866212,53.60682986723259 119.25660377368331,55.26439650519751 118.44150943402201,57.15875544259325 117.83018867950886,58.342728187912144 117.11698113242164,60.23708203691058 116.30188679229468,62.36822637380101 115.79245283035561,63.78898706380278 115.28301886841655,64.97295295994263 114.67169811343774,66.27531403279863 114.06037735845894,67.93286234885454 113.04150943364948,70.18238837237004 112.63396226428449,71.12955590325873 112.12452830187976,73.02388861728832 111.20754716964439,74.79982269275934 110.59622641513124,76.45735868078191 110.18867924530059,77.64131148986053 109.57735849032179,78.94365816761274 109.06792452838272,80.71958307048772 108.04905660357326,82.37711049709469 106.7245283019729,83.91624096117448 105.29811320733279,85.10018606542144 103.26037735817954,85.33697493944783 101.42641509417444,85.21858050872106 99.89811320742592,85.21858050872106 98.47169811325148,85.33697493944783 96.84150943392888,85.45536935818382 95.3132075467147,85.45536935818382 93.37735849013552,85.21858050872106 91.849056603387,85.33697493944783 90.32075471710414,85.33697493944783 88.28301886748523,85.45536935818382 86.44905660348013,85.45536935818382 85.02264150930569,85.45536935818382 83.39245282998309,85.45536935818382 81.76226415066049,85.57376376481261 80.33584905648604,85.6921581592178 78.80754716927186,85.57376376481261 77.38113207509741,85.45536935818382 75.64905660320073,85.21858050872106 74.22264150902629,85.21858050872106 73.40754716936499,84.50821366615128 73.2037735846825,83.5610571912257 73.40754716936499,82.73229463363532 73.81509433919564,81.19316257955506 74.0188679243438,79.65402845898643 74.6301886793226,77.87810190499295 75.03773584868759,76.45735868078191 75.44528301851824,75.39180010650307 75.85283018834889,74.32624054152984 76.15849056607112,73.4974713063566 76.7698113201186,71.83993103809189 77.17735849041492,70.89276409416925 77.58490566024557,69.82720034662634 78.0943396226503,68.52484330965672 78.50188679201528,67.34088108269498 79.01132075442001,66.03852122079115 79.62264150893316,65.09134948230349 80.43773584859446,64.02578034065664 81.04905660357326,63.07860693894327 81.8641509427689,62.01303592626937 82.57735849032179,61.18425778695382 83.29056603787467,60.355479048448615 83.698113206774,59.64509679528419 84.41132075432688,58.22433096857276 85.12452830187976,57.39555008942261 85.9396226410754,56.448371208040044 86.65283018816262,55.737986533436924 87.26415094314143,54.909203856484964 88.3849056600593,53.37003443739377 89.19999999925494,52.18605655443389 89.81132075423375,51.35727130889427 90.32075471710414,50.64688347838819 90.8301886790432,49.58130090718623 91.23773584887385,48.39731911022682 91.74716981127858,47.56853112461977 92.56226415093988,46.26614879351109 92.96981132077053,45.674156335531734 93.68301886785775,44.72696776688099 94.39622641494498,43.66137969074771 95.21132075460628,42.35899291979149 95.61886792443693,41.648599511478096 96.128301886376,41.05660466803238 96.84150943392888,39.99101317988243 97.45283018844202,38.925420700223185 98.06415094342083,37.97822655364871 98.77735849050805,36.91263220296241 99.3886792450212,36.08383591182064 100.71320754708722,35.25503902125638 101.73207547189668,35.018239799072035 102.95471698092297,35.13663941633422 104.58490566024557,35.6102377618663 105.9094339623116,35.8470368613489 108.55849056597799,35.373438613605686 110.39245282998309,35.018239799072035 112.43018867867067,34.781440528691746 114.56981132086366,34.66304087534081 116.20000000018626,34.54464120918419 118.23773584933951,34.66304087534081 119.66415094351396,34.66304087534081 122.1094339620322,34.781440528691746 123.5358490566723,34.66304087534081 125.36981132114306,34.66304087534081 126.3886792450212,35.25503902125638 126.49056603759527,36.79423276928719 126.1849056603387,37.97822655364871 125.57358490582556,39.635815796558745 125.16603773646057,40.938205662649125 124.24905660422519,42.714189458289184 123.33207547198981,44.25337318854872 122.61886792443693,45.674156335531734 122.00754716992378,47.09493772080168 121.49811320751905,48.752513777813874 120.88679245254025,50.52848546393216 120.07169811334461,52.18605655443389 119.4603773583658,53.72522756329272 119.15471698110923,54.79080628196243 118.6452830187045,56.448371208040044 118.23773584933951,57.51394739456009 117.83018867950886,58.46112539537717 117.52452830178663,59.17150838195812 117.11698113242164,60.000287976814434 116.70943396259099,61.30265470093582 116.30188679229468,62.486623165314086 115.89433962292969,63.55219373770524 115.3849056600593,64.73615987843368 114.67169811343774,66.27531403279863 114.16226415103301,67.5776736260159 113.55094339605421,69.23522005882114 112.73584905685857,71.12955590325873 111.92075471673161,73.4974713063566 111.20754716964439,75.03661369497422 110.79999999981374,75.98377721442375 110.08679245272651,77.75970670382958 109.27169811306521,79.29884336853866 108.96603773534298,80.60118816245813 108.45660377340391,81.66674189374316 107.5396226416342,82.96908399707172 105.60377358505502,84.62660817033611 103.97358490573242,85.10018606542144 101.32452830206603,84.98179161024746 100.40754716983065,85.10018606542144 99.08301886776462,85.21858050872106 98.3698113206774,85.33697493944783 97.24905660375953,85.33697493944783 95.82264150958508,85.45536935818382 95.3132075467147,85.45536935818382 94.4981132070534,85.33697493944783 93.58113207528368,85.21858050872106 92.4603773583658,85.21858050872106 91.13584905676544,85.33697493944783 90.11698113149032,85.33697493944783 88.79245282988995,85.45536935818382 87.87547169812024,85.45536935818382 86.65283018816262,85.57376376481261 85.73584905592725,85.45536935818382 84.41132075432688,85.45536935818382 83.18867924483493,85.45536935818382 82.27169811259955,85.57376376481261 81.15094339568168,85.6921581592178 80.2339622634463,85.6921581592178 78.70566037669778,85.6921581592178 77.99245283007622,85.6921581592178 76.66792452801019,85.6921581592178 75.85283018834889,85.6921581592178 74.32452830160037,85.6921581592178 73.71320754708722,85.33697493944783 73.10188679210842,84.38981914927717 73.0,84.0346355268266 73.30566037679091,83.08747866051272 73.50943396193907,82.1403210114222 73.81509433919564,80.83797796641011 73.91698113176972,79.8908184581669 74.0188679243438,79.06205324665643 74.22264150902629,78.35168258857448 74.73207547096536,77.16773051291239 75.03773584868759,76.45735868078191 75.34339622594416,75.74698640790302 75.85283018834889,74.32624054152984 76.05660377349705,73.85265819507185 77.17735849041492,72.55030573240947 77.38113207509741,72.07672265195288 77.48301886767149,70.65597223583609 77.89056603703648,69.1168239642866 78.29811320733279,68.05125856574159 78.70566037669778,66.86729584971908 79.41886792425066,65.32814249023795 80.0301886787638,64.38097016466781 80.74339622631669,63.55219373770524 81.35471698036417,62.486623165314086 81.8641509427689,61.89463908597827 82.67924528289586,60.947463922784664 83.4943396220915,60.000287976814434 84.00377358449623,59.17150838195812 84.51320754690096,58.10593373677693 85.12452830187976,57.39555008942261 86.04150943364948,56.448371208040044 86.85660377331078,55.38279403070919 87.36603773571551,54.79080628196243 88.07924528280273,53.72522756329272 88.99622641457245,52.541250047972426 89.60754716955125,51.712465058779344 90.21886792453006,50.88367947062943 90.62641509436071,50.05489328317344 90.93207547115162,49.462902782368474 91.13584905676544,48.634115567430854 91.849056603387,47.33173444727436 92.56226415093988,46.26614879351109 93.07169811287895,45.555757807334885 93.88679245254025,44.49017050198745 94.70188679173589,43.187784672831185 95.21132075460628,42.24059404875152 95.82264150958508,41.411801610840484 96.53584905620664,40.464609518880025 97.35094339586794,39.043819913757034 97.86037735827267,38.333424450363964 98.47169811325148,37.38622981426306 99.08301886776462,36.55743386573158 99.79622641485184,35.728637317661196 101.22264150949195,35.13663941633422 102.34339622594416,35.13663941633422 103.15849056607112,35.25503902125638 104.07547169784084,35.373438613605686 105.19622641475871,35.49183819373138 106.01132075442001,35.49183819373138 107.03018867922947,35.373438613605686 108.04905660357326,35.13663941633422 109.06792452838272,35.018239799072035 110.49433962255716,34.89984017016832 112.32830188702792,34.781440528691746 114.56981132086366,34.66304087534081 116.50566037697718,34.54464120918419 118.849056603387,34.66304087534081 120.58113207574934,34.66304087534081 122.31320754718035,34.781440528691746 123.33207547198981,34.66304087534081 126.1849056603387,34.781440528691746 126.49056603759527,35.373438613605686 126.49056603759527,36.08383591182064 126.28679245337844,37.38622981426306 125.77735849050805,38.925420700223185 125.36981132114306,40.34621045261156 125.06415094342083,41.5302005673293 124.35094339586794,42.595790624269284 123.7396226413548,43.66137969074771 123.23018867941573,44.49017050198745 122.720754717011,45.4373592666816 122.31320754718035,46.502945690997876 122.00754716992378,47.33173444727436 121.60000000009313,48.870911975740455 121.19245283026248,50.05489328317344 120.07169811334461,52.541250047972426 119.35849056579173,54.43561348586809 118.849056603387,55.97478147374932 118.23773584933951,57.51394739456009 117.62641509436071,58.93471410230268 117.11698113242164,60.11868501303252 116.81132075469941,61.18425778695382 116.40377358533442,62.13143275456969 115.99622641503811,63.43379705643747 115.69056603778154,64.14417696080636 115.3849056600593,64.73615987843368 115.07924528326839,65.44653897569515 114.46792452828959,66.74889951071236 114.06037735845894,67.81446612032596 113.75471698120236,68.76163560827263 113.44905660394579,69.47201221028809 112.73584905685857,70.89276409416925 112.53207547171041,71.7215352129424 112.32830188702792,72.66870147176087 111.92075471673161,73.4974713063566 111.51320754690096,74.32624054152984 110.79999999981374,75.86538181721698 110.59622641513124,76.57575401652139 110.18867924530059,77.40452102595009 109.67924528289586,78.58847285690717 109.37358490563929,79.41723841079511 108.96603773534298,80.71958307048772 108.45660377340391,81.78513669141103 108.04905660357326,82.25871576019563 106.82641509454697,83.67945179343224 105.29811320733279,84.86339714261703 103.97358490573242,85.21858050872106 102.75094339624047,85.21858050872106 100.91698113176972,85.21858050872106 99.08301886776462,85.33697493944783 97.24905660375953,85.33697493944783 95.1094339620322,85.33697493944783 93.27547169756144,85.21858050872106 91.849056603387,85.33697493944783 90.32075471710414,85.33697493944783 88.28301886748523,85.45536935818382 87.26415094314143,85.45536935818382 85.02264150930569,85.45536935818382 83.698113206774,85.45536935818382 81.35471698036417,85.57376376481261 80.43773584859446,85.6921581592178 79.41886792425066,85.6921581592178 78.29811320733279,85.57376376481261 77.58490566024557,85.45536935818382 76.26037735817954,85.33697493944783 75.44528301851824,85.33697493944783 74.6301886793226,85.33697493944783 73.81509433919564,84.98179161024746 73.2037735846825,84.38981914927717 73.10188679210842,83.79784638318233 73.30566037679091,83.08747866051272 73.50943396193907,82.1403210114222 73.81509433919564,80.95637284975965 74.0188679243438,80.00921343953814 74.42641509370878,78.82526307599619 74.6301886793226,78.35168258857448 75.13962264126167,76.69414934015367 75.24150943337008,76.45735868078191" stroke="#4DD2FF" stroke-linecap="round" stroke-linejoin="round" stroke-width="0.5"><title>2025-05-04 5.0km</title><desc>9223370290536885807</desc></polyline><polyline fill="none" points="135.59040590422228,76.9034149631625 136.58671586727723,74.47215918137226 136.487084871158,73.6617394152563 137.98154981574044,70.76737832417712 138.47970479680225,70.0727305499604 138.57933579338714,69.26230760267936 139.87453874573112,65.90483486384619 141.86715867137536,62.77890292694792 143.95940959407017,59.88451372960117 146.1512915128842,56.41123682574835 147.14760147640482,54.790370586677454 149.3394833947532,52.474843321484514 151.13284132862464,49.81198105192743 151.92988929897547,48.07532833667938 152.4280442809686,47.2648894819431 152.8265682659112,46.454450040939264 154.91881918814033,43.791573466034606 157.11070110742003,40.665579847525805 159.20295202964917,37.423799477750435 160.29889298928902,36.03446216240991 160.99630996305496,35.57134934118949 161.89298892999068,35.33979285904206 165.38007380114868,35.68712756468449 168.7675276757218,35.80290577618871 172.65313653135672,36.03446216240991 176.2398523981683,35.68712756468449 179.12915129121393,36.03446216240991 182.2177121769637,35.224014600156806 185.30627306271344,34.87667975097429 186.10332103306428,34.87667975097429 186.60147601505741,35.45557110628579 186.80073800729588,36.150240337941796 185.40590405883268,39.16046869906131 184.11070110695437,42.51802156295162 183.2140221404843,45.875564367626794 182.01845018472522,49.23309711238835 180.12546125473455,52.59061979816761 179.7269372693263,53.2852784084389 179.7269372693263,53.86416025436483 179.3284132843837,54.32726551638916 177.83394833980128,57.91632480581757 177.13653136510402,60.00028944085352 176.6383763840422,60.5791678186506 175.44280442781746,63.82088120758999 174.54612546088174,66.48371019156184 172.95202952064574,69.72540650167502 171.4575645760633,73.43019080336671 170.06273062713444,76.78764099802356 168.6678966791369,80.37662836036179 167.67158671608195,82.92364467692096 164.7822878230363,85.12333592888899 161.19557195575908,85.00756281265058 157.50922509189695,85.12333592888899 153.72324723284692,85.2391090329038 150.2361623616889,85.35488212504424 146.8487084871158,85.35488212504424 143.56088560912758,85.35488212504424 140.3726937272586,85.35488212504424 137.1845018453896,85.35488212504424 134.7933579334058,85.2391090329038 134.0959409591742,85.00756281265058 133.19926199270412,83.73405774566345 133.29889298928902,82.92364467692096 134.7933579334058,79.45043917326257 135.98892988916487,75.86144884559326 137.1845018453896,72.27244702458847 138.57933579338714,68.68343371024821 139.97416974185035,65.44173438590951 141.96678966796026,62.31580115738325 144.3579335794784,59.30563499312848 146.05166051723063,56.41123682574835 147.14760147640482,55.369251655065455 149.14022140251473,52.474843321484514 150.93357933638617,50.043534543714486 152.4280442809686,46.8017813017359 152.8265682659112,46.107118672691286 155.21771217742935,43.21268641680945 157.3099630996585,40.08669118373655 159.3025830257684,36.96068723069038 159.90036900388077,36.26601850136649 160.59778597811237,35.68712756468449 163.7859778595157,35.224014600156806 165.67896678997204,35.10823632881511 169.16605166019872,34.64512312505394 172.45387453911826,34.64512312505394 175.64206642098725,34.760901443776675 178.83025830239058,34.52934479434043 182.41697417013347,34.760901443776675 185.90405904036015,34.52934479434043 186.60147601505741,34.99245804606471 187.0,35.80290577618871 185.60516605200246,39.39202439202927 184.80811808118597,41.82335627870634 183.1143911438994,45.180901164305396 182.01845018472522,48.1911052679643 181.42066420661286,50.50664138444699 180.52398523967713,51.89596075727604 180.32472324743867,52.59061979816761 180.02583025814965,53.053725586039945 179.92619926156476,53.86416025436483 178.730627306737,56.29546074336395 178.730627306737,56.99011705711018 177.43542435439304,59.537186523666605 177.2361623616889,60.46339216735214 175.64206642098725,63.82088120758999 174.24723247252405,67.06258522043936 173.05166051723063,70.53582911426201 171.65682656876743,73.89328797964845 170.16236162371933,77.01918891677633 168.86715867137536,80.37662836036179 167.67158671608195,83.50251121458132 164.48339483421296,85.35488212504424 160.7970479708165,85.2391090329038 157.21033210353926,85.12333592888899 153.52398523967713,85.2391090329038 149.93726937286556,85.2391090329038 146.2509225094691,85.2391090329038 142.66420664265752,85.2391090329038 139.07749077491462,85.2391090329038 135.49077490810305,85.35488212504424 134.39483394892886,85.47065520554315 134.0959409591742,84.19715066463687 133.59778597811237,83.61828448600136 133.69741697469726,82.69209797820076 135.09225092222914,79.33466547122225 135.39114391151816,77.48228461027611 136.58671586727723,74.00906224385835 138.18081180844456,70.53582911426201 139.47601476032287,66.83103524462786 140.1734317340888,64.97863371740095 142.3653136533685,61.85269919713028 144.55719557218254,58.84253178862855 145.5535055352375,57.33744505268987 147.54612546181306,55.25347546546254 149.6383763840422,51.89596075727604 151.2324723242782,49.580427511711605 151.43173431791365,48.76998974545859 152.92619926203042,46.107118672691286 155.01845018472522,43.44424127251841 157.01107011083513,40.665579847525805 158.7047970481217,37.423799477750435 159.90036900388077,35.91868397523649 161.79335793387145,35.33979285904206 165.38007380114868,35.10823632881511 168.7675276757218,35.10823632881511 172.25461254594848,35.224014600156806 175.84132841369137,35.10823632881511 178.43173431791365,35.224014600156806 179.8265682659112,35.224014600156806 180.52398523967713,35.10823632881511 184.01107011083513,34.64512312505394 185.90405904036015,34.52934479434043 186.60147601505741,34.99245804606471 187.0,35.80290577618871 185.60516605200246,39.276246551424265 184.70848708506674,41.93913385621272 184.50922509189695,42.86535404389724 183.91143911425024,43.3284638505429 183.01476014778018,44.94934666750487 181.91881918814033,48.538435990340076 181.61992619931698,49.34887392423116 181.61992619931698,50.27508798777126 181.02214022167027,50.969748033443466 179.62730627320707,54.21148921898566 178.13284132815897,57.56899698963389 177.33579335780814,59.30563499312848 176.83763837674633,60.11606514046434 175.64206642098725,63.58933056262322 174.24723247252405,66.94681023829617 173.05166051723063,70.30427985615097 171.55719557218254,73.54596511542331 170.16236162371933,76.9034149631625 168.7675276757218,80.1450811350951 167.87084870878607,82.57632461097091 167.2730627306737,83.27096463507041 164.98154981574044,84.89178968442138 161.39483394892886,85.12333592888899 157.70848708506674,85.12333592888899 154.02214022167027,85.2391090329038 150.43542435439304,85.2391090329038 147.64575645746663,85.2391090329038 144.1586715867743,85.12333592888899 140.6715867165476,85.12333592888899 137.8819188196212,85.2391090329038 137.08487084927037,84.77601654431783 134.9926199261099,85.35488212504424 133.39852398540825,85.00756281265058 133.0,84.31292386481073 134.4944649450481,80.7239491075743 135.2915129158646,78.87157054326963 135.09225092222914,78.29270161362365 136.487084871158,74.70370757835917 137.98154981574044,71.34625114058144 138.77859778609127,67.6414599501295 139.27675276715308,66.0206099532079 140.07380073843524,64.97863371740095 140.6715867165476,64.39975761214737 140.6715867165476,64.39975761214737" stroke="#4DD2FF" stroke-linecap="round" stroke-linejoin="round" stroke-width="0.5"><title>2025-05-03 5.0km</title><desc>9223370290623713404</desc></polyline><polyline fill="none" points="39.490630499087274,133.34095335094025 38.00170426722616,133.1588312991662 35.1805808795616,133.24989232979715 32.43782202992588,133.24989232979715 29.53833410423249,133.24989232979715 26.48211710061878,133.34095335094025 23.896087328903377,133.24989232979715 21.07496394077316,133.0677702591056 20.36968309432268,133.0677702591056 19.899495863355696,132.61246491823113 19.272579554934055,131.42866993136704 20.36968309432268,128.60576777759707 21.310057557187974,125.7828565845266 22.4071610965766,123.14206051023211 23.347535558976233,120.59231886296766 24.209545482881367,118.1336324326112 24.914826329797506,116.4034415744245 25.620107176713645,115.31068770366255 27.265762486495078,113.1251758983708 28.83305325731635,110.93965867423685 29.930156796704978,109.48264418117469 31.57581210602075,107.66137267800514 33.14310287684202,105.20265017962083 34.31857095519081,102.74392082297709 36.120955341961235,100.28518460789928 37.68824611278251,97.8264415343292 39.41226596059278,95.45875653676922 40.35264042299241,94.09278152970364 41.91993119381368,93.5463909341488 44.6626900434494,93.72852117015282 47.4054488921538,93.63745605701115 50.226572279818356,93.63745605701115 53.12606020597741,93.63745605701115 55.94718359364197,93.5463909341488 58.61157790385187,93.2731955096242 60.335597752127796,93.09106517909095 60.88414952158928,93.2731955096242 61.19760767603293,93.8195862743305 61.19760767603293,94.45704173849663 60.2572332136333,96.82472942699678 59.16012967377901,99.46560434554704 58.14139067288488,101.83327858016128 57.04428713303059,104.56520248652669 56.49573536356911,106.11328894179314 55.71208997769281,107.11499049322447 55.47699636220932,108.48094532015966 54.301528283860534,110.93965867423685 52.969331128988415,113.85368043545168 52.10732120461762,116.31237880361732 51.16694674268365,118.68000778759597 50.226572279818356,121.32081722910516 49.20783327892423,123.4152466779924 48.97273966297507,124.59905242623063 48.34582335501909,125.7828565845266 48.189094277564436,126.60241237853188 47.3270843536593,127.87727543211076 47.3270843536593,128.60576777759707 47.09199073817581,129.33425952144898 46.38670989125967,130.42699600820197 45.99488719832152,131.24654748430476 43.80068011954427,132.7035260053235 42.860305656678975,133.24989232979715 41.91993119381368,133.4320143625955 39.02044326765463,133.34095335094025 36.27768441895023,133.24989232979715 34.94548726361245,133.4320143625955 32.35945749189705,133.24989232979715 29.85179225821048,133.34095335094025 27.344127024989575,133.61413635796634 24.366274560336024,133.61413635796634 22.250432019121945,133.97838023561053 19.977860401850194,133.70519734133268 18.959121400490403,133.0677702591056 18.567298708017915,132.0660981988185 19.664402247406542,129.69850516761653 20.68314124830067,127.33090577763505 21.701880249660462,124.78117624635343 22.642254712060094,122.23143934021937 23.73935825144872,119.590632626554 24.679732714314014,117.31406876514666 26.16865894664079,114.7643102601869 27.892678794451058,112.4877339345403 29.303240488283336,110.39327852154383 31.105624875053763,108.38988173089456 32.59455110738054,105.84009741188493 33.22146741580218,104.9294583676965 34.16184187820181,102.9260491586756 35.80749718751758,100.74050664663082 37.29642341984436,98.46389410091797 38.94207872962579,96.09621081547812 40.19591134600341,94.27491165301763 40.509369500447065,94.00171645404771 41.60647303983569,93.63745605701115 42.70357657922432,93.63745605701115 45.211241812910885,93.5463909341488 48.11072973860428,93.5463909341488 50.696759511251,93.5463909341488 53.59624743741006,93.5463909341488 56.18227720912546,93.45532580220606 58.92503605829552,93.1821303491015 60.49232682911679,93.0 60.96251406054944,93.36426066042623 61.19760767603293,93.8195862743305 61.19760767603293,94.36597670061747 60.2572332136333,96.82472942699678 59.23849421273917,99.46560434554704 59.003400596790016,100.10305572650395 58.689942442346364,100.64944225776708 57.59283890295774,103.29030571697513 56.57409990206361,105.84009741188493 55.39863182371482,108.48094532015966 55.08517366927117,109.48264418117469 54.06643466837704,111.4860384882777 52.969331128988415,114.21793247835012 51.950592127628624,116.67662983038463 50.85348858824,119.31744527368573 49.83474958734587,121.9582528055762 49.20783327892423,123.4152466779924 49.12946874042973,124.0526807399583 48.03236520057544,126.78453578450717 47.562177969142795,127.42196741013322 47.4838134306483,128.15046013216488 47.17035527667031,128.87895225227112 46.70016804523766,129.4253209469607 46.151616275310516,130.88230247807223 44.50596096646041,132.24822047608905 43.33049288811162,132.79458708281163 40.66609857743606,132.9767092098482 37.68824611278251,132.8856481508701 35.102216341067106,133.0677702591056 32.6729156463407,133.24989232979715 29.695063181221485,133.34095335094025 26.79557525506243,133.4320143625955 24.052816405892372,133.4320143625955 21.231693018693477,133.4320143625955 19.977860401850194,132.9767092098482 19.272579554934055,132.1571593422559 19.1158504774794,131.70185353065608 19.194215016439557,131.06442499993136 19.507673170417547,130.6091186243575 19.821131324395537,130.33593468612526 20.526412171311677,127.69515225151554 21.545151172671467,124.78117624635343 22.4071610965766,122.50462579005398 23.504264635965228,119.7727574815508 24.52300363732502,117.04088070685975 26.090294408146292,114.7643102601869 27.579220640473068,112.57879710028647 29.14651141129434,110.39327852154383 30.008521335199475,109.57370765745873 31.654176644515246,107.29711792583112 32.20272841490805,106.84179927385412 32.43782202992588,106.20435276615899 33.14310287684202,105.02052231435664 34.24020641669631,102.56179244961822 35.96422626497224,100.37624903436517 37.60988157428801,98.0996355478419 39.02044326765463,96.00514594686683 40.35264042299241,94.18384659610456 41.76320211729035,93.72852117015282 44.42759642750025,93.63745605701115 47.01362619921565,93.63745605701115 49.52129143290222,93.45532580220606 52.10732120461762,93.5463909341488 54.77171551575884,93.45532580220606 57.357745287474245,93.2731955096242 59.94377505918965,93.0 60.57069136761129,93.0 61.040878599043936,93.1821303491015 61.27597221452743,93.5463909341488 61.432701291982085,94.27491165301763 60.335597752127796,96.91579421114875 59.316858750768006,99.19241075520404 58.45484882686287,101.01369975687703 57.51447436399758,103.56349803722696 56.49573536356911,105.93116126436507 55.633725439663976,107.66137267800514 55.08517366927117,109.48264418117469 53.988070129882544,111.75922826828901 52.89096659049392,114.21793247835012 51.79386305063963,117.13194340222981 50.85348858824,119.13532032468356 50.1482077408582,121.59400396118872 49.05110420193523,124.0526807399583 48.03236520057544,126.60241237853188 47.71890704613179,127.148782484408 47.17035527667031,128.97001372510567 46.543438968248665,130.06275066302624 46.46507442975417,130.70017991837813 46.151616275310516,131.24654748430476 45.211241812910885,132.1571593422559 44.897783658932894,132.7035260053235 44.6626900434494,135.2532326222281 44.50596096646041,136.25490106124198 44.6626900434494,136.80126518482575 44.34923188900575,137.98505295725772 44.34923188900575,140.8079250762239 44.34923188900575,143.44866823032498 44.27086735051125,145.36092557641678 44.42759642750025,147.0" stroke="#4DD2FF" stroke-linecap="round" stroke-linejoin="round" stroke-width="0.5"><title>2025-05-02 5.0km</title><desc>9223370290712225619</desc></polyline><polyline fill="none" points="103.26944187097251,94.36710086534731 101.56364611163735,93.68355051195249 99.57355105876923,93.68355051195249 95.02476237062365,95.73420109483413 91.32887155935168,98.81017428310588 88.77017792221159,105.30388486827724 87.63298074901104,115.55708285840228 85.9271849906072,126.15201648091897 85.35858640447259,131.27858353639022 85.64288569707423,133.67097843042575 89.3387765083462,140.848151412094 90.76027297321707,142.89876904105768 94.74046307615936,144.94938523694873 97.01485742162913,145.63292364939116 102.13224469777197,145.2911544633098 104.69093833584338,144.26584666315466 108.38682914618403,141.18992111622356 110.6612234916538,136.06337137450464 112.08271995745599,125.8102450252045 113.50421642232686,116.58240068587475 114.07281500846148,106.6709800043609 113.50421642232686,102.22791848797351 111.22982207778841,98.46839964319952 108.10252985358238,95.73420109483413 103.8380404561758,94.36710086534731 97.01485742162913,95.39242609776556 92.46606873162091,99.49372344184667 89.90737509354949,104.27856310061179 88.48587862867862,111.45580796082504 88.48587862867862,121.70898445765488 87.63298074901104,131.27858353639022 87.63298074901104,136.40514163533226 88.77017792221159,139.48107219696976 92.18176943901926,143.24053850607015 95.30906166415662,144.94938523694873 99.00495247356594,145.63292364939116 104.1223397506401,143.5823079321999 108.38682914618403,140.16461188532412 111.22982207778841,130.25327084120363 113.50421642232686,119.316579811275 114.35711430199444,115.89885550620966 114.35711430199444,106.6709800043609 112.93561783619225,100.86082128318958 108.10252985358238,95.0506510604173 104.40663904324174,93.34177527576685 99.57355105876923,93.68355051195249 94.74046307615936,96.0759760523215 90.47597368154675,100.86082128318958 87.06438216380775,109.40516836266033 86.49578357674181,115.89885550620966 86.49578357674181,126.4937878975179 86.21148428414017,131.27858353639022 87.91728004347533,137.77222228446044 90.19167438708246,141.5316907807719 95.8776602493599,144.26584666315466 99.57355105876923,144.26584666315466 106.68103338778019,141.87346040527336 108.95542773324996,139.1393022944685 110.37692419812083,135.37983073247597 111.7984206629917,125.4684735306073 113.50421642232686,117.26594570698217 113.78851571585983,107.01275368803181 113.50421642232686,103.25324097275734 112.08271995745599,99.49372344184667 109.23972702585161,97.10130068752915 104.40663904324174,94.70887598325498 98.72065318096429,94.70887598325498 94.17186449095607,97.44307548669167 91.61317085288465,100.17727244226262 89.3387765083462,109.06339495792054 88.20157933514565,118.29126293724403 87.3486814564094,128.20264437724836 86.49578357674181,133.32920785131864 88.77017792221159,140.16461188532412 94.17186449095607,144.6076159698423 97.58345600869507,145.63292364939116 104.40663904324174,144.94938523694873 107.2496319739148,142.89876904105768 110.09262490551919,138.4557623686269 111.7984206629917,127.17733060801402 114.35711430199444,116.58240068587475 114.64141359552741,106.6709800043609 114.64141359552741,104.62033706274815 111.7984206629917,98.12662496371195 109.52402631845325,95.73420109483413 103.55374116357416,93.68355051195249 99.00495247356594,94.02532570902258 95.02476237062365,96.4177509706933 92.7503680260852,98.12662496371195 89.90737509354949,103.59501505549997 88.77017792221159,115.21531016845256 87.06438216380775,125.8102450252045 86.21148428414017,134.01274897018448 87.3486814564094,138.1139923464507 93.31896661128849,143.9240773175843 99.00495247356594,147.0 100.7107482329011,147.0 103.8380404561758,146.3164619039744 108.38682914618403,140.848151412094 110.6612234916538,134.6962899309583 112.08271995745599,124.78493042080663 113.21991712972522,114.87353744008578 114.35711430199444,104.96211098553613 113.50421642232686,101.54436996486038 111.51412137039006,98.12662496371195 106.68103338778019,94.70887598325498 99.57355105876923,94.02532570902258 97.86775530129671,94.36710086534731 93.31896661128849,97.44307548669167 89.62307580094784,103.59501505549997 88.77017792221159,105.30388486827724 88.20157933514565,115.89885550620966 87.06438216380775,126.4937878975179 86.21148428414017,131.62035435438156 88.20157933514565,139.8228420612868 93.03466731868684,144.26584666315466 98.15205459389836,145.63292364939116 103.55374116357416,144.6076159698423 108.671128439717,140.50638166884892 111.22982207778841,134.01274897018448 112.08271995745599,124.1013871524483 114.07281500846148,113.8482190137729 113.78851571585983,103.25324097275734 112.65131854265928,100.17727244226262 107.53393126837909,95.73420109483413 102.98514257743955,94.36710086534731 100.14214964676648,94.02532570902258 97.2991567151621,94.70887598325498 91.32887155935168,99.49372344184667 87.3486814564094,107.35452733188868 86.49578357674181,117.6077181568835 85.9271849906072,127.51910190470517 87.91728004347533,137.08868203917518 89.90737509354949,140.50638166884892 94.74046307615936,143.5823079321999 100.4264489384368,143.9240773175843 106.39673409517854,140.848151412094 109.80832561291754,137.08868203917518 111.7984206629917,126.4937878975179 114.35711430199444,116.24062811629847 114.35711430199444,106.3292062797118 114.07281500846148,102.56969268922694 110.6612234916538,98.12662496371195 104.40663904324174,94.36710086534731 100.7107482329011,94.02532570902258 93.60326590575278,97.10130068752915 89.90737509354949,103.25324097275734 88.20157933514565,112.48112722230144 87.06438216380775,115.89885550620966 86.49578357674181,125.4684735306073 85.9271849906072,130.936812678352 87.91728004347533,138.1139923464507 91.04457226675004,142.21522999042645 93.88756519835442,144.26584666315466 99.00495247356594,145.63292364939116 102.41654399130493,144.94938523694873 106.96533268038183,141.87346040527336 109.52402631845325,137.08868203917518 111.22982207778841,126.4937878975179 112.65131854265928,115.89885550620966 114.07281500846148,106.6709800043609 112.36701925005764,100.17727244226262 107.53393126837909,95.39242609776556 102.70084328576922,93.68355051195249 99.28925176803023,94.02532570902258 94.74046307615936,96.75952584948391 90.47597368154675,101.88614424667321 88.48587862867862,112.13935417402536 87.3486814564094,122.7343001361005 86.78008286934346,132.30389587231912 86.78008286934346,136.06337137450464 89.05447721574455,140.848151412094 94.45616378355771,144.94938523694873 99.57355105876923,145.63292364939116 102.98514257743955,144.94938523694873 108.95542773324996,140.848151412094 110.6612234916538,135.03806035104208 111.7984206629917,124.78493042080663 112.65131854265928,115.21531016845256 114.35711430199444,108.03807450225577 113.78851571585983,102.9114668504335 111.22982207778841,97.78485024510883 104.69093833584338,94.36710086534731 97.2991567151621,95.0506510604173 91.89747014641762,99.83549796231091 88.48587862867862,107.69630093686283 87.63298074901104,118.29126293724403 86.21148428414017,129.22795778838918 85.9271849906072,134.35451947012916 88.77017792221159,140.16461188532412 92.18176943901926,143.5823079321999 97.58345600869507,144.6076159698423 102.98514257743955,143.5823079321999 107.2496319739148,140.50638166884892 110.09262490551919,134.35451947012916 111.7984206629917,123.75961545784958 113.21991712972522,113.8482190137729 114.07281500846148,104.62033706274815 110.94552278518677,98.46839964319952 108.38682914618403,95.73420109483413 105.54383621551096,94.36710086534731 100.7107482329011,93.0 97.2991567151621,94.36710086534731 91.04457226675004,100.86082128318958 88.48587862867862,110.77226158720441 87.3486814564094,118.29126293724403 85.9271849906072,124.1013871524483 85.35858640447259,132.98743723123334 87.3486814564094,138.4557623686269 89.05447721574455,140.848151412094 91.04457226675004,142.89876904105768 95.02476237062365,144.6076159698423 101.56364611163735,143.5823079321999 103.55374116357416,142.89876904105768 108.38682914618403,139.1393022944685 110.09262490551919,136.06337137450464 110.94552278518677,126.4937878975179 112.65131854265928,117.26594570698217 114.07281500846148,107.35452733188868 113.78851571585983,101.88614424667321 111.7984206629917,98.46839964319952 107.53393126837909,95.0506510604173 101.84794540517032,93.68355051195249 96.44625883549452,95.39242609776556 92.18176943901926,98.81017428310588 89.62307580094784,103.59501505549997 88.20157933514565,112.82290023029782 87.63298074901104,122.05075639020652 86.21148428414017,125.4684735306073 86.49578357674181,127.17733060801402 85.64288569707423,134.6962899309583 87.3486814564094,139.8228420612868 88.20157933514565,141.5316907807719 90.76027297321707,143.5823079321999 98.15205459389836,145.63292364939116 105.54383621551096,143.24053850607015 108.10252985358238,140.50638166884892 110.37692419812083,131.27858353639022 112.65131854265928,121.36721248459071 114.35711430199444,110.08871505456045 114.64141359552741,103.59501505549997 113.78851571585983,101.20259564346634 110.09262490551919,96.75952584948391 102.13224469777197,94.02532570902258 99.00495247356594,94.02532570902258 96.44625883549452,95.0506510604173 92.18176943901926,98.46839964319952 90.47597368154675,100.86082128318958 87.91728004347533,111.11403479427099 86.49578357674181,121.70898445765488 86.49578357674181,121.70898445765488" stroke="#4DD2FF" stroke-linecap="round" stroke-linejoin="round" stroke-width="0.5"><title>2024-06-05 5.2km</title><desc>9223370319263910188</desc></polyline><polyline fill="none" points="151.75532242003828,102.22791848797351 150.9024247387424,103.59501505503431 148.34373169671744,114.87353743985295 146.92223556246608,121.70898445742205 145.7850386556238,132.987437231699 146.63793633598834,137.08868203964084 148.9123301524669,141.18992111785337 151.75532242003828,144.26584666478448 155.4512123707682,145.9746927979868 159.71570077259094,146.3164619046729 163.6958899507299,145.29115446377546 167.1074806721881,142.89876904152334 170.2347721690312,136.74691185820848 171.65626830328256,126.49378789681941 173.07776443846524,115.55708285886794 174.21496134530753,107.01275368826464 173.64636289142072,102.56969269015826 170.2347721690312,97.10130068776198 168.81327603384852,95.73420109576546 164.8330868575722,94.36710086558014 160.2842992283404,94.70887598302215 156.01981082372367,96.41775097092614 153.17681855522096,99.49372344301082 151.1867239670828,102.91146685183048 149.48092860542238,112.82290022959933 148.05943247117102,122.73430013749748 146.63793633598834,133.67097843135707 147.77513324376196,139.48107219813392 150.33382628578693,142.89876904152334 155.4512123707682,145.9746927979868 159.43140154704452,146.3164619046729 163.12729149591178,145.29115446377546 169.0975752621889,140.16461188485846 171.37196907680482,135.37983073317446 172.22486675716937,125.46847353130579 174.49926057178527,115.89885550783947 175.0678590266034,106.32920628110878 173.64636289142072,101.202595643932 169.95047294255346,96.75952584901825 166.53888221923262,94.70887598302215 162.84299227036536,94.02532570902258 156.58840927761048,95.73420109576546 150.9024247387424,100.86082128365524 148.34373169671744,110.08871505502611 146.92223556246608,120.00012419535778 146.06933788210154,123.75961545854807 145.7850386556238,133.67097843135707 147.49083401728421,139.48107219813392 150.04952705837786,142.89876904152334 154.88261391595006,145.9746927979868 158.8628030931577,147.0 163.12729149591178,146.3164619046729 166.53888221923262,143.9240773182828 169.38187448866665,140.5063816695474 171.65626830328256,134.6962899316568 172.79346521012485,124.44315880723298 174.49926057178527,116.92417321680114 175.35215825308114,107.01275368826464 173.9306621188298,101.202595643932 169.6661737151444,96.41775097092614 166.25458299182355,94.70887598302215 161.99009458906949,94.02532570902258 157.44130695797503,95.05065105995163 153.74541700910777,97.4430754869245 149.19662937894464,104.62033706344664 147.20653479080647,114.5317646714393 146.06933788210154,124.44315880723298 145.50073942914605,134.35451947152615 149.19662937894464,141.53169078170322 155.7355115963146,145.9746927979868 159.71570077259094,146.65823097270913 163.41159072332084,145.6329236512538 168.24467758089304,142.55699953599833 171.08766985032707,137.43045218242332 172.5091659836471,126.83555927313864 174.21496134530753,115.89885550783947 174.78355980012566,110.43048834102228 175.35215825308114,107.01275368826464 174.21496134530753,101.88614424597472 171.37196907680482,97.4430754869245 166.82318144571036,95.05065105995163 161.42149613425136,94.02532570902258 157.7256061853841,94.70887598302215 150.6181255141273,100.86082128365524 148.9123301524669,103.9367890979629 147.77513324376196,113.16467319824733 146.63793633598834,122.39252828457393 146.06933788210154,131.9621251344215 146.92223556246608,137.7722222842276 151.75532242003828,143.5823079328984 156.58840927761048,145.9746927979868 162.27439381554723,145.29115446377546 165.40168531052768,143.9240773182828 169.0975752621889,139.48107219813392 171.37196907680482,131.6203543562442 172.79346521012485,121.70898445742205 174.21496134530753,111.7975810887292 174.49926057178527,103.9367890979629 173.07776443846524,99.83549796277657 168.81327603384852,95.73420109576546 165.11738608498126,94.02532570902258 160.5685984538868,94.02532570902258 156.58840927761048,95.73420109576546 152.03962164744735,99.83549796277657 148.6280309241265,109.40516836405732 146.92223556246608,119.31657981243916 146.06933788210154,128.88618669169955 145.7850386556238,134.6962899316568 147.77513324376196,140.16461188485846 151.75532242003828,144.26584666478448 156.30411005020142,146.3164619046729 160.00000000093132,146.65823097270913 163.6958899507299,145.9746927979868 168.24467758089304,142.55699953599833 170.2347721690312,139.139302295167 171.9405675297603,131.27858353685588 172.79346521012485,121.70898445742205 173.64636289142072,111.7975810887292 174.21496134530753,104.27856310107745 172.22486675716937,98.81017428264022 167.96037835348397,95.39242609823123 163.12729149591178,94.02532570902258 159.43140154704452,94.36710086558014 154.598314688541,96.75952584901825 149.19662937894464,103.59501505503431 146.92223556246608,114.5317646714393 145.50073942914605,124.78493042220362 144.64784174785018,131.9621251344215 145.21644020080566,135.37983073317446 148.05943247117102,140.84815141395666 151.1867239670828,143.9240773182828 155.16691314335912,145.9746927979868 161.1371969077736,146.65823097270913 167.67607912793756,142.89876904152334 171.65626830328256,137.08868203964084 173.07776443846524,127.1773306101095 174.49926057178527,116.58240068610758 174.78355980012566,107.01275368826464 174.78355980012566,103.25324097345583 172.22486675716937,98.1266249648761 168.24467758089304,94.70887598302215 162.84299227036536,93.0 159.14710231963545,93.68355051288381 152.3239208739251,98.1266249648761 150.04952705837786,101.202595643932 147.77513324376196,110.43048834102228 145.7850386556238,121.02544047194533 144.64784174785018,131.27858353685588 146.3536371095106,137.08868203964084 149.19662937894464,141.18992111785337 153.4611177816987,143.9240773182828 155.7355115963146,144.9493852367159 161.1371969077736,144.9493852367159 165.40168531052768,143.24053850769997 168.81327603384852,140.16461188485846 170.80337062384933,136.0633713756688 172.22486675716937,124.78493042220362 172.5091659836471,114.87353743985295 173.9306621188298,105.30388486944139 172.5091659836471,100.17727244226262 170.2347721690312,97.10130068776198 164.2644884046167,94.36710086558014 160.2842992283404,94.36710086558014 154.31401546206325,97.10130068776198 150.33382628578693,102.22791848797351 147.77513324376196,110.43048834102228 147.20653479080647,114.5317646714393 145.7850386556238,124.1013871524483 144.93214097432792,133.67097843135707 146.92223556246608,139.48107219813392 151.1867239670828,143.9240773182828 154.88261391595006,145.9746927979868 160.85289768129587,146.65823097270913 165.68598453886807,144.26584666478448 169.6661737151444,140.5063816695474 171.9405675297603,135.03806035174057 172.79346521012485,125.12670199666172 174.21496134530753,115.55708285886794 174.78355980012566,106.32920628110878 173.64636289142072,100.86082128365524 168.81327603384852,95.05065105995163 164.8330868575722,93.68355051288381 160.85289768129587,93.68355051288381 156.87270850501955,95.05065105995163 152.3239208739251,98.81017428264022 148.9123301524669,105.30388486944139 146.92223556246608,114.5317646714393 145.7850386556238,125.81024502567016 145.21644020080566,132.987437231699 145.7850386556238,136.4051416371949 150.33382628578693,142.89876904152334 154.31401546206325,145.6329236512538 157.1570077314973,146.3164619046729 159.43140154704452,146.3164619046729" stroke="#4DD2FF" stroke-linecap="round" stroke-linejoin="round" stroke-width="0.5"><title>2024-06-03 4.1km</title><desc>9223370319435416669</desc></polyline><polyline fill="none" points="30.017938256263733,158.00004279683344 29.74065876286477,162.66674152598716 27.799702310934663,169.00010620476678 26.690584341064095,180.3334606536664 25.30418687593192,191.3334382364992 25.858745861798525,195.3334196030628 27.522422819398344,199.33339538169093 32.236174198798835,204.0000267245341 36.39536659233272,205.3333485685289 38.33632304240018,205.3333485685289 44.71375137846917,202.66670426074415 47.76382580026984,199.6667264434509 50.25934123713523,193.66676138015464 51.64573870040476,183.00012576719746 53.03213616553694,172.00011616107076 52.477577179670334,161.66673529543914 51.92301819473505,159.00005030748434 51.09117971546948,157.33337092748843 43.88191290013492,153.0 40.554558984935284,153.0 35.56352811306715,155.33335439185612 30.84977673366666,158.33337867213413 29.18609977606684,160.6667287161108 26.690584341064095,171.00011319108307 26.13602535519749,181.3334603619296 25.026907383464277,190.33344202069566 25.30418687593192,196.00008262158372 29.46337926853448,202.33337354683317 33.89985115546733,206.0000092573464 39.16816152073443,207.0 44.436471885070205,205.3333485685289 47.20926681533456,203.00003493460827 50.53662072960287,197.66673948662356 53.03213616553694,187.66678373795003 54.69581312313676,178.33346018800512 55.52765160147101,169.00010620476678 54.9730926156044,163.6667474070564 53.58669515233487,160.33339311252348 49.42750275786966,156.00002672616392 43.60463340766728,154.33334559993818 37.781764056533575,154.33334559993818 36.118087098933756,155.0000181661453 30.017938256263733,160.33339311252348 27.522422819398344,168.33343689749017 27.799702310934663,174.6667890381068 26.690584341064095,180.3334606536664 25.858745861798525,181.66679352056235 24.47234839759767,191.3334382364992 25.026907383464277,196.6667454834096 30.017938256263733,203.00003493460827 33.34529217053205,205.3333485685289 39.16816152073443,206.66666979086585 42.77279492840171,206.0000092573464 47.4865463078022,202.33337354683317 50.53662072960287,197.00007685716264 52.20029768720269,187.66678373795003 54.41853363066912,177.3334594303742 55.250372109003365,168.00010218680836 54.9730926156044,163.6667474070564 52.20029768720269,158.33337867213413 47.20926681533456,154.33334559993818 43.60463340766728,153.33333645854145 39.445441015064716,153.6666728775017 31.404335720464587,159.00005030748434 28.631540791131556,165.6667581202928 28.07698180526495,175.00012297276407 25.858745861798525,184.66679020226002 25.026907383464277,192.33343410119414 26.690584341064095,198.0000707441941 30.017938256263733,202.33337354683317 34.45441014133394,205.0000181661453 38.05904354993254,205.6666789315641 43.32735391519964,204.6666877239477 47.4865463078022,201.3333811738994 50.25934123713523,196.6667454834096 51.64573870040476,187.33345127874054 53.03213616553694,178.33346018800512 53.58669515233487,167.666767437011 53.03213616553694,162.33340615429915 51.64573870040476,158.66671450971626 47.20926681533456,155.33335439185612 41.94095645099878,153.6666728775017 36.67264608480036,155.0000181661453 30.84977673366666,159.66672178753652 28.07698180526495,168.66677157045342 27.24514332599938,177.66679305536672 26.13602535519749,188.3334485415835 25.858745861798525,195.3334196030628 27.522422819398344,199.33339538169093 31.95889470539987,203.66669616708532 37.22720507066697,205.6666789315641 42.49551543593407,205.0000181661453 45.82286935020238,203.3333655698225 48.59566427953541,200.33338845334947 50.25934123713523,196.6667454834096 51.36845920793712,186.6667862420436 53.03213616553694,177.3334594303742 53.86397464480251,168.00010218680836 52.7548566730693,161.0000642822124 49.42750275786966,156.66669890494086 46.10014884267002,154.66668190225028 40.554558984935284,154.00000925874338 35.28624862059951,156.00002672616392 31.1270562261343,159.66672178753652 28.07698180526495,168.33343689749017 26.967863833531737,177.66679305536672 25.858745861798525,186.6667862420436 26.13602535519749,188.3334485415835 25.30418687593192,192.00010218494572 26.690584341064095,197.66673948662356 31.1270562261343,203.3333655698225 35.28624862059951,205.3333485685289 40.27727949246764,206.0000092573464 43.60463340766728,205.0000181661453 47.76382580026984,201.66671200376004 50.25934123713523,196.6667454834096 51.36845920793712,187.33345127874054 52.7548566730693,177.66679305536672 52.477577179670334,173.33345290995203 53.30941565800458,169.3334407992661 52.7548566730693,163.00007685902528 49.42750275786966,158.00004279683344 46.10014884267002,155.66669057798572 40.554558984935284,154.66668190225028 36.67264608480036,155.66669057798572 30.572497241199017,160.6667287161108 28.908820283599198,164.00008262251504 27.799702310934663,173.33345290995203 26.690584341064095,183.00012576719746 25.58146636839956,192.33343410119414 27.24514332599938,198.0000707441941 29.46337926853448,201.66671200376004 32.236174198798835,204.33335724310018 37.50448456313461,206.0000092573464 41.38639746326953,205.6666789315641 47.4865463078022,201.3333811738994 49.98206174466759,196.3334140717052 51.09117971546948,187.33345127874054 52.20029768720269,178.00012664147653 53.03213616553694,167.666767437011 53.03213616553694,163.6667474070564 50.53662072960287,158.66671450971626 46.10014884267002,155.33335439185612 40.83183847833425,154.66668190225028 36.118087098933756,156.00002672616392 31.68161521293223,160.0000574698206 28.908820283599198,165.00008803792298 27.522422819398344,174.6667890381068 26.690584341064095,184.0001245441381 26.13602535519749,194.6667564297095 28.07698180526495,199.6667264434509 31.68161521293223,204.0000267245341 36.94992557819933,206.0000092573464 42.2182359425351,205.3333485685289 46.931987321935594,202.66670426074415 49.98206174466759,197.66673948662356 51.92301819473505,188.66678088484332 53.58669515233487,179.33346059522592 54.41853363066912,175.6667907270603 54.14125413727015,166.33342804713175 53.03213616553694,161.33339980826713 49.70478225219995,157.0000349355396 45.268310364335775,154.00000925874338 43.32735391519964,153.33333645854145 39.72272050566971,154.00000925874338 34.17713064793497,156.66669890494086 29.74065876286477,161.66673529543914 27.24514332599938,169.6667753555812 26.41330484766513,178.66679369541816 25.58146636839956,189.3334454561118 25.30418687593192,191.3334382364992 26.690584341064095,197.33340819110163 30.017938256263733,202.33337354683317 35.84080760553479,205.3333485685289 39.445441015064716,205.6666789315641 42.77279492840171,204.6666877239477 46.931987321935594,202.00004279450513 49.98206174466759,197.66673948662356 51.36845920793712,188.3334485415835 52.477577179670334,178.00012664147653 53.58669515233487,167.3334326473996 53.03213616553694,162.00007074489258 49.98206174466759,157.66670688148588 44.436471885070205,154.33334559993818 39.445441015064716,154.33334559993818 34.45441014133394,156.66669890494086 31.68161521293223,159.00005030748434 28.631540791131556,166.33342804713175 27.522422819398344,175.6667907270603 26.41330484766513,185.0001229722984 25.30418687593192,191.00010620290413 25.58146636839956,193.33342961850576 29.18609977606684,200.66671939892694 34.17713064793497,204.6666877239477 36.118087098933756,205.3333485685289 43.05007442086935,204.33335724310018 46.654707830399275,202.00004279450513 49.70478225219995,197.33340819110163 51.36845920793712,187.00011878064834 52.20029768720269,177.66679305536672 53.58669515233487,166.66676295385696 53.58669515233487,165.3334230990149" stroke="#4DD2FF" stroke-linecap="round" stroke-linejoin="round" stroke-width="0.5"><title>2024-06-02 4.3km</title><desc>9223370319521430187</desc></polyline><polyline fill="none" points="89.7527861604467,157.72504016710445 88.62980382237583,165.15008772257715 89.47204057499766,167.51259886543266 88.91054940689355,177.63762480416335 88.06831265240908,187.42511625564657 87.2260758979246,192.15010029869154 87.50682148337364,194.51258943136781 90.87576849851757,200.58755264431238 93.96396993007511,202.9500349003356 98.17515369970351,203.96252670534886 102.38633746933192,203.2875322077889 104.63230214547366,202.27504016668536 106.31677565351129,200.58755264431238 109.68572266958654,193.83759273262694 111.37019617762417,182.7001245096326 111.65094176214188,177.63762480416335 113.05466968659312,168.18760169530287 112.77392410114408,163.12507663993165 111.08945059217513,159.07505022897385 107.4397579934448,155.70002389559522 102.94782863836735,154.01250925543718 94.80620668455958,155.70002389559522 93.40247876103967,157.05003490066156 89.47204057499766,163.12507663993165 88.34905823785812,172.57511625718325 87.50682148337364,181.68762527615763 86.10309355985373,190.80010564439 87.2260758979246,195.18758597341366 88.91054940689355,198.90006414009258 93.12173317652196,202.6125375526026 95.08695226814598,203.2875322077889 99.57888162322342,203.96252670534886 104.07081097736955,202.27504016668536 105.75528448540717,201.26254777098075 108.56274033151567,197.5500726304017 109.96646825503558,192.82509739114903 110.52795942407101,183.71262338990346 112.49317851662636,173.92511940049008 113.33541527017951,168.52510305168107 114.73914319463074,167.51259886543266 113.33541527017951,162.1125705682207 109.96646825503558,157.72504016710445 106.31677565351129,154.68751522991806 103.79006539285183,154.01250925543718 101.26335513032973,154.35001226165332 96.49068019166589,156.0375267053023 92.2794964229688,158.40004527638666 89.7527861604467,162.78757465467788 88.34905823785812,173.92511940049008 87.78756706696004,184.3876224460546 86.66458472982049,192.48759886459447 88.91054940689355,198.90006414009258 90.31427732948214,200.92505022743717 94.2447155136615,203.625029475661 99.01739045232534,204.6375210462138 101.26335513032973,204.6375210462138 105.47453889995813,202.27504016668536 108.56274033151567,198.90006414009258 109.40497708600014,196.53757858416066 110.52795942407101,185.7376200875733 111.08945059217513,175.27512191678397 112.77392410114408,167.85010030050762 112.49317851662636,162.78757465467788 110.52795942407101,158.40004527638666 109.12423150148243,156.37502947659232 107.15901240799576,155.0250181579031 99.85962720680982,153.67500620917417 97.61366252973676,154.01250925543718 94.2447155136615,156.37502947659232 91.15651408303529,160.0875573621597 89.47204057499766,164.4750841858331 88.62980382237583,173.92511940049008 88.06831265240908,183.03762417519465 86.66458472982049,191.81260169413872 87.50682148337364,195.86258235690184 91.15651408303529,201.26254777098075 94.80620668455958,203.2875322077889 99.01739045232534,204.6375210462138 102.94782863836735,203.2875322077889 106.59752123896033,200.92505022743717 109.12423150148243,196.87507663900033 110.2472138395533,187.42511625564657 111.08945059217513,176.62512380233966 113.33541527017951,166.16259273397736 111.37019617762417,159.07505022897385 108.56274033151567,156.0375267053023 104.35155656281859,154.01250925543718 99.85962720680982,153.33750312402844 95.92918902169913,154.68751522991806 92.5602420065552,157.38753755390644 90.59502291493118,161.437566322973 88.34905823785812,169.8751080816146 87.50682148337364,181.0126255908981 86.94533031433821,190.80010564439 87.2260758979246,195.18758597341366 88.91054940689355,199.57505966094323 95.08695226814598,203.625029475661 99.29813603777438,204.97501815692522 105.19379331637174,201.93754274141975 108.28199474699795,198.56256632204168 110.2472138395533,189.78760924004018 111.08945059217513,180.67512568854727 112.49317851662636,169.53760688286275 112.49317851662636,162.78757465467788 110.80870500858873,158.7375477727037 107.15901240799576,155.36252104653977 100.7018639612943,153.67500620917417 98.73664486967027,153.67500620917417 93.40247876103967,157.38753755390644 90.03353174589574,162.78757465467788 88.34905823785812,173.58761867391877 86.94533031433821,184.05012293742038 86.66458472982049,194.17509110225365 88.34905823785812,197.88757056649774 91.99875083751976,202.6125375526026 98.45589928422123,204.6375210462138 100.7018639612943,204.30002389592119 106.31677565351129,200.25005502230488 108.00124916154891,198.56256632204168 109.40497708600014,194.17509110225365 110.52795942407101,184.72512191464193 112.21243293210864,173.58761867391877 113.33541527017951,165.15008772257715 111.37019617762417,159.07505022897385 108.28199474699795,155.70002389559522 104.35155656281859,153.67500620917417 100.14037279225886,153.0 96.20993460714817,154.01250925543718 91.43725966848433,158.7375477727037 89.47204057499766,162.78757465467788 87.78756706696004,173.25011790753342 86.94533031433821,184.05012293742038 86.10309355985373,191.81260169413872 88.06831265240908,197.5500726304017 90.87576849851757,200.92505022743717 95.64844343811274,203.96252670534886 100.7018639612943,205.3125152294524 106.03603006899357,202.27504016668536 108.84348591603339,198.90006414009258 111.08945059217513,188.43761348514818 112.77392410114408,177.63762480416335 113.89690644014627,167.85010030050762 113.33541527017951,162.1125705682207 110.52795942407101,156.37502947659232 104.9130477309227,153.33750312402844 101.26335513032973,153.0 95.64844343811274,154.35001226165332 91.43725966848433,158.40004527638666 89.47204057499766,161.77506846562028 88.34905823785812,171.56261348584667 87.2260758979246,181.35012545366772 86.10309355985373,191.13760436652228 87.2260758979246,197.21257465495728 89.7527861604467,200.92505022743717 94.52546109911054,204.30002389592119 98.45589928422123,204.97501815692522 102.10559188574553,203.96252670534886 106.87826682440937,200.58755264431238 109.12423150148243,197.21257465495728 111.08945059217513,187.42511625564657 111.9316873466596,177.30012450995855 113.33541527017951,167.17509739100933 112.77392410114408,162.78757465467788 111.37019617762417,159.07505022897385 107.4397579934448,154.68751522991806 103.50931980833411,153.0 99.01739045232534,153.33750312402844 96.49068019166589,154.35001226165332 91.43725966848433,159.7500550239347 89.7527861604467,164.13758235890418 88.62980382237583,173.92511940049008 87.2260758979246,182.7001245096326 86.66458472982049,190.80010564439 87.78756706696004,196.53757858416066 89.7527861604467,199.91255736141466 94.52546109911054,203.2875322077889 98.17515369970351,203.96252670534886 103.50931980833411,202.9500349003356 108.00124916154891,199.57505966094323 109.96646825503558,193.5000943245832 111.08945059217513,183.03762417519465 111.9316873466596,174.60012073768303 113.05466968659312,170.550110361306 111.9316873466596,160.42505966080353 109.96646825503558,157.38753755390644 106.87826682440937,154.68751522991806 103.22857422288507,153.67500620917417 99.29813603777438,153.67500620917417 92.84098759107292,157.05003490066156 90.59502291493118,159.7500550239347 88.62980382237583,169.8751080816146 87.78756706696004,180.33762574754655 85.54160238988698,189.45011036051437 85.54160238988698,193.5000943245832 87.78756706696004,198.90006414009258 90.31427732948214,201.6000452756416 97.05217136163265,203.96252670534886 101.26335513032973,203.96252670534886 104.9130477309227,201.93754274141975 108.00124916154891,199.23756192042492 109.40497708600014,195.18758597341366 111.37019617762417,185.40012073563412 112.77392410114408,175.9501229377929 112.77392410114408,165.48758943355642 112.77392410114408,163.46257858583704 110.2472138395533,157.72504016710445 107.4397579934448,155.0250181579031 102.94782863836735,153.33750312402844 98.73664486967027,154.01250925543718 94.80620668455958,155.70002389559522 90.03353174589574,160.42505966080353 87.50682148337364,168.52510305168107 86.94533031433821,178.98762559029274 85.54160238988698,189.45011036051437 85.54160238988698,193.16259587742388 86.66458472982049,197.21257465495728 90.31427732948214,201.93754274141975 97.33291694615036,205.98750925576314 102.94782863836735,207.0 104.9130477309227,205.65001226193272 108.84348591603339,199.57505966094323 111.37019617762417,188.7751124824863 113.33541527017951,178.98762559029274 113.89690644014627,168.86260436824523 113.89690644014627,163.12507663993165 112.49317851662636,159.07505022897385 109.68572266958654,156.0375267053023 103.79006539285183,153.67500620917417 97.8944081151858,154.01250925543718 94.2447155136615,155.36252104653977 90.03353174589574,159.07505022897385 87.50682148337364,170.21260924148373 86.10309355985373,179.66262574773282 85.26085680630058,189.11261144047603 85.26085680630058,191.81260169413872 87.2260758979246,197.21257465495728 90.03353174589574,200.58755264431238 94.2447155136615,203.625029475661 98.73664486967027,204.6375210462138 103.22857422288507,203.625029475661 106.87826682440937,200.92505022743717" stroke="#4DD2FF" stroke-linecap="round" stroke-linejoin="round" stroke-width="0.5"><title>2024-05-28 4.9km</title><desc>9223370319956977916</desc></polyline><polyline fill="none" points="169.73250793293118,207.0 168.23519901931286,206.28000620543025 169.73250793293118,195.8400773264002 171.52927862852812,183.60011581145227 173.6255111079663,171.7201068191789 174.52389645576477,164.1600773271639 173.9249728899449,161.6400633866433 172.42766397632658,159.1200473944191 170.33143149875104,156.96003205049783 164.94111941196024,154.44001224078238 159.5508073233068,153.36000312282704 152.3637245427817,156.6000293456018 150.26749206334352,158.76004494121298 147.87179780378938,167.0400907418225 146.3744888920337,177.84011715254746 145.77556532621384,187.9201077616308 145.47610354423523,192.6000922296662 146.6739506740123,197.64006757945754 149.96803028322756,202.32003733259626 154.45995702035725,205.2000151979737 159.5508073233068,206.28000620543025 166.43842832371593,203.7600265997462 169.43304615095258,200.88004739349708 171.52927862852812,193.32008921145461 172.72712576016784,183.24011621042155 173.6255111079663,173.1601103397552 174.22443467192352,163.080071604345 172.12820219434798,158.76004494121298 170.33143149875104,156.6000293456018 164.94111941196024,154.0800092436839 159.5508073233068,153.7200062039774 152.3637245427817,156.6000293456018 148.77018315158784,163.080071604345 147.57233601994812,172.80010952311568 146.9734124559909,174.9601137994323 146.07502710819244,184.68011436495 145.77556532621384,194.76008267118596 147.57233601994812,199.44005678407848 151.46533919498324,203.4000293458812 156.25672771595418,205.5600122420583 161.04811623692513,205.92000924423337 167.03735188953578,202.6800347128883 169.73250793293118,199.08005902729928 170.93035506270826,194.76008267118596 172.42766397632658,183.60011581145227 173.32604932412505,171.7201068191789 174.22443467192352,164.52007915033028 172.72712576016784,160.200054500252 169.43304615095258,156.6000293456018 164.94111941196024,154.44001224078238 157.7540366295725,154.0800092436839 155.65780415199697,154.8000151971355 151.76480097696185,157.6800373326987 148.47072136960924,163.80007546115667 147.57233601994812,174.9601137994323 146.3744888920337,185.40011319122277 145.47610354423523,194.4000843691174 146.9734124559909,199.08005902729928 150.56695384718478,203.04003205057234 157.7540366295725,205.92000924423337 162.54542515054345,205.5600122420583 166.43842832371593,203.7600265997462 168.83412258513272,200.52004980458878 170.63089328072965,196.5600735526532 171.52927862852812,185.04011379857548 172.42766397632658,175.32011436508037 173.9249728899449,164.1600773271639 172.12820219434798,159.48004980455153 168.5346608031541,155.880023811711 164.04273406416178,154.0800092436839 159.5508073233068,153.7200062039774 155.35834236815572,155.16001811088063 152.0642627608031,158.0400399104692 149.06964493356645,164.1600773271639 147.57233601994812,174.9601137994323 146.07502710819244,185.76011254172772 145.17664176039398,194.4000843691174 146.6739506740123,199.08005902729928 149.96803028322756,203.04003205057234 156.25672771595418,206.6400031237863 158.65242197737098,207.0 165.2405811958015,205.2000151979737 169.43304615095258,200.88004739349708 171.2298168465495,196.5600735526532 171.52927862852812,185.04011379857548 171.82874041236937,176.04011537204497 173.9249728899449,165.96008602483198 173.02658754214644,161.28006122843362 170.0319697149098,157.32003471208736 163.74327228218317,153.7200062039774 157.4545748475939,154.0800092436839 153.56157167255878,156.2400265992619 149.36910671554506,161.6400633866433 147.57233601994812,173.52011111634783 145.77556532621384,184.68011436495 145.47610354423523,195.8400773264002 147.27287423983216,200.16005217377096 150.86641562916338,204.12002381216735 155.35834236815572,206.28000620543025 160.1497308909893,207.0 166.13896654359996,204.48002098221332 168.83412258513272,201.24004494096152 170.63089328072965,197.2800696119666 171.52927862852812,192.96009074221365 172.12820219434798,181.44011757196859 173.9249728899449,170.64010373759083 174.22443467192352,165.96008602483198 173.02658754214644,160.92005902691744 170.0319697149098,157.32003471208736 165.8395047597587,154.44001224078238 161.34757802076638,153.7200062039774 158.95188375934958,153.7200062039774 152.96264810860157,157.32003471208736 150.26749206334352,160.92005902691744 147.57233601994812,167.76009367662482 146.07502710819244,176.760116210673 146.6739506740123,181.44011757196859 145.47610354423523,192.24009367567487 145.77556532621384,196.92007160396315 148.17125958763063,201.60004244698212 151.76480097696185,204.48002098221332 156.25672771595418,206.6400031237863 160.4491926729679,207.0 166.43842832371593,204.48002098221332 169.13358436711133,200.88004739349708 172.42766397632658,189.72010262613185 173.32604932412505,187.56010866258293 172.72712576016784,182.52011688007042 174.22443467192352,171.36010583443567 174.82335823774338,164.52007915033028 174.22443467192352,162.3600675801281 170.33143149875104,156.2400265992619 167.03735188953578,153.7200062039774 164.94111941196024,153.0 157.7540366295725,154.44001224078238 153.86103345640004,156.96003205049783 150.86641562916338,160.200054500252 148.17125958763063,170.64010373759083 146.3744888920337,181.44011757196859 145.17664176039398,192.96009074221365 145.77556532621384,197.64006757945754 148.17125958763063,201.60004244698212 151.76480097696185,204.84001811081544 161.34757802076638,206.28000620543025 167.3368136715144,203.04003205057234 169.43304615095258,199.44005678407848 170.63089328072965,195.48007915052585 171.82874041236937,184.32011488848366 172.72712576016784,173.1601103397552 173.6255111079663,170.64010373759083 173.6255111079663,170.64010373759083" stroke="#4DD2FF" stroke-linecap="round" stroke-linejoin="round" stroke-width="0.5"><title>2024-04-08 3.0km</title><desc>9223370324277236884</desc></polyline><polyline fill="none" points="27.99327688664198,258.16987970122136 27.99327688664198,259.8679818348028 29.123321414925158,262.24532316066325 31.10089933872223,263.94342292216606 33.36098839621991,264.9622823037207 37.88116651028395,265.98114133020863 42.68385575618595,265.3019020180218 48.89910066127777,260.8868426408153 50.02914519049227,259.1887411007192 51.441700850613415,254.4340515276417 50.876678586006165,247.64162440481596 52.571745378896594,238.1321998552885 53.41927877534181,228.28312031319365 53.136767643503845,223.52838035440072 50.02914519049227,217.4151318720542 46.639011605642736,215.37737953127362 40.42376669868827,215.0377540020272 33.92601065989584,217.4151318720542 30.818388207815588,220.81138261058368 29.123321414925158,224.88687827647664 27.42825462296605,235.0755925225094 26.580721226520836,246.28313708025962 26.8632323583588,257.15101794642396 29.123321414925158,261.2264628307894 34.773544057272375,264.9622823037207 36.751121981069446,265.6415216939058 42.68385575618595,264.9622823037207 46.07398934010416,262.58494319207966 49.746634057722986,257.15101794642396 52.85425651073456,246.6227589712944 55.11434556823224,237.11333109950647 55.11434556823224,227.60387222189456 54.831834436394274,223.18875577487051 52.571745378896594,218.43400750937872 50.5941674541682,216.3962558801286 45.79147820919752,214.01887718006037 40.70627783052623,213.0 38.16367764212191,213.6792514922563 33.64349952805787,216.3962558801286 28.840810283087194,222.50950649613515 27.145743490196764,226.5849997883197 25.16816556546837,237.79257697588764 25.16816556546837,248.32086782786064 25.73318783007562,255.45291423029266 26.29821009375155,257.49063857039437 29.405832546763122,261.56608298025094 35.056055188179016,265.3019020180218 39.0112110376358,266.660380482208 43.24887801986188,266.32076092623174 48.61658952943981,259.8679818348028 50.876678586006165,254.09443054674193 53.70178990717977,243.56616053706966 54.26681217178702,233.37747595249675 53.70178990717977,222.84913115529343 48.89910066127777,213.6792514922563 41.27130009513348,213.0 36.46861084923148,214.69812843413092 30.818388207815588,218.77363264304586 27.99327688664198,224.88687827647664 26.29821009375155,235.0755925225094 25.450676697306335,245.26427117432468 24.60314330086112,251.37746127904393 25.73318783007562,257.83025915618055 30.535877075977623,263.26418313616887 38.446188773959875,267.0 40.42376669868827,267.0 47.48654500115663,263.26418313616887 51.15918971784413,258.16987970122136 52.85425651073456,247.64162440481596 55.3968567000702,237.79257697588764 55.11434556823224,227.60387222189456 53.70178990717977,221.83025706070475 51.72421198245138,218.0943823370617 46.92152273841202,214.35850282688625 40.70627783052623,213.33962576650083 36.46861084923148,214.69812843413092 30.818388207815588,219.45288278977387 28.840810283087194,224.20762939355336 27.710765753872693,234.0567227001302 26.8632323583588,239.83031365601346 26.015698961913586,250.35859715146944 26.580721226520836,256.47177657904103 28.275788019411266,260.5472224110272 31.10089933872223,263.60380304954015 36.46861084923148,265.98114133020863 42.11883349251002,265.98114133020863 46.639011605642736,263.60380304954015 49.18161179404706,260.5472224110272 51.441700850613415,249.6793542020023 53.41927877534181,239.490690974053 54.26681217178702,229.6416160208173 53.41927877534181,220.47175771533512 52.00672311428934,218.77363264304586 46.92152273841202,215.37737953127362 42.96636688802391,214.01887718006037 38.446188773959875,214.69812843413092 34.2085217917338,216.7358812505845 31.10089933872223,221.15100746764801 28.840810283087194,231.0001110949088 27.42825462296605,241.52842646744102 25.73318783007562,251.37746127904393 25.73318783007562,254.09443054674193 27.145743490196764,258.849120674422 30.253365943208337,262.92456318368204 34.49103292450309,265.3019020180218 39.0112110376358,266.32076092623174 42.96636688802391,265.6415216939058 44.94394481275231,264.6226625496056 48.051567264832556,261.2264628307894 50.876678586006165,254.4340515276417 52.85425651073456,245.26427117432468 55.11434556823224,234.39634601329453 54.54932330362499,225.56612700037658 53.41927877534181,220.81138261058368 50.311656322330236,217.4151318720542 44.94394481275231,214.01887718006037 40.70627783052623,213.6792514922563 36.751121981069446,214.69812843413092 31.665921604260802,219.11325773620047 29.68834367953241,222.84913115529343 28.275788019411266,234.0567227001302 27.145743490196764,243.56616053706966 26.015698961913586,253.41518846689723 27.145743490196764,259.1887411007192 29.68834367953241,262.92456318368204 33.36098839621991,264.9622823037207 37.88116651028395,265.98114133020863 42.40134462341666,265.6415216939058 47.20403386838734,261.9057030901313 50.311656322330236,255.113293368835 52.28923424705863,245.9435151515063 53.98430103994906,234.73596928780898 54.54932330362499,225.56612700037658 53.136767643503845,221.15100746764801 48.33407839760184,216.05663047009148 44.37892254907638,214.35850282688625 37.59865537751466,215.37737953127362 33.64349952805787,217.75475712423213 30.535877075977623,221.490632283967 27.99327688664198,231.0001110949088 26.580721226520836,241.86804891144857 25.16816556546837,252.0567038343288 25.16816556546837,255.79253505310044 26.29821009375155,258.849120674422" stroke="#4DD2FF" stroke-linecap="round" stroke-linejoin="round" stroke-width="0.5"><title>2024-03-31 3.1km</title><desc>9223370324967953336</desc></polyline><polyline fill="none" points="106.84200881049037,264.496709730709 109.51931660622358,262.351030732505 111.00670982711017,259.84773667366244 112.19662440009415,250.90738408989273 113.68401762098074,239.8213107404299 114.57645355351269,226.94711082126014 114.57645355351269,224.08617017534561 113.68401762098074,221.2252268642187 112.19662440009415,218.72189928242005 110.11427389457822,216.93380690156482 104.75965830311179,214.43047582055442 96.7277349177748,215.14571348042227 94.34790576435626,216.57618830096908 91.07564068213105,221.2252268642187 89.58824746310711,231.95375053654425 88.10085424408317,242.32462112489156 86.31598237901926,252.3378422537353 86.01850373484194,255.1987565786112 87.20841831155121,260.20535023510456 88.69581153057516,262.351030732505 90.77816203795373,264.13909666775726 95.83529898524284,265.9271615622565 101.48739322088659,265.9271615622565 105.94957287982106,263.7814835635945 109.22183796204627,260.20535023510456 110.11427389457822,257.70205442700535 111.00670982711017,247.6888507900294 112.19662440009415,238.03323064674623 113.68401762098074,228.01996287540533 113.38653897680342,222.65569885331206 110.70923118107021,218.36428088904358 106.54453016631305,215.50333224749193 101.48739322088659,214.43047582055442 99.10756406933069,214.78809467121027 94.34790576435626,216.93380690156482 92.26555525884032,218.72189928242005 90.77816203795373,221.2252268642187 89.29076881706715,231.95375053654425 87.50589695386589,242.32462112489156 86.31598237901926,251.9802277747076 86.01850373484194,256.986826678738 88.10085424408317,261.27819067053497 91.67059797048569,264.496709730709 96.13277762942016,266.28477441566065 100.89243593253195,265.9271615622565 105.05713694728911,264.13909666775726 108.32940203137696,261.27819067053497 110.41175253875554,256.6292127412744 111.60166711360216,246.616005606018 112.79158168844879,234.81468385178596 113.98149626515806,225.15902322926559 113.0890603326261,220.50999062042683 111.60166711360216,218.36428088904358 107.436966098845,214.78809467121027 102.67730779759586,213.71523799351417 97.6201708484441,214.07285692705773 93.45546983368695,216.57618830096908 90.48068339377642,220.50999062042683 88.39833288639784,230.16566586028785 86.9109396673739,241.96700548008084 85.72102509066463,253.76829974888824 86.01850373484194,258.05966823827475 89.58824746310711,263.06625723070465 91.37311932630837,264.496709730709 96.43025627359748,266.28477441566065 101.48739322088659,266.28477441566065 105.65209423564374,264.13909666775726 108.92435931786895,260.9205772341229 110.70923118107021,256.6292127412744 112.49410304613411,245.90077527542599 113.68401762098074,235.17230032919906 114.87393219582736,226.5894933855161 113.38653897680342,219.7947542106267 111.00670982711017,216.57618830096908 105.94957287982106,213.35761901712976 103.86722237057984,213.0 99.40504271164536,213.35761901712976 95.53782034106553,214.78809467121027 91.96807661280036,218.00666245422326 89.88572610728443,221.94046294293366 88.10085424408317,231.95375053654425 86.61346102319658,243.03985228808597 85.12606780230999,253.41068543680012 85.42354644834995,257.70205442700535 86.61346102319658,260.9205772341229 89.29076881706715,263.7814835635945 93.45546983368695,265.9271615622565 97.91764949262142,266.64238722855225 104.46217965893447,264.85432275081985 109.22183796204627,260.5629637551028 111.00670982711017,256.6292127412744 112.19662440009415,245.5431600480806 113.38653897680342,234.81468385178596 114.57645355351269,224.44378790236078 113.68401762098074,220.1523724363651 111.00670982711017,216.57618830096908 107.436966098845,214.07285692705773 101.78487186320126,213.0 97.6201708484441,213.35761901712976 94.05042712017894,215.50333224749193 90.1832047495991,220.50999062042683 88.10085424408317,231.5961336849723 86.9109396673739,241.25177406682633 85.42354644834995,251.9802277747076 85.42354644834995,255.91398474294692 87.20841831155121,260.20535023510456 90.1832047495991,263.42387041822076 95.24034169688821,265.9271615622565 100.00000000186265,266.28477441566065 104.1647010166198,264.85432275081985 107.73444474302232,262.351030732505 109.8167952504009,258.41728200926445 111.89914575777948,250.54976944578812 113.0890603326261,240.5365424877964 114.27897490933537,230.16566586028785 113.98149626515806,223.72855240781792 112.49410304613411,219.43713594204746 108.92435931786895,215.86095097311772 104.46217965893447,213.71523799351417 99.40504271164536,213.71523799351417 95.24034169688821,215.14571348042227 91.67059797048569,218.72189928242005 89.58824746310711,223.01331674586982 88.39833288639784,234.45706733339466 86.61346102319658,244.8279294676613 85.42354644834995,255.1987565786112 87.20841831155121,260.20535023510456 91.67059797048569,264.496709730709 97.02521356008947,266.28477441566065 104.1647010166198,264.85432275081985 108.62688067369163,261.27819067053497 110.70923118107021,255.1987565786112 111.89914575777948,245.18554477882572 113.68401762098074,234.45706733339466 114.87393219582736,228.01996287540533 113.68401762098074,221.94046294293366 110.41175253875554,216.93380690156482 106.84200881049037,214.43047582055442 102.08235050737858,213.35761901712976 97.32269220612943,213.71523799351417 93.15799118950963,216.21856965776533 90.48068339377642,219.7947542106267 87.8033755980432,228.73519737063907 86.61346102319658,239.10607882705517 85.42354644834995,249.11931045050733 85.42354644834995,256.6292127412744 87.20841831155121,260.9205772341229 90.48068339377642,264.13909666775726 97.32269220612943,267.0 100.89243593253195,267.0 105.35461558960378,264.85432275081985 108.92435931786895,261.63580406666733 111.00670982711017,257.34444057405926 111.89914575777948,246.25839046062902 113.38653897680342,239.10607882705517" stroke="#4DD2FF" stroke-linecap="round" stroke-linejoin="round" stroke-width="0.5"><title>2024-03-27 3.0km</title><desc>9223370325311596095</desc></polyline></svg>